<?xml version="1.0" encoding="utf-8"?>
<!-- Generator: Adobe Illustrator 24.1.1, SVG Export Plug-In . SVG Version: 6.00 Build 0)  -->
<svg version="1.1" id="Capa_1" xmlns="http://www.w3.org/2000/svg" xmlns:xlink="http://www.w3.org/1999/xlink" x="0px" y="0px"
	 viewBox="0 0 212.47 5.51" style="enable-background:new 0 0 212.47 5.51;" xml:space="preserve">
<style type="text/css">
	.st0{fill:#F7F7F7;}
	.st1{fill:#013C74;}
	.st2{fill:#FFFFFF;}
	.st3{fill:#6DB1E4;}
	.st4{fill:#2E2E2E;}
	.st5{fill:#263238;}
	.st6{fill:#A78E80;}
	.st7{fill:#07849B;}
	.st8{fill:#0A0A0A;}
	.st9{fill:#079DC4;}
	.st10{fill:#FFFFFF;stroke:#AFAFAF;stroke-width:1.0617;stroke-miterlimit:10;}
	.st11{fill:#FFFFFF;stroke:#AFAFAF;stroke-miterlimit:10;}
	.st12{fill:#FFBE9D;}
	.st13{fill:#EB996E;}
	.st14{opacity:0.2;}
	.st15{fill:#FBFBFB;}
	.st16{opacity:0.6;}
	.st17{opacity:0.6;fill:#FFFFFF;}
	.st18{fill:#E0E0E0;}
	.st19{fill:#5B5B5B;}
	.st20{fill:#FAFAFA;}
	.st21{fill:#455A64;}
	.st22{fill:#F8F8F8;}
	.st23{opacity:0.3;}
	.st24{opacity:0.78;}
	.st25{fill:#FFFFFF;stroke:#FFFFFF;stroke-width:0.15;stroke-miterlimit:10;}
	.st26{opacity:0.85;fill:#013C74;}
	.st27{fill:none;stroke:#079DC4;stroke-width:0.8605;stroke-miterlimit:10;}
	.st28{fill:#1A1A1A;}
	.st29{fill:#222222;}
	.st30{fill:#868686;}
	.st31{fill:#94CEED;}
	.st32{fill:#C4E2EB;}
	.st33{fill:#0C0E0F;}
	.st34{fill:#1B1B1B;}
	.st35{fill:#262424;}
</style>
<g>
	<path class="st3" d="M141.82,5.5H70.65c-1.52,0-2.75-1.23-2.75-2.75v0C67.9,1.23,69.13,0,70.65,0l71.17,0
		c1.52,0,2.75,1.23,2.75,2.75v0C144.57,4.27,143.34,5.5,141.82,5.5z"/>
	<path class="st3" d="M184.63,5.51h-31.81c-1.52,0-2.75-1.23-2.75-2.75v0c0-1.52,1.23-2.75,2.75-2.75l31.81,0
		c1.52,0,2.75,1.23,2.75,2.75v0C187.38,4.28,186.14,5.51,184.63,5.51z"/>
	<path class="st3" d="M209.72,5.51h-13.15c-1.52,0-2.75-1.23-2.75-2.75v0c0-1.52,1.23-2.75,2.75-2.75l13.15,0
		c1.52,0,2.75,1.23,2.75,2.75v0C212.47,4.28,211.24,5.51,209.72,5.51z"/>
	<path class="st3" d="M27.85,5.51h31.81c1.52,0,2.75-1.23,2.75-2.75v0c0-1.52-1.23-2.75-2.75-2.75l-31.81,0
		c-1.52,0-2.75,1.23-2.75,2.75v0C25.1,4.28,26.33,5.51,27.85,5.51z"/>
	<path class="st3" d="M2.75,5.51l13.15,0c1.52,0,2.75-1.23,2.75-2.75v0c0-1.52-1.23-2.75-2.75-2.75l-13.15,0
		C1.23,0.01,0,1.24,0,2.76v0C0,4.28,1.23,5.51,2.75,5.51z"/>
</g>
</svg>
