<svg id="Capa_1" data-name="Capa 1" xmlns="http://www.w3.org/2000/svg" viewBox="0 0 241.63 60.58">
  <defs>
    <style>
      .cls-1 {
        fill: #fff;
      }

      .cls-2 {
        fill: #6db1e4;
      }

      .cls-3 {
        fill: #94ceed;
      }

      .cls-4 {
        fill: #c4e2eb;
      }
    </style>
  </defs>
  <title>Atenea</title>
  <g>
    <g>
      <polygon class="cls-1" points="39.82 0 34.2 37.88 37.48 37.88 38.45 30.85 38.45 30.85 38.59 29.9 38.59 29.9 38.99 27.26 40.33 17.89 41.35 9.88 42.37 17.89 43.82 28.03 44.25 31.18 45.22 37.88 48.5 37.88 42.88 0 39.82 0"/>
      <polygon class="cls-1" points="235.03 0 231.97 0 226.35 37.88 229.63 37.88 230.6 30.86 231.14 27.26 232.48 17.89 233.5 9.88 234.53 17.89 235.98 28.06 236.4 31.18 237.37 37.88 240.65 37.88 235.03 0"/>
      <polygon class="cls-1" points="71.95 3.21 76.67 3.21 76.67 37.88 79.89 37.88 79.89 3.21 84.61 3.21 84.61 0.05 71.95 0.05 71.95 3.21"/>
      <polygon class="cls-1" points="112.08 37.88 121.85 37.88 121.85 34.73 115.3 34.73 115.3 20.52 120.8 20.52 120.8 17.41 115.3 17.41 115.3 3.21 121.85 3.21 121.85 0.05 112.08 0.05 112.08 37.88"/>
      <polygon class="cls-1" points="158.25 22.17 158.28 23.52 152.95 0.05 149.85 0.05 149.85 37.88 153.06 37.88 153.06 15.76 153.03 14.42 158.36 37.88 161.46 37.88 161.46 0.05 158.25 0.05 158.25 22.17"/>
      <polygon class="cls-1" points="190.77 37.88 200.54 37.88 200.54 34.73 193.98 34.73 193.98 20.52 199.49 20.52 199.49 17.41 193.98 17.41 193.98 3.21 200.54 3.21 200.54 0.05 190.77 0.05 190.77 37.88"/>
    </g>
    <g>
      <g>
        <path class="cls-2" d="M7.78,5.17C4.33,8.81,1.5,14.51,4.27,19.1a4.81,4.81,0,0,1-1.76-4.33A9.43,9.43,0,0,0,0,20.3,14.38,14.38,0,0,0,1.6,27.63a7.42,7.42,0,0,1,1.48-5.06c1.73-2.64,5.68-6.76,6.22-8.35.95-2.85-1.54-5.4-1.61-8.14A3.56,3.56,0,0,1,7.78,5.17Z"/>
        <path class="cls-2" d="M14.31,5.74c-.68-2-.77-4.12.55-5.71a32.42,32.42,0,0,0-5,3.26A2.65,2.65,0,0,0,9.93,5c.75,2,3.68,3.28,4.77,5.09a2.62,2.62,0,0,1-.07,3.3A3.26,3.26,0,0,0,15.44,9a3.91,3.91,0,0,1,.61.32A19.79,19.79,0,0,1,14.31,5.74Z"/>
        <path class="cls-2" d="M23.59,22c-.55-3.31-3.2-6.47-5.14-9-.17-.25-.36-.5-.54-.77.32,2-1.48,4.16.12,6.47,1.91,2.75,4.87,5.6,4.43,9.8A10.27,10.27,0,0,0,23.59,22Z"/>
      </g>
      <path class="cls-3" d="M18,18.63c-1.6-2.31.2-4.47-.12-6.47,0,0,0-.07,0-.1a4.33,4.33,0,0,0-1.84-2.75A3.91,3.91,0,0,0,15.44,9a3.26,3.26,0,0,1-.81,4.38,2.62,2.62,0,0,0,.07-3.3C13.61,8.26,10.68,7,9.93,5a2.65,2.65,0,0,1-.08-1.69A4.12,4.12,0,0,1,11.91.94,6.48,6.48,0,0,0,7.78,5.17a3.56,3.56,0,0,0-.09.91c.07,2.74,2.56,5.29,1.61,8.14-.54,1.59-4.49,5.71-6.22,8.35A7.42,7.42,0,0,0,1.6,27.63a8.12,8.12,0,0,0,.66,2.3,2.26,2.26,0,0,1,.11.22,4.84,4.84,0,0,0,1.54,1.52A8.94,8.94,0,0,0,5,32.31q.57.27,1.23.51a11,11,0,0,1-1.32-3.57A11.93,11.93,0,0,1,7,20.18a29.49,29.49,0,0,1,4.35-4.74,11.39,11.39,0,0,0-1.78,6.34c.1,2.13,2,5.61,4.54,4.12A3.06,3.06,0,0,0,15,22.09a8.49,8.49,0,0,1,3.12,10.73,12.82,12.82,0,0,0,1.22-.51,8,8,0,0,0,1.13-.64,4.35,4.35,0,0,0,1.65-1.74h0c.07-.25.13-.51.19-.78s.08-.48.1-.72C22.9,24.23,19.94,21.38,18,18.63Z"/>
      <path class="cls-4" d="M18.16,32.82A8.49,8.49,0,0,0,15,22.09a3.06,3.06,0,0,1-.94,3.81c-2.57,1.49-4.44-2-4.54-4.12a11.39,11.39,0,0,1,1.78-6.34A29.49,29.49,0,0,0,7,20.18a11.93,11.93,0,0,0-2,9.07,11,11,0,0,0,1.32,3.57,17.85,17.85,0,0,0,6,1A17.81,17.81,0,0,0,18.16,32.82Z"/>
      <path class="cls-1" d="M20.22,36.64a1.58,1.58,0,0,0-1.84-1.92,34.66,34.66,0,0,1-6.55.62,34.85,34.85,0,0,1-6.4-.59A1.57,1.57,0,0,0,3.6,36.66L4,38.1l.1.44a1.58,1.58,0,0,0,1.31,1.19,45.11,45.11,0,0,0,6.48.47,43.87,43.87,0,0,0,6.6-.49,1.6,1.6,0,0,0,1.31-1.18l.11-.45Z"/>
      <path class="cls-1" d="M11.86,41.74a37.43,37.43,0,0,1-5.19-.36L10.93,59a.93.93,0,0,0,1.78,0l4.4-17.63A36.76,36.76,0,0,1,11.86,41.74Z"/>
    </g>
    <g>
      <path class="cls-1" d="M42.21,47a4.77,4.77,0,0,1,1.84,1.86,5.44,5.44,0,0,1,.66,2.69v3.66A5.53,5.53,0,0,1,44,58a5.07,5.07,0,0,1-1.84,1.92,5,5,0,0,1-2.61.7A5.85,5.85,0,0,1,37,60a5.52,5.52,0,0,1-1.85-1.5.61.61,0,0,1-.15-.38.41.41,0,0,1,.19-.35.57.57,0,0,1,.33-.11.6.6,0,0,1,.49.24,4.33,4.33,0,0,0,1.52,1.18,4.83,4.83,0,0,0,2.06.42,3.89,3.89,0,0,0,2-.55,4,4,0,0,0,1.43-1.54,4.6,4.6,0,0,0,.52-2.19v-.82A4,4,0,0,1,42,56.16a4.78,4.78,0,0,1-2.47.63,5.44,5.44,0,0,1-2.69-.66A4.77,4.77,0,0,1,35,54.29a5.46,5.46,0,0,1-.67-2.7A5.24,5.24,0,0,1,35,48.91,5,5,0,0,1,36.86,47a5.67,5.67,0,0,1,5.35,0Zm-.59,8.18a3.86,3.86,0,0,0,1.45-1.47,4.75,4.75,0,0,0,0-4.32A3.75,3.75,0,0,0,41.62,48a4.49,4.49,0,0,0-4.23,0,3.78,3.78,0,0,0-1.46,1.48,4.75,4.75,0,0,0,0,4.32,3.89,3.89,0,0,0,1.46,1.47,4.49,4.49,0,0,0,4.23,0Z"/>
      <path class="cls-1" d="M52.48,55.82a3.41,3.41,0,0,1-.68-2.21V42.68a.53.53,0,0,1,.16-.41.54.54,0,0,1,.4-.15.52.52,0,0,1,.56.56V53.61a2.49,2.49,0,0,0,.36,1.4,1.08,1.08,0,0,0,.94.55h.47a.41.41,0,0,1,.33.15.59.59,0,0,1,.13.41.55.55,0,0,1-.15.4.51.51,0,0,1-.41.16h-.37A2.1,2.1,0,0,1,52.48,55.82Z"/>
      <path class="cls-1" d="M63.67,56.11a4.87,4.87,0,0,1-1.87-1.87,5.52,5.52,0,0,1,0-5.31,5,5,0,0,1,1.87-1.88,5.54,5.54,0,0,1,5.32,0,5,5,0,0,1,1.87,1.88,5.52,5.52,0,0,1,0,5.31A4.87,4.87,0,0,1,69,56.11a5.54,5.54,0,0,1-5.32,0Zm4.76-.9a3.87,3.87,0,0,0,1.46-1.49,4.53,4.53,0,0,0,0-4.25A3.83,3.83,0,0,0,68.43,48a4.25,4.25,0,0,0-4.18,0,3.92,3.92,0,0,0-1.47,1.5,4.45,4.45,0,0,0,0,4.25,4,4,0,0,0,1.47,1.49,4.31,4.31,0,0,0,4.18,0Z"/>
      <path class="cls-1" d="M86.86,47.05a5,5,0,0,1,1.88,1.88,5.24,5.24,0,0,1,.68,2.64,5.33,5.33,0,0,1-.68,2.67,4.9,4.9,0,0,1-1.88,1.87,5.19,5.19,0,0,1-2.66.68,5.28,5.28,0,0,1-2.62-.66A4.93,4.93,0,0,1,79.7,54.3a5.2,5.2,0,0,1-.7-2.61v-9a.56.56,0,0,1,.15-.41.58.58,0,0,1,.41-.15.5.5,0,0,1,.55.56V48.5a4.46,4.46,0,0,1,1.69-1.56,5,5,0,0,1,2.4-.57A5.29,5.29,0,0,1,86.86,47.05Zm-.57,8.15a4.07,4.07,0,0,0,1.47-1.5,4.45,4.45,0,0,0,0-4.25A3.9,3.9,0,0,0,86.29,48a4.31,4.31,0,0,0-4.18,0,3.8,3.8,0,0,0-1.46,1.49,4.45,4.45,0,0,0,0,4.25,4,4,0,0,0,3.55,2A4,4,0,0,0,86.29,55.2Z"/>
      <path class="cls-1" d="M104.18,47.05a5,5,0,0,1,1.88,1.88,5.29,5.29,0,0,1,.68,2.66v4.53a.55.55,0,0,1-.15.4.53.53,0,0,1-.41.16.55.55,0,0,1-.56-.56V54.67a4.32,4.32,0,0,1-1.69,1.56,5.12,5.12,0,0,1-2.4.56,5.19,5.19,0,0,1-2.66-.68A4.8,4.8,0,0,1,97,54.24a5.52,5.52,0,0,1,0-5.31,4.9,4.9,0,0,1,1.87-1.88,5.52,5.52,0,0,1,5.31,0Zm-.56,8.16a4,4,0,0,0,1.47-1.49,4.53,4.53,0,0,0,0-4.25,3.92,3.92,0,0,0-1.47-1.5A4.11,4.11,0,0,0,98,49.47a4.45,4.45,0,0,0,0,4.25,4,4,0,0,0,1.48,1.49,4.3,4.3,0,0,0,4.17,0Z"/>
      <path class="cls-1" d="M114.5,55.82a3.47,3.47,0,0,1-.68-2.21V42.68a.53.53,0,0,1,.16-.41.55.55,0,0,1,.4-.15.52.52,0,0,1,.56.56V53.61a2.49,2.49,0,0,0,.36,1.4,1.08,1.08,0,0,0,.94.55h.47a.43.43,0,0,1,.34.15.65.65,0,0,1,.13.41.55.55,0,0,1-.15.4.53.53,0,0,1-.41.16h-.38A2.11,2.11,0,0,1,114.5,55.82Z"/>
      <path class="cls-1" d="M135.37,56.41a4.07,4.07,0,0,1-1.7-1.16.53.53,0,0,1-.13-.34.5.5,0,0,1,.25-.43.48.48,0,0,1,.31-.09.54.54,0,0,1,.43.2,3.65,3.65,0,0,0,3,1.14,3.61,3.61,0,0,0,2.17-.52,1.6,1.6,0,0,0,.7-1.34q0-1.47-2.85-1.89a5.77,5.77,0,0,1-2.73-1,2.19,2.19,0,0,1-.92-1.76,2.48,2.48,0,0,1,1-2.11,4.69,4.69,0,0,1,6.16.92.5.5,0,0,1,.11.32.51.51,0,0,1-.3.43.8.8,0,0,1-.28.07.58.58,0,0,1-.47-.24,3.18,3.18,0,0,0-2.66-1.21,3,3,0,0,0-1.81.49,1.47,1.47,0,0,0-.67,1.22,1.36,1.36,0,0,0,.64,1.19,5.3,5.3,0,0,0,2.16.68,5.35,5.35,0,0,1,2.84,1,2.42,2.42,0,0,1,.87,1.87,2.3,2.3,0,0,1-.55,1.51,3.58,3.58,0,0,1-1.47,1,5.37,5.37,0,0,1-2,.35A5.88,5.88,0,0,1,135.37,56.41Z"/>
      <path class="cls-1" d="M155.33,47A4.55,4.55,0,0,1,157,48.81a5.63,5.63,0,0,1,.59,2.6.49.49,0,0,1-.15.38.56.56,0,0,1-.39.14h-7.81a4.13,4.13,0,0,0,.58,2,3.73,3.73,0,0,0,1.4,1.36,4,4,0,0,0,1.95.48,4.45,4.45,0,0,0,1.47-.25,3.13,3.13,0,0,0,1.16-.66.64.64,0,0,1,.39-.15.53.53,0,0,1,.34.11.47.47,0,0,1,.2.39.51.51,0,0,1-.16.36,4.66,4.66,0,0,1-1.56.89,5.21,5.21,0,0,1-4.46-.31,4.66,4.66,0,0,1-1.79-1.84,5.4,5.4,0,0,1-.66-2.68,5.89,5.89,0,0,1,.61-2.69,4.47,4.47,0,0,1,1.7-1.85,4.67,4.67,0,0,1,2.48-.66A4.75,4.75,0,0,1,155.33,47Zm-4.89,1.37A4.12,4.12,0,0,0,149.26,51h7.25a3.91,3.91,0,0,0-1.12-2.56,3.44,3.44,0,0,0-2.5-1A3.4,3.4,0,0,0,150.44,48.4Z"/>
      <path class="cls-1" d="M170.42,47a.61.61,0,0,1,0,.15.56.56,0,0,1-.18.29.61.61,0,0,1-.32.08,2.64,2.64,0,0,1-.44,0l-.46,0a3.48,3.48,0,0,0-1.66.39,3,3,0,0,0-1.14,1.08,3,3,0,0,0-.41,1.55v5.66a.59.59,0,0,1-.14.4.53.53,0,0,1-.41.16.54.54,0,0,1-.41-.16.55.55,0,0,1-.15-.4V47a.56.56,0,0,1,.15-.41.58.58,0,0,1,.41-.15.56.56,0,0,1,.41.15.6.6,0,0,1,.14.41V48.2a4.1,4.1,0,0,1,1.38-1.34,3.54,3.54,0,0,1,1.83-.49C170,46.37,170.42,46.58,170.42,47Z"/>
      <path class="cls-1" d="M185.84,47a.5.5,0,0,1,0,.2l-4.2,9.12a.61.61,0,0,1-.59.39.48.48,0,0,1-.31-.1.62.62,0,0,1-.21-.29l-4.26-9.1a.56.56,0,0,1,0-.2.5.5,0,0,1,.31-.49.51.51,0,0,1,.69.26L181,55.06l3.76-8.3a.5.5,0,0,1,.49-.31.69.69,0,0,1,.24,0A.51.51,0,0,1,185.84,47Z"/>
      <path class="cls-1" d="M192.84,44.09a.88.88,0,0,1-.24-.63.8.8,0,0,1,.26-.63.92.92,0,0,1,.62-.22.86.86,0,0,1,.6.22.8.8,0,0,1,.26.63.86.86,0,0,1-.26.63.81.81,0,0,1-.62.25A.83.83,0,0,1,192.84,44.09Zm.24,12.43a.52.52,0,0,1-.16-.4V47a.53.53,0,0,1,.16-.41.55.55,0,0,1,.4-.15A.52.52,0,0,1,194,47v9.08a.55.55,0,0,1-.15.4.53.53,0,0,1-.41.16A.52.52,0,0,1,193.08,56.52Z"/>
      <path class="cls-1" d="M204.35,56.11a4.81,4.81,0,0,1-1.82-1.87,5.4,5.4,0,0,1-.66-2.65,5.65,5.65,0,0,1,.61-2.65,4.7,4.7,0,0,1,1.72-1.87,4.6,4.6,0,0,1,2.46-.68,5.08,5.08,0,0,1,2.18.47,4.82,4.82,0,0,1,1.72,1.38.64.64,0,0,1,.13.31.45.45,0,0,1-.27.41.4.4,0,0,1-.29.12.51.51,0,0,1-.43-.23,3.82,3.82,0,0,0-3-1.41,3.46,3.46,0,0,0-3.22,2,4.94,4.94,0,0,0-.45,2.14,4.43,4.43,0,0,0,.5,2.13,3.79,3.79,0,0,0,1.4,1.49,3.87,3.87,0,0,0,2.05.54,3.72,3.72,0,0,0,2.63-.91.5.5,0,0,1,.39-.17.42.42,0,0,1,.33.13.52.52,0,0,1,.19.41.4.4,0,0,1-.15.33,4.55,4.55,0,0,1-1.53.93,5.42,5.42,0,0,1-1.86.32A4.94,4.94,0,0,1,204.35,56.11Z"/>
      <path class="cls-1" d="M224.81,47a4.55,4.55,0,0,1,1.67,1.78,5.63,5.63,0,0,1,.59,2.6.49.49,0,0,1-.15.38.56.56,0,0,1-.39.14h-7.81a4.13,4.13,0,0,0,.58,2,3.73,3.73,0,0,0,1.4,1.36,4,4,0,0,0,2,.48,4.45,4.45,0,0,0,1.47-.25,3.13,3.13,0,0,0,1.16-.66.64.64,0,0,1,.39-.15.53.53,0,0,1,.34.11.47.47,0,0,1,.2.39.51.51,0,0,1-.16.36,4.66,4.66,0,0,1-1.56.89,5.21,5.21,0,0,1-4.46-.31,4.66,4.66,0,0,1-1.79-1.84,5.4,5.4,0,0,1-.66-2.68,5.76,5.76,0,0,1,.61-2.69,4.47,4.47,0,0,1,1.7-1.85,4.67,4.67,0,0,1,2.48-.66A4.75,4.75,0,0,1,224.81,47Zm-4.89,1.37A4.12,4.12,0,0,0,218.74,51H226a3.91,3.91,0,0,0-1.12-2.56,3.44,3.44,0,0,0-2.5-1A3.4,3.4,0,0,0,219.92,48.4Z"/>
      <path class="cls-1" d="M235.52,56.41a4,4,0,0,1-1.7-1.16.48.48,0,0,1-.13-.34.54.54,0,0,1,.56-.52.55.55,0,0,1,.43.2,3.65,3.65,0,0,0,3,1.14,3.61,3.61,0,0,0,2.17-.52,1.6,1.6,0,0,0,.7-1.34q0-1.47-2.85-1.89A5.69,5.69,0,0,1,235,51a2.18,2.18,0,0,1-.93-1.76,2.51,2.51,0,0,1,1-2.11,4.16,4.16,0,0,1,2.6-.76,4.11,4.11,0,0,1,3.56,1.68.45.45,0,0,1,.11.32.49.49,0,0,1-.29.43.85.85,0,0,1-.28.07.57.57,0,0,1-.47-.24,3.18,3.18,0,0,0-2.67-1.21,3,3,0,0,0-1.8.49,1.47,1.47,0,0,0-.67,1.22,1.36,1.36,0,0,0,.64,1.19,5.3,5.3,0,0,0,2.15.68,5.28,5.28,0,0,1,2.84,1,2.42,2.42,0,0,1,.87,1.87,2.25,2.25,0,0,1-.55,1.51,3.54,3.54,0,0,1-1.46,1,5.43,5.43,0,0,1-2,.35A5.82,5.82,0,0,1,235.52,56.41Z"/>
    </g>
  </g>
</svg>
