<svg id="Capa_1" data-name="Capa 1" xmlns="http://www.w3.org/2000/svg" viewBox="0 0 28.19 28.19">
  <defs>
    <style>
      .cls-1 {
        fill: #6db1e4;
      }

      .cls-2 {
        fill: #fff;
      }
    </style>
  </defs>
  <title>Atenea</title>
  <g>
    <circle class="cls-1" cx="14.09" cy="14.09" r="14.09"/>
    <path class="cls-2" d="M19,16.54l-1.46-1.46a1,1,0,0,0-1.61.36,1,1,0,0,1-1.15.63,4.5,4.5,0,0,1-2.7-2.71.93.93,0,0,1,.62-1.14,1,1,0,0,0,.37-1.62L11.64,9.15a1,1,0,0,0-1.4,0l-1,1c-1,1,.1,3.8,2.55,6.25S17,20,18,18.93l1-1A1,1,0,0,0,19,16.54Z"/>
  </g>
</svg>
