<?xml version="1.0" encoding="utf-8"?>
<!-- Generator: Adobe Illustrator 22.0.0, SVG Export Plug-In . SVG Version: 6.00 Build 0)  -->
<svg version="1.1" id="Capa_1" xmlns="http://www.w3.org/2000/svg" xmlns:xlink="http://www.w3.org/1999/xlink" x="0px" y="0px"
	 viewBox="0 0 30.8 30.8" style="enable-background:new 0 0 30.8 30.8;" xml:space="preserve">
<style type="text/css">
	.st0{fill:#F7F7F7;}
	.st1{fill:#FFFFFF;}
	.st2{fill:#6DB1E4;}
	.st3{fill:#013C74;}
	.st4{opacity:0.85;fill:#013C74;}
	.st5{opacity:0.79;fill:#FFFFFF;}
	.st6{fill:#2E2E2E;}
	.st7{fill:#263238;}
	.st8{fill:#A78E80;}
	.st9{fill:#07849B;}
	.st10{fill:#0A0A0A;}
	.st11{fill:#079DC4;}
	.st12{fill:#FFFFFF;stroke:#AFAFAF;stroke-width:1.0617;stroke-miterlimit:10;}
	.st13{fill:#FFFFFF;stroke:#AFAFAF;stroke-miterlimit:10;}
	.st14{fill:#FFBE9D;}
	.st15{fill:#EB996E;}
	.st16{opacity:0.2;}
	.st17{fill:#FBFBFB;}
	.st18{opacity:0.6;}
	.st19{opacity:0.6;fill:#FFFFFF;}
	.st20{fill:#E0E0E0;}
	.st21{fill:#5B5B5B;}
	.st22{fill:#FAFAFA;}
	.st23{fill:#455A64;}
	.st24{fill:none;stroke:#013C74;stroke-width:3;stroke-linecap:round;stroke-linejoin:round;stroke-miterlimit:10;}
	.st25{fill:none;stroke:#FFFFFF;stroke-width:3;stroke-linecap:round;stroke-linejoin:round;stroke-miterlimit:10;}
	.st26{fill:#B9B9B9;}
	.st27{fill:#E9E9E9;}
	.st28{opacity:0.3;fill:#6DB1E4;}
	.st29{fill:#E7AF23;}
	.st30{fill:none;stroke:#E9E9E9;stroke-miterlimit:10;}
	.st31{fill:#CD631B;}
	.st32{fill:#57A41B;}
	.st33{clip-path:url(#SVGID_10_);}
	.st34{fill:#7DE213;}
	.st35{fill:url(#SVGID_13_);}
	.st36{fill:#B2B2B2;}
	.st37{fill:#284266;}
	.st38{fill:#149FBF;}
	.st39{fill:url(#SVGID_14_);}
	.st40{fill:#F2B606;}
	.st41{fill:url(#SVGID_15_);}
	.st42{fill:#088F9E;}
	.st43{fill:url(#SVGID_16_);}
	.st44{fill:#098F9E;}
	.st45{fill:url(#SVGID_17_);}
	.st46{fill:url(#SVGID_18_);}
	.st47{fill:#00CB9A;}
	.st48{fill:url(#SVGID_19_);}
	.st49{fill:#5059AA;}
	.st50{fill:url(#SVGID_20_);}
	.st51{fill:#F19E05;}
	.st52{fill:url(#SVGID_21_);}
	.st53{fill:url(#SVGID_22_);}
	.st54{fill:url(#SVGID_23_);}
	.st55{fill:url(#SVGID_24_);}
	.st56{fill:url(#SVGID_25_);}
	.st57{fill:url(#SVGID_26_);}
	.st58{fill:url(#SVGID_27_);}
	.st59{fill:#0C5356;}
	.st60{fill:url(#SVGID_28_);}
	.st61{fill:url(#SVGID_29_);}
	.st62{fill:url(#SVGID_30_);}
	.st63{fill:url(#SVGID_31_);}
	.st64{fill:url(#SVGID_32_);}
	.st65{fill:url(#SVGID_33_);}
	.st66{fill:url(#SVGID_34_);}
	.st67{fill:url(#SVGID_35_);}
	.st68{fill:url(#SVGID_36_);}
	.st69{fill:url(#SVGID_37_);}
	.st70{fill:url(#SVGID_38_);}
	.st71{fill:url(#SVGID_39_);}
	.st72{fill:url(#SVGID_40_);}
	.st73{fill:url(#SVGID_41_);}
	.st74{fill:url(#SVGID_42_);}
	.st75{fill:url(#SVGID_43_);}
	.st76{fill:url(#SVGID_44_);}
	.st77{fill:url(#SVGID_45_);}
	.st78{fill:url(#SVGID_46_);}
	.st79{fill:url(#SVGID_47_);}
	.st80{fill:url(#SVGID_48_);}
	.st81{fill:url(#SVGID_49_);}
	.st82{fill:url(#SVGID_50_);}
	.st83{fill:url(#SVGID_51_);}
	.st84{fill:url(#SVGID_52_);}
	.st85{fill:url(#SVGID_53_);}
	.st86{fill:url(#SVGID_54_);}
	.st87{fill:url(#SVGID_55_);}
	.st88{fill:url(#SVGID_56_);}
	.st89{fill:url(#SVGID_57_);}
	.st90{fill:url(#SVGID_58_);}
	.st91{fill:#F8F8F8;}
	.st92{opacity:0.3;}
	.st93{opacity:0.78;}
	.st94{fill:#FFFFFF;stroke:#FFFFFF;stroke-width:0.15;stroke-miterlimit:10;}
	.st95{fill:none;stroke:#B9B9B9;stroke-miterlimit:10;}
	.st96{opacity:0.5;}
	.st97{opacity:0.5;fill:none;stroke:#B9B9B9;stroke-miterlimit:10;}
	.st98{fill:none;stroke:#E5E5E5;stroke-miterlimit:10;}
	.st99{fill:#FFFFFF;stroke:#BABABA;stroke-miterlimit:10;}
	.st100{fill:#FFFFFF;stroke:#BABABA;stroke-width:2;stroke-linecap:round;stroke-linejoin:round;stroke-miterlimit:10;}
	.st101{fill:none;stroke:#079DC4;stroke-width:0.8605;stroke-miterlimit:10;}
	.st102{fill:#1A1A1A;}
	.st103{fill:#222222;}
	.st104{fill:#868686;}
	.st105{fill:#94CEED;}
	.st106{fill:#C4E2EB;}
	.st107{fill:#0C0E0F;}
	.st108{fill:#1B1B1B;}
	.st109{fill:#262424;}
</style>
<g>
	<path class="st1" d="M22.9,6V7c-0.6,0.2-1,0.7-1,1.3c0,0.5,0.3,1,0.8,1.3l1,0.5c0.1,0.1,0.2,0.2,0.2,0.4c0,0.2-0.2,0.4-0.4,0.4
		h-0.1c-0.2,0-0.4-0.2-0.4-0.4v-0.1h-1v0.1c0,0.6,0.4,1.2,1,1.3v1.1h1v-1.1c0.6-0.2,1-0.7,1-1.3c0-0.5-0.3-1-0.8-1.3l-1-0.5
		c-0.1-0.1-0.2-0.2-0.2-0.4c0-0.2,0.2-0.4,0.4-0.4h0.1c0.2,0,0.4,0.2,0.4,0.4v0.1h1V8.4c0-0.6-0.4-1.2-1-1.3V6H22.9z"/>
	<path class="st1" d="M28.8,10c0-0.2,0-0.4,0-0.5c0-2.8-2.2-5.2-5-5.4V0H2.5C1.1,0,0,1.1,0,2.5v15.9c0,1.4,1.1,2.5,2.5,2.5H5v-4h2.8
		l0,0.1c-0.2,0.4-0.3,0.7-0.5,1.1L6,18.5v3.7l1.4,0.4c0.1,0.4,0.3,0.8,0.5,1.1L7.1,25l2.6,2.6L11,27c0.4,0.2,0.7,0.3,1.1,0.5
		l0.4,1.4h3.4c0.2,1.1,1.2,2,2.4,2h9.9c1.4,0,2.5-1.1,2.5-2.5V12.4C30.8,11.2,29.9,10.2,28.8,10L28.8,10z M27.8,9.4
		c0,2.5-2,4.5-4.5,4.5s-4.5-2-4.5-4.5s2-4.5,4.5-4.5S27.8,7,27.8,9.4z M27.8,12.9v3h-8.9v-3h0.3c1,1.2,2.5,2,4.2,2
		c1.7,0,3.2-0.8,4.2-2H27.8z M4,19.9H2.5c-0.8,0-1.5-0.7-1.5-1.5V4.5C1.4,4.8,1.9,5,2.5,5H4V19.9z M12.9,26.7l-0.3-0.1
		c-0.5-0.1-1-0.3-1.4-0.6L11,25.9l-1.1,0.6l-1.6-1.6l0.6-1.1l-0.1-0.2c-0.2-0.4-0.4-0.9-0.6-1.4l-0.1-0.3L7,21.5v-2.3l1.2-0.4
		l0.1-0.3c0.1-0.5,0.3-1,0.6-1.4L8.9,17l0-0.1h1.3c-0.8,1-1.2,2.2-1.2,3.5c0,3,2.5,5.5,5.5,5.5c0.5,0,1-0.1,1.5-0.2v2.2h-2.6
		L12.9,26.7z M15.9,24.6c-0.5,0.2-1,0.3-1.5,0.3c-2.5,0-4.5-2-4.5-4.5c0-1.4,0.6-2.6,1.7-3.5h4.3V24.6z M15.9,12.4v3.5H5V4H2.5
		C1.7,4,1,3.3,1,2.5S1.7,1,2.5,1h20.4v3c-2.8,0.3-5,2.6-5,5.4c0,0.2,0,0.4,0,0.5C16.8,10.2,15.9,11.2,15.9,12.4z M29.8,28.3
		c0,0.8-0.7,1.5-1.5,1.5h-9.9c-0.8,0-1.5-0.7-1.5-1.5V12.4c0-0.7,0.5-1.3,1.2-1.5c0.1,0.3,0.2,0.7,0.4,1h-0.6v5h10.9v-5h-0.6
		c0.2-0.3,0.3-0.6,0.4-1c0.7,0.1,1.2,0.7,1.2,1.5V28.3z"/>
	<path class="st1" d="M25.8,28.8h3v-7h-3V28.8z M26.8,22.9h1v5h-1V22.9z"/>
	<path class="st1" d="M21.9,28.8h3v-3h-3V28.8z M22.9,26.8h1v1h-1V26.8z"/>
	<path class="st1" d="M17.9,28.8h3v-3h-3V28.8z M18.9,26.8h1v1h-1V26.8z"/>
	<path class="st1" d="M21.9,24.8h3v-3h-3V24.8z M22.9,22.9h1v1h-1V22.9z"/>
	<path class="st1" d="M17.9,24.8h3v-3h-3V24.8z M18.9,22.9h1v1h-1V22.9z"/>
	<path class="st1" d="M21.9,20.9h3v-3h-3V20.9z M22.9,18.9h1v1h-1V18.9z"/>
	<path class="st1" d="M25.8,20.9h3v-3h-3V20.9z M26.8,18.9h1v1h-1V18.9z"/>
	<path class="st1" d="M17.9,20.9h3v-3h-3V20.9z M18.9,18.9h1v1h-1V18.9z"/>
	<path class="st1" d="M6,7h9.9V2H6V7z M7,3h7.9v3H7V3z"/>
	<path class="st1" d="M6,7.9h8.9v1H6V7.9z"/>
	<path class="st1" d="M11.9,9.9h1v1h-1V9.9z"/>
	<path class="st1" d="M13.9,9.9h1v1h-1V9.9z"/>
	<path class="st1" d="M6,9.9h5v1H6V9.9z"/>
	<path class="st1" d="M6,11.9h8.9v1H6V11.9z"/>
	<path class="st1" d="M6,13.9h8.9v1H6V13.9z"/>
</g>
</svg>
