<svg id="Capa_1" data-name="Capa 1" xmlns="http://www.w3.org/2000/svg" viewBox="0 0 59.74 59.74">
  <defs>
    <style>
      .cls-1, .cls-2 {
        fill: #6db1e4;
      }

      .cls-1 {
        opacity: 0.3;
      }
    </style>
  </defs>
  <title>Atenea</title>
  <g>
    <circle class="cls-1" cx="29.87" cy="29.87" r="29.87"/>
    <g>
      <path class="cls-2" d="M40.87,14.31H21.6a3.2,3.2,0,0,0-3.19,3.19V42.24a3.2,3.2,0,0,0,3.19,3.19H40.87a.47.47,0,0,0,.46-.46V43.15a.43.43,0,0,0-.14-.32,2.12,2.12,0,0,1,0-3,.47.47,0,0,0,.14-.33V14.77a.47.47,0,0,0-.46-.46ZM19.33,17.5a2.27,2.27,0,0,1,1.82-2.23v22a3.12,3.12,0,0,0-1.82.92Zm2.27,27a2.28,2.28,0,0,1-2.27-2.28V40.41a2.27,2.27,0,0,1,2.27-2.27.46.46,0,0,0,.46-.46V15.22H40.41v22h-17a.46.46,0,0,0,0,.92h17v.91H21.6a1.36,1.36,0,0,0-1.36,1.36v1.83a1.37,1.37,0,0,0,1.36,1.37H40.41v.91Zm-.45-2.74H39.69a3.12,3.12,0,0,0,.29.91H21.6a.45.45,0,0,1-.45-.45Zm18.54-.91H21.15v-.46A.45.45,0,0,1,21.6,40H40a3.12,3.12,0,0,0-.29.91Z"/>
      <path class="cls-2" d="M25.25,25.25h12a.45.45,0,0,0,.46-.45V18.41a.45.45,0,0,0-.46-.45h-12a.45.45,0,0,0-.45.45V24.8A.45.45,0,0,0,25.25,25.25Zm.46-6.38H36.77v5.47H25.71Z"/>
      <path class="cls-2" d="M35.4,19.78H27.07a.46.46,0,0,0-.45.46V23a.46.46,0,0,0,.45.46H35.4a.47.47,0,0,0,.46-.46V20.24A.47.47,0,0,0,35.4,19.78Zm-.46,2.74H27.53V20.69h7.41Z"/>
    </g>
  </g>
</svg>
