<svg id="Capa_1" data-name="Capa 1" xmlns="http://www.w3.org/2000/svg" viewBox="0 0 39.65 39.65">
  <defs>
    <style>
      .cls-1 {
        fill: #6db1e4;
      }

      .cls-2 {
        fill: #fff;
      }
    </style>
  </defs>
  <title>Atenea</title>
  <rect class="cls-1" width="39.65" height="39.65" rx="6.04" ry="6.04"/>
  <g>
    <circle class="cls-2" cx="19.84" cy="19.83" r="3.79"/>
    <path class="cls-2" d="M31.14,15.15a8.48,8.48,0,0,0-.53-2.76,5.79,5.79,0,0,0-3.33-3.32,8.16,8.16,0,0,0-2.75-.53c-1.22-.06-1.6-.07-4.69-.07s-3.47,0-4.68.06a8.48,8.48,0,0,0-2.76.53,5.5,5.5,0,0,0-2,1.32,5.39,5.39,0,0,0-1.31,2,8.21,8.21,0,0,0-.53,2.75c-.06,1.22-.07,1.6-.07,4.69s0,3.47.07,4.68a8.25,8.25,0,0,0,.52,2.76,5.54,5.54,0,0,0,1.32,2,5.47,5.47,0,0,0,2,1.31,8.21,8.21,0,0,0,2.75.53c1.22.05,1.6.07,4.69.07s3.47,0,4.68-.07a8.22,8.22,0,0,0,2.76-.53,5.81,5.81,0,0,0,3.32-3.32,8.22,8.22,0,0,0,.53-2.76c.05-1.21.07-1.6.07-4.68S31.19,16.36,31.14,15.15ZM19.84,25.67a5.84,5.84,0,1,1,5.84-5.84A5.85,5.85,0,0,1,19.84,25.67Zm6.07-10.55a1.36,1.36,0,1,1,1.36-1.36A1.36,1.36,0,0,1,25.91,15.12Z"/>
  </g>
</svg>
