<svg id="Capa_1" data-name="Capa 1" xmlns="http://www.w3.org/2000/svg" viewBox="0 0 27.25 27.25">
  <defs>
    <style>
      .cls-1 {
        fill: #fff;
      }

      .cls-2 {
        fill: #bababa;
      }
    </style>
  </defs>
  <title>Vectores</title>
  <g>
    <g>
      <rect class="cls-1" x="0.5" y="0.5" width="26.25" height="26.25" rx="4.04" ry="4.04"/>
      <path class="cls-2" d="M22.71,27.25H4.54A4.55,4.55,0,0,1,0,22.71V4.54A4.55,4.55,0,0,1,4.54,0H22.71a4.55,4.55,0,0,1,4.54,4.54V22.71A4.55,4.55,0,0,1,22.71,27.25ZM4.54,1A3.55,3.55,0,0,0,1,4.54V22.71a3.55,3.55,0,0,0,3.54,3.54H22.71a3.55,3.55,0,0,0,3.54-3.54V4.54A3.55,3.55,0,0,0,22.71,1Z"/>
    </g>
    <g>
      <path class="cls-1" d="M7.2,11.31c.19.37,5.78,4.63,6.42,4.63s6.43-4.63,6.43-4.63"/>
      <path class="cls-2" d="M13.62,16.94c-1.21,0-7-4.66-7.31-5.18a1,1,0,0,1,1.7-1,53.39,53.39,0,0,0,5.6,4.13c.91-.53,3.59-2.55,5.81-4.33a1,1,0,0,1,1.41.16,1,1,0,0,1-.16,1.4C14.62,16.94,14,16.94,13.62,16.94Zm-.22-2Z"/>
    </g>
  </g>
</svg>
