<?xml version="1.0" encoding="utf-8"?>
<!-- Generator: Adobe Illustrator 22.0.0, SVG Export Plug-In . SVG Version: 6.00 Build 0)  -->
<svg version="1.1" id="Capa_1" xmlns="http://www.w3.org/2000/svg" xmlns:xlink="http://www.w3.org/1999/xlink" x="0px" y="0px"
	 viewBox="0 0 383.3 314.5" style="enable-background:new 0 0 383.3 314.5;" xml:space="preserve">
<style type="text/css">
	.st0{fill:#F7F7F7;}
	.st1{fill:#FFFFFF;}
	.st2{fill:#6DB1E4;}
	.st3{fill:#013C74;}
	.st4{opacity:0.85;fill:#013C74;}
	.st5{opacity:0.79;fill:#FFFFFF;}
	.st6{fill:#2E2E2E;}
	.st7{fill:#263238;}
	.st8{fill:#A78E80;}
	.st9{fill:#07849B;}
	.st10{fill:#0A0A0A;}
	.st11{fill:#079DC4;}
	.st12{fill:#FFFFFF;stroke:#AFAFAF;stroke-width:1.0617;stroke-miterlimit:10;}
	.st13{fill:#FFFFFF;stroke:#AFAFAF;stroke-miterlimit:10;}
	.st14{fill:#FFBE9D;}
	.st15{fill:#EB996E;}
	.st16{opacity:0.2;}
	.st17{fill:#FBFBFB;}
	.st18{opacity:0.6;}
	.st19{opacity:0.6;fill:#FFFFFF;}
	.st20{fill:#E0E0E0;}
	.st21{fill:#5B5B5B;}
	.st22{fill:#FAFAFA;}
	.st23{fill:#455A64;}
	.st24{fill:none;stroke:#013C74;stroke-width:3;stroke-linecap:round;stroke-linejoin:round;stroke-miterlimit:10;}
	.st25{fill:none;stroke:#FFFFFF;stroke-width:3;stroke-linecap:round;stroke-linejoin:round;stroke-miterlimit:10;}
	.st26{fill:#B9B9B9;}
	.st27{fill:#E9E9E9;}
	.st28{opacity:0.3;fill:#6DB1E4;}
	.st29{fill:#E7AF23;}
	.st30{fill:none;stroke:#E9E9E9;stroke-miterlimit:10;}
	.st31{fill:#CD631B;}
	.st32{fill:#57A41B;}
	.st33{clip-path:url(#SVGID_10_);}
	.st34{fill:#7DE213;}
	.st35{fill:url(#SVGID_13_);}
	.st36{fill:#B2B2B2;}
	.st37{fill:#284266;}
	.st38{fill:#149FBF;}
	.st39{fill:url(#SVGID_14_);}
	.st40{fill:#F2B606;}
	.st41{fill:url(#SVGID_15_);}
	.st42{fill:#088F9E;}
	.st43{fill:url(#SVGID_16_);}
	.st44{fill:#098F9E;}
	.st45{fill:url(#SVGID_17_);}
	.st46{fill:url(#SVGID_18_);}
	.st47{fill:#00CB9A;}
	.st48{fill:url(#SVGID_19_);}
	.st49{fill:#5059AA;}
	.st50{fill:url(#SVGID_20_);}
	.st51{fill:#F19E05;}
	.st52{fill:url(#SVGID_21_);}
	.st53{fill:url(#SVGID_22_);}
	.st54{fill:url(#SVGID_23_);}
	.st55{fill:url(#SVGID_24_);}
	.st56{fill:url(#SVGID_25_);}
	.st57{fill:url(#SVGID_26_);}
	.st58{fill:url(#SVGID_27_);}
	.st59{fill:#0C5356;}
	.st60{fill:url(#SVGID_28_);}
	.st61{fill:url(#SVGID_29_);}
	.st62{fill:url(#SVGID_30_);}
	.st63{fill:url(#SVGID_31_);}
	.st64{fill:url(#SVGID_32_);}
	.st65{fill:url(#SVGID_33_);}
	.st66{fill:url(#SVGID_34_);}
	.st67{fill:url(#SVGID_35_);}
	.st68{fill:url(#SVGID_36_);}
	.st69{fill:url(#SVGID_37_);}
	.st70{fill:url(#SVGID_38_);}
	.st71{fill:url(#SVGID_39_);}
	.st72{fill:url(#SVGID_40_);}
	.st73{fill:url(#SVGID_41_);}
	.st74{fill:url(#SVGID_42_);}
	.st75{fill:url(#SVGID_43_);}
	.st76{fill:url(#SVGID_44_);}
	.st77{fill:url(#SVGID_45_);}
	.st78{fill:url(#SVGID_46_);}
	.st79{fill:url(#SVGID_47_);}
	.st80{fill:url(#SVGID_48_);}
	.st81{fill:url(#SVGID_49_);}
	.st82{fill:url(#SVGID_50_);}
	.st83{fill:url(#SVGID_51_);}
	.st84{fill:url(#SVGID_52_);}
	.st85{fill:url(#SVGID_53_);}
	.st86{fill:url(#SVGID_54_);}
	.st87{fill:url(#SVGID_55_);}
	.st88{fill:url(#SVGID_56_);}
	.st89{fill:url(#SVGID_57_);}
	.st90{fill:url(#SVGID_58_);}
	.st91{fill:#F8F8F8;}
	.st92{opacity:0.3;}
	.st93{opacity:0.78;}
	.st94{fill:#FFFFFF;stroke:#FFFFFF;stroke-width:0.15;stroke-miterlimit:10;}
	.st95{fill:none;stroke:#B9B9B9;stroke-miterlimit:10;}
	.st96{opacity:0.5;}
	.st97{opacity:0.5;fill:none;stroke:#B9B9B9;stroke-miterlimit:10;}
	.st98{fill:none;stroke:#E5E5E5;stroke-miterlimit:10;}
	.st99{fill:#FFFFFF;stroke:#BABABA;stroke-miterlimit:10;}
	.st100{fill:#FFFFFF;stroke:#BABABA;stroke-width:2;stroke-linecap:round;stroke-linejoin:round;stroke-miterlimit:10;}
	.st101{fill:none;stroke:#079DC4;stroke-width:0.8605;stroke-miterlimit:10;}
	.st102{fill:#1A1A1A;}
	.st103{fill:#222222;}
	.st104{fill:#868686;}
	.st105{fill:#94CEED;}
	.st106{fill:#C4E2EB;}
	.st107{fill:#0C0E0F;}
	.st108{fill:#1B1B1B;}
	.st109{fill:#262424;}
</style>
<g>
	<g>
		<g>
			<g>
				<g>
					<g>
						<g>
							<path class="st0" d="M108.2,310.9c26.5-18.1,32.8-52.1,32.1-82.8c-0.1-5.1,0.5-10.5-1.9-15c-2.4-4.5-8-7.6-12.6-5.5
								c-3.8,1.7-5.5,6.2-7.7,9.8c-2.9,4.8-7.1,8.8-12.1,11.3c-3.3,1.7-7.3,2.6-10.5,0.8c-4.4-2.5-4.8-8.6-4.8-13.7
								c0.2-9.5,0.3-19,0.5-28.4c0.1-5.1,0.2-10.3-1.4-15.1c-1.5-4.8-5-9.4-9.8-10.8c-4.8-1.4-10.8,1.3-11.9,6.3
								c-0.4,2.1,0,4.2-0.2,6.3c-0.2,2.1-1.2,4.4-3.2,5c-2,0.6-4.1-0.9-5.6-2.4c-5.2-5.2-8.7-11.8-12-18.5
								c-3.3-6.6-6.4-13.4-11.1-19c-4.7-5.7-11.3-10.2-18.5-10.7c-7.3-0.5-15.1,3.9-17,11.1c-1.9,7.2,2.2,14.5,6.7,20.3
								c6.7,8.7,14.6,16.4,23.4,22.8c1.6,1.2,3.3,2.4,3.9,4.3c1.1,3.4-2.2,6.7-5.5,7.8c-3.8,1.2-7.9,0.8-11.9,1.2
								c-4,0.4-8.3,2.1-9.8,5.9c-2.1,5.2,2.2,10.7,6.4,14.3c8.5,7.2,18.2,13,28.6,16.9c3.7,1.4,7.7,2.7,10.6,5.3
								c3,2.7,4.8,7.3,2.9,10.8c-1.9,3.6-6.6,4.7-10.5,3.9c-3.9-0.8-7.4-2.9-11.1-4.4c-7-2.7-16-2.3-20.5,3.7
								c-3,3.9-3.3,9.5-1.9,14.2c1.4,4.8,4.4,8.9,7.6,12.7c11.1,13.3,25.3,24,41.5,29.8C77,315,92,316.7,108.2,310.9"/>
						</g>
					</g>
				</g>
			</g>
		</g>
		<g>
			<g>
				<g>
					<g>
						<g>
							<g>
								<path class="st20" d="M100.5,291.6c-4.4-15.5-10.5-32.1-17.6-49.3c-1.8-4.3-3.5-8.5-5.3-12.7c-1.7-4.2-3.5-8.3-5.4-12.2
									c-3.8-7.9-8.1-15.2-12.4-21.9c-4.3-6.8-8.6-13.1-12.7-18.9c-4.1-5.8-8-11.2-11.8-16c-7.5-9.5-14.5-16.5-19.5-21
									c-2.5-2.3-4.5-4-5.8-5.2c-0.7-0.5-1.2-1-1.6-1.3c-0.4-0.3-0.5-0.4-0.6-0.4c0,0,0.2,0.2,0.5,0.5c0.4,0.3,0.9,0.8,1.5,1.4
									c1.3,1.2,3.3,3,5.7,5.3c4.9,4.6,11.8,11.6,19.2,21.2c3.7,4.8,7.6,10.1,11.7,16c4,5.9,8.3,12.2,12.6,18.9
									c4.3,6.8,8.5,14,12.3,21.9c1.9,3.9,3.6,8,5.4,12.2c1.7,4.2,3.5,8.4,5.3,12.7c7.1,17.1,13.2,33.7,17.6,49.2"/>
							</g>
						</g>
					</g>
				</g>
			</g>
		</g>
		<g>
			<g>
				<g>
					<g>
						<g>
							<g>
								<path class="st20" d="M72,217.4c0.1,0,0.2-0.8,0.5-2.2c0.3-1.4,0.6-3.4,1-6c0.8-5.1,1.6-12.1,2.5-19.8
									c0.9-7.8,1.8-14.7,2.7-19.8c0.4-2.5,0.8-4.6,1-6c0.3-1.4,0.4-2.2,0.3-2.2c-0.1,0-0.3,0.7-0.7,2.1c-0.4,1.4-0.8,3.4-1.3,5.9
									c-1,5-2.1,12-2.9,19.8c-0.9,7.6-1.6,14.6-2.2,19.8c-0.3,2.4-0.5,4.4-0.7,6C72,216.6,71.9,217.4,72,217.4z"/>
							</g>
						</g>
					</g>
				</g>
			</g>
		</g>
		<g>
			<g>
				<g>
					<g>
						<g>
							<g>
								<path class="st20" d="M6.7,204.5c0,0.1,0.9,0.2,2.6,0.3c1.7,0.2,4.1,0.4,7.1,0.8c6,0.7,14.2,2,23.2,3.8
									c9,1.8,17.1,3.8,22.9,5.4c2.9,0.8,5.3,1.5,6.9,2c1.6,0.5,2.5,0.7,2.5,0.7c0-0.1-0.8-0.4-2.4-1c-1.6-0.6-3.9-1.4-6.8-2.2
									c-5.8-1.8-13.9-3.9-22.9-5.7c-9-1.8-17.3-3-23.4-3.5c-3-0.3-5.5-0.4-7.1-0.5C7.6,204.5,6.7,204.5,6.7,204.5z"/>
							</g>
						</g>
					</g>
				</g>
			</g>
		</g>
		<g>
			<g>
				<g>
					<g>
						<g>
							<g>
								<path class="st20" d="M99.7,290.4c0,0,0.2-0.3,0.5-0.8c0.3-0.6,0.7-1.4,1.1-2.4c1-2,2.3-5.1,3.9-8.8
									c3.2-7.5,7.4-17.9,11.8-29.5c4.4-11.6,8.5-22.1,11.5-29.6c1.5-3.7,2.7-6.7,3.7-8.9c0.4-1,0.7-1.8,1-2.4
									c0.2-0.6,0.3-0.9,0.3-0.9c0,0-0.2,0.3-0.5,0.8c-0.3,0.6-0.7,1.4-1.1,2.4c-1,2-2.3,5.1-3.9,8.8c-3.2,7.5-7.4,17.9-11.8,29.5
									c-4.4,11.6-8.5,22.1-11.5,29.6c-1.5,3.7-2.7,6.7-3.7,8.9c-0.4,1-0.7,1.8-1,2.4C99.8,290.1,99.7,290.4,99.7,290.4z"/>
							</g>
						</g>
					</g>
				</g>
			</g>
		</g>
		<g>
			<g>
				<g>
					<g>
						<g>
							<g>
								<path class="st20" d="M13.1,261.5c0,0,0.3,0.2,0.9,0.4c0.7,0.2,1.5,0.5,2.5,0.9c2.3,0.8,5.5,1.8,9.3,3.1
									c7.8,2.6,18.6,6.4,30.5,10.6c11.9,4.2,22.7,7.8,30.6,10.3c3.9,1.2,7.1,2.2,9.4,2.8c1,0.3,1.9,0.5,2.6,0.7
									c0.6,0.2,0.9,0.2,0.9,0.2c0,0-0.3-0.2-0.9-0.4c-0.7-0.2-1.5-0.5-2.5-0.9c-2.3-0.8-5.5-1.8-9.3-3.1
									c-7.8-2.6-18.6-6.4-30.5-10.6c-11.9-4.2-22.7-7.8-30.6-10.3c-3.9-1.2-7.1-2.2-9.4-2.8c-1-0.3-1.9-0.5-2.6-0.7
									C13.4,261.5,13.1,261.5,13.1,261.5z"/>
							</g>
						</g>
					</g>
				</g>
			</g>
		</g>
	</g>
	<g>
		<g>
			<g>
				<g>
					<g>
						<g>
							<path class="st0" d="M275.1,310.9c-26.5-18.1-32.8-52.1-32.1-82.8c0.1-5.1-0.5-10.5,1.9-15c2.4-4.5,8-7.6,12.6-5.5
								c3.8,1.7,5.5,6.2,7.7,9.8c2.9,4.8,7.1,8.8,12.1,11.3c3.3,1.7,7.3,2.6,10.5,0.8c4.4-2.5,4.8-8.6,4.8-13.7
								c-0.2-9.5-0.3-19-0.5-28.4c-0.1-5.1-0.2-10.3,1.4-15.1c1.5-4.8,5-9.4,9.8-10.8c4.8-1.4,10.8,1.3,11.9,6.3
								c0.4,2.1,0,4.2,0.2,6.3c0.2,2.1,1.2,4.4,3.2,5c2,0.6,4.1-0.9,5.6-2.4c5.2-5.2,8.7-11.8,12-18.5c3.3-6.6,6.4-13.4,11.1-19
								c4.7-5.7,11.3-10.2,18.5-10.7c7.3-0.5,15.1,3.9,17,11.1c1.9,7.2-2.2,14.5-6.7,20.3c-6.7,8.7-14.6,16.4-23.4,22.8
								c-1.6,1.2-3.3,2.4-3.9,4.3c-1.1,3.4,2.2,6.7,5.5,7.8c3.8,1.2,7.9,0.8,11.9,1.2c4,0.4,8.3,2.1,9.8,5.9
								c2.1,5.2-2.2,10.7-6.4,14.3c-8.5,7.2-18.2,13-28.6,16.9c-3.7,1.4-7.7,2.7-10.6,5.3c-3,2.7-4.8,7.3-2.9,10.8
								c1.9,3.6,6.6,4.7,10.5,3.9c3.9-0.8,7.4-2.9,11.1-4.4c7-2.7,16-2.3,20.5,3.7c3,3.9,3.3,9.5,1.9,14.2
								c-1.4,4.8-4.4,8.9-7.6,12.7c-11.1,13.3-25.3,24-41.5,29.8C306.3,315,291.3,316.7,275.1,310.9"/>
						</g>
					</g>
				</g>
			</g>
		</g>
		<g>
			<g>
				<g>
					<g>
						<g>
							<g>
								<path class="st20" d="M282.8,291.6c4.4-15.5,10.5-32.1,17.6-49.3c1.8-4.3,3.5-8.5,5.3-12.7c1.7-4.2,3.5-8.3,5.4-12.2
									c3.8-7.9,8.1-15.2,12.4-21.9c4.3-6.8,8.6-13.1,12.7-18.9c4.1-5.8,8-11.2,11.8-16c7.5-9.5,14.5-16.5,19.5-21
									c2.5-2.3,4.5-4,5.8-5.2c0.7-0.5,1.2-1,1.6-1.3c0.4-0.3,0.5-0.4,0.6-0.4c0,0-0.2,0.2-0.5,0.5c-0.4,0.3-0.9,0.8-1.5,1.4
									c-1.3,1.2-3.3,3-5.7,5.3c-4.9,4.6-11.8,11.6-19.2,21.2c-3.7,4.8-7.6,10.1-11.7,16c-4,5.9-8.3,12.2-12.6,18.9
									c-4.3,6.8-8.5,14-12.3,21.9c-1.9,3.9-3.6,8-5.4,12.2c-1.7,4.2-3.5,8.4-5.3,12.7c-7.1,17.1-13.2,33.7-17.6,49.2"/>
							</g>
						</g>
					</g>
				</g>
			</g>
		</g>
		<g>
			<g>
				<g>
					<g>
						<g>
							<g>
								<path class="st20" d="M311.3,217.4c-0.1,0-0.2-0.8-0.5-2.2c-0.3-1.4-0.6-3.4-1-6c-0.8-5.1-1.6-12.1-2.5-19.8
									c-0.9-7.8-1.8-14.7-2.7-19.8c-0.4-2.5-0.8-4.6-1-6c-0.3-1.4-0.4-2.2-0.3-2.2c0.1,0,0.3,0.7,0.7,2.1c0.4,1.4,0.8,3.4,1.3,5.9
									c1,5,2.1,12,2.9,19.8c0.9,7.6,1.6,14.6,2.2,19.8c0.3,2.4,0.5,4.4,0.7,6C311.3,216.6,311.4,217.4,311.3,217.4z"/>
							</g>
						</g>
					</g>
				</g>
			</g>
		</g>
		<g>
			<g>
				<g>
					<g>
						<g>
							<g>
								<path class="st20" d="M376.6,204.5c0,0.1-0.9,0.2-2.6,0.3c-1.7,0.2-4.1,0.4-7.1,0.8c-6,0.7-14.2,2-23.2,3.8
									c-9,1.8-17.1,3.8-22.9,5.4c-2.9,0.8-5.3,1.5-6.9,2c-1.6,0.5-2.5,0.7-2.5,0.7c0-0.1,0.8-0.4,2.4-1c1.6-0.6,3.9-1.4,6.8-2.2
									c5.8-1.8,13.9-3.9,22.9-5.7c9-1.8,17.3-3,23.4-3.5c3-0.3,5.5-0.4,7.1-0.5C375.7,204.5,376.6,204.5,376.6,204.5z"/>
							</g>
						</g>
					</g>
				</g>
			</g>
		</g>
		<g>
			<g>
				<g>
					<g>
						<g>
							<g>
								<path class="st20" d="M283.6,290.4c0,0-0.2-0.3-0.5-0.8c-0.3-0.6-0.7-1.4-1.1-2.4c-1-2-2.3-5.1-3.9-8.8
									c-3.2-7.5-7.4-17.9-11.8-29.5c-4.4-11.6-8.5-22.1-11.5-29.6c-1.5-3.7-2.7-6.7-3.7-8.9c-0.4-1-0.7-1.8-1-2.4
									c-0.2-0.6-0.3-0.9-0.3-0.9c0,0,0.2,0.3,0.5,0.8c0.3,0.6,0.7,1.4,1.1,2.4c1,2,2.3,5.1,3.9,8.8c3.2,7.5,7.4,17.9,11.8,29.5
									c4.4,11.6,8.5,22.1,11.5,29.6c1.5,3.7,2.7,6.7,3.7,8.9c0.4,1,0.7,1.8,1,2.4C283.5,290.1,283.6,290.4,283.6,290.4z"/>
							</g>
						</g>
					</g>
				</g>
			</g>
		</g>
		<g>
			<g>
				<g>
					<g>
						<g>
							<g>
								<path class="st20" d="M370.2,261.5c0,0-0.3,0.2-0.9,0.4c-0.7,0.2-1.5,0.5-2.5,0.9c-2.3,0.8-5.5,1.8-9.3,3.1
									c-7.8,2.6-18.6,6.4-30.5,10.6c-11.9,4.2-22.7,7.8-30.6,10.3c-3.9,1.2-7.1,2.2-9.4,2.8c-1,0.3-1.9,0.5-2.6,0.7
									c-0.6,0.2-0.9,0.2-0.9,0.2c0,0,0.3-0.2,0.9-0.4c0.7-0.2,1.5-0.5,2.5-0.9c2.3-0.8,5.5-1.8,9.3-3.1
									c7.8-2.6,18.6-6.4,30.5-10.6c11.9-4.2,22.7-7.8,30.6-10.3c3.9-1.2,7.1-2.2,9.4-2.8c1-0.3,1.9-0.5,2.6-0.7
									C369.9,261.5,370.2,261.5,370.2,261.5z"/>
							</g>
						</g>
					</g>
				</g>
			</g>
		</g>
	</g>
	<g>
		<g>
			<path class="st6" d="M240.3,134.9c0,0,0.6,0.2,1.7,0.6c7.5,2.5,29.7,9.9,36.5,12.6c0,0-11.9,105.4-13.3,115.2
				c-1.4,9.8-1.7,49-1.7,49H136.6c0,0,0.3-105.6,0-122c-0.5-21.2-3.1-42.2-3.1-42.2l22.1-8.7l25.9-13.6L240.3,134.9z"/>
			<g class="st92">
				<path d="M212.1,157.7c10.3,38.4,21.3,76.7,32.7,114.8c1.4,4.5,2.7,9.4,0.9,13.7c-1.6,3.9-5.6,6.4-9.8,7c-4.2,0.6-8.4-0.7-12-2.7
					c-8.6-4.8-14.1-13.8-16.9-23.2c-2.7-9.4-3-19.4-3.2-29.2c-0.6-26.2-1.2-52.3-1.8-78.5L212.1,157.7z"/>
			</g>
			<path class="st6" d="M278.4,148.1c0,0,18.6,8.2,17.1,41.3c-1,22.5-4.4,43-4.4,43l-52.3-15.1l13.3-57.4L278.4,148.1z"/>
			<path class="st6" d="M154.4,201.3l2.8,38.1l-52.6-17c0,0,11.3-67.3,29.1-74.3L153,181L154.4,201.3z"/>
			<g>
				<path class="st7" d="M148.5,190.3c0,0-0.1,0.3-0.1,0.8c0,0.6-0.1,1.3-0.2,2.2c-0.1,2-0.3,4.8-0.5,8.2
					c-0.3,6.9-0.7,16.5-1.1,27.1c-0.3,10.6-0.6,20.1-0.9,27.1c-0.1,3.4-0.2,6.2-0.3,8.2c0,0.9,0,1.7,0,2.2c0,0.5,0,0.8,0,0.8
					c0,0,0.1-0.3,0.1-0.8c0-0.6,0.1-1.3,0.2-2.2c0.1-2,0.3-4.8,0.5-8.2c0.3-6.9,0.7-16.5,1.1-27.1c0.3-10.6,0.6-20.1,0.9-27.1
					c0.1-3.4,0.2-6.2,0.3-8.2c0-0.9,0-1.7,0-2.2C148.5,190.5,148.5,190.3,148.5,190.3z"/>
			</g>
			<g>
				<path class="st7" d="M252.4,174.2c0,0,0.3-0.4,0.7-1.2c0.5-0.9,1-2,1.7-3.4c1.4-2.8,3.5-6.8,6.5-10.5c3.1-3.7,6.8-6.3,9.7-7.4
					c2.9-1.2,5-1.3,4.9-1.4c0,0-0.5,0-1.4,0.1c-0.9,0.1-2.2,0.4-3.7,0.9c-3,1.1-6.9,3.6-10,7.4c-3.1,3.8-5.1,7.8-6.5,10.7
					c-0.7,1.5-1.2,2.6-1.5,3.5C252.5,173.7,252.4,174.2,252.4,174.2z"/>
			</g>
			<g>
				<path class="st7" d="M142.3,146.5c-0.2,0.1,2,3.8,3.3,8.8c1.4,5,1.4,9.3,1.6,9.3c0.1,0,0.2-1.1,0.1-2.8
					c-0.1-1.7-0.4-4.1-1.1-6.7c-0.7-2.6-1.6-4.8-2.4-6.3C143,147.3,142.4,146.5,142.3,146.5z"/>
			</g>
			<g>
				<g>
					<path class="st11" d="M259.2,162.9c0,0,0.2,0,0.5,0.1c0.3,0.1,0.8,0.3,1.1,0.8c0.4,0.5,0.7,1.2,0.8,2.2c0.1,0.5,0.2,1,0.4,1.5
						c0.2,0.5,0.5,1.1,1.1,1.4c1.1,0.8,2.7,0.4,3.9-0.4c1.2-0.9,1.9-2.3,2.8-3.5c0.4-0.6,0.9-1.2,1.6-1.7c0.6-0.4,1.4-0.8,2.1-0.7
						c0.7,0,1.5,0.5,1.8,1.2c0.4,0.7,0.5,1.6,0.6,2.5c0.1,0.9,0.1,1.8,0.2,2.7c0.1,0.9,0.3,1.8,0.8,2.6c0.1,0.2,0.3,0.4,0.5,0.5
						c0.2,0.2,0.3,0.3,0.5,0.4c0.4,0.2,0.8,0.4,1.3,0.4c0.9,0.1,1.7-0.1,2.5-0.5c1.5-0.7,2.4-2,3.3-3.1c0.9-1.1,1.7-2.1,2.6-2.7
						c0.9-0.6,2-0.9,2.9-0.8c0.9,0.2,1.5,0.7,1.9,1.2c0.4,0.5,0.4,1,0.4,1.4c0,0.3-0.1,0.5-0.1,0.5c0,0,0.1-0.1,0.2-0.5
						c0.1-0.3,0-0.9-0.3-1.5c-0.4-0.6-1-1.2-2-1.5c-1-0.2-2.2,0.1-3.2,0.7c-1,0.6-1.9,1.7-2.8,2.7c-0.9,1.1-1.8,2.2-3.2,2.9
						c-0.7,0.3-1.4,0.5-2.2,0.4c-0.8-0.1-1.4-0.5-1.9-1.1c-0.9-1.3-0.8-3.2-0.9-4.9c-0.1-0.9-0.2-1.9-0.6-2.7
						c-0.5-0.8-1.4-1.5-2.3-1.5c-1.9,0-3.4,1.4-4.2,2.7c-0.9,1.3-1.6,2.6-2.6,3.4c-1,0.8-2.4,1.1-3.3,0.5c-0.9-0.6-1.1-1.7-1.3-2.6
						c-0.2-0.9-0.5-1.7-1-2.3c-0.4-0.5-1-0.8-1.3-0.8C259.4,162.8,259.2,162.9,259.2,162.9z"/>
				</g>
				<g>
					<path class="st11" d="M248.6,180.6c0,0,0,0.2,0,0.7c0,0.4,0.2,1.1,0.7,1.9c0.4,0.7,1.2,1.5,2.4,2.1c1.1,0.5,2.7,0.7,4.1-0.1
						c1.4-0.7,2.6-2,4.2-2.5c1.6-0.5,3.4,0.6,4.5,2.2c1.1,1.6,1.5,3.7,2.6,5.7c0.6,1,1.4,1.9,2.4,2.5c1,0.6,2.4,0.8,3.6,0.3
						c1.2-0.6,1.9-1.6,2.5-2.5c0.6-1,1.1-2,1.7-2.8c0.6-0.9,1.4-1.6,2.3-1.8c0.9-0.3,1.9,0,2.7,0.5c1.6,1.1,2.5,2.8,3.2,4.4
						c0.7,1.6,1.4,3.2,2.3,4.4c1.6,2.7,4.2,3.8,5.9,3.9c0.9,0,1.5-0.2,1.9-0.3c0.2-0.1,0.4-0.2,0.5-0.2c0.1-0.1,0.1-0.1,0.1-0.1
						c0-0.1-0.8,0.6-2.5,0.4c-1.6-0.1-4-1.3-5.5-3.9c-0.8-1.3-1.4-2.8-2.2-4.4c-0.7-1.6-1.6-3.5-3.4-4.7c-0.9-0.6-2-0.9-3.2-0.6
						c-1.1,0.3-2,1.2-2.6,2.1c-0.6,0.9-1.1,1.9-1.7,2.9c-0.6,0.9-1.3,1.8-2.2,2.3c-1,0.5-2.1,0.3-3-0.3c-0.9-0.5-1.7-1.3-2.2-2.3
						c-1.1-1.8-1.5-4-2.7-5.7c-0.6-0.9-1.3-1.6-2.2-2.1c-0.9-0.5-2-0.6-2.9-0.4c-0.9,0.3-1.7,0.8-2.3,1.3c-0.7,0.5-1.3,1-1.9,1.3
						c-1.3,0.7-2.7,0.6-3.8,0.1c-1.1-0.5-1.8-1.2-2.3-1.9C248.5,181.6,248.7,180.6,248.6,180.6z"/>
				</g>
				<g>
					<path class="st11" d="M254.7,206.2c0,0,0.2,0,0.4-0.1c0.3,0,0.7,0,1.2,0.4c0.4,0.3,0.9,0.9,1.1,1.6c0.3,0.7,0.2,1.7,0.1,2.7
						c-0.1,1-0.3,2.2,0.3,3.5c0.5,1.3,2,2,3.5,2c1.5,0,3-0.7,4.1-1.9c1.1-1.2,1.9-2.7,2.6-4.2l-0.2,0.2c1.2-0.2,2.5,0.5,3.3,1.6
						c0.8,1.1,1.2,2.5,1.4,4c0.2,1.1,0.3,2.2,0.6,3.2c0.3,1.1,0.8,2.1,1.6,2.9c0.7,0.8,1.8,1.4,2.9,1.3c1.1,0,2.1-0.6,2.8-1.2
						c1.5-1.3,2.3-3,3.3-4.3c1-1.3,2.4-2.1,3.8-2.2c1.4-0.1,2.6,0.4,3.5,1.2c0.8,0.7,1.3,1.6,1.5,2.4c0.4,1.5,0,2.4,0.1,2.4
						c0,0,0,0,0.1-0.2c0-0.1,0.1-0.3,0.1-0.5c0.1-0.4,0.1-1.1-0.1-1.9c-0.2-0.8-0.6-1.8-1.5-2.6c-0.9-0.8-2.2-1.4-3.7-1.3
						c-0.7,0-1.5,0.2-2.3,0.6c-0.7,0.4-1.4,1-1.9,1.7c-1.1,1.3-1.9,3-3.3,4.2c-0.7,0.6-1.5,1-2.5,1c-0.9,0-1.8-0.4-2.5-1.2
						c-0.7-0.7-1.1-1.6-1.4-2.6c-0.3-1-0.4-2.1-0.6-3.2c-0.2-1.5-0.6-3-1.5-4.2c-0.9-1.2-2.3-2.1-3.9-1.8l-0.2,0l-0.1,0.1
						c-0.7,1.5-1.5,3-2.5,4.1c-1,1.1-2.3,1.8-3.7,1.8c-1.3,0-2.6-0.6-3.1-1.7c-0.5-1.1-0.4-2.2-0.3-3.3c0.1-1,0.1-2-0.2-2.8
						c-0.3-0.8-0.8-1.4-1.3-1.7c-0.5-0.3-1-0.4-1.3-0.3C254.8,206.1,254.7,206.2,254.7,206.2z"/>
				</g>
			</g>
			<g>
				<path class="st11" d="M109.2,201.1c0,0,0.2,0,0.6,0.2c0.4,0.1,0.9,0.5,1.4,1.1c0.4,0.6,0.8,1.5,1.1,2.6c0.2,1.1,0.4,2.4,1,3.7
					c0.3,0.6,0.8,1.3,1.5,1.8c0.7,0.4,1.7,0.5,2.5,0.1c0.8-0.4,1.4-1.1,1.9-1.9c0.5-0.8,0.9-1.6,1.3-2.5c0.4-0.8,0.9-1.6,1.6-2.3
					c0.7-0.6,1.5-1.1,2.4-0.9c0.9,0.2,1.5,1,1.6,2c0.2,1,0.1,2,0.2,3.1c0,2.2,0.7,4.4,2.2,6c1.5,1.5,3.8,2.2,5.7,1.4
					c1.8-0.8,2.9-2.3,4.2-3.4c1.2-1.1,2.7-1.8,4-1.4c1.3,0.3,2.3,1.3,2.9,2.2c0.6,0.9,0.9,1.8,1.1,2.6c0.4,1.5,0.5,2.4,0.6,2.4
					c0,0,0-0.2,0-0.6c-0.1-0.4-0.1-1-0.3-1.8c-0.2-0.8-0.5-1.7-1.1-2.7c-0.6-1-1.6-2-3-2.4c-0.7-0.2-1.5-0.2-2.3,0.1
					c-0.8,0.3-1.5,0.8-2.1,1.3c-1.3,1.1-2.4,2.5-4,3.3c-1.6,0.7-3.7,0.1-5-1.3c-1.4-1.4-2-3.5-2-5.6c0-1.1,0-2.2-0.2-3.2
					c-0.1-0.5-0.3-1.1-0.7-1.6c-0.4-0.5-0.9-0.8-1.4-0.9c-1.2-0.3-2.3,0.4-3,1.1c-0.7,0.7-1.3,1.6-1.7,2.5c-0.4,0.9-0.7,1.7-1.2,2.4
					c-0.5,0.7-1,1.4-1.7,1.7c-0.7,0.3-1.5,0.3-2.1,0c-0.6-0.3-1.1-0.9-1.4-1.5c-0.6-1.2-0.8-2.5-1.1-3.6c-0.3-1.1-0.7-2-1.2-2.7
					c-0.5-0.6-1.1-1-1.5-1.1C109.4,201.1,109.2,201.1,109.2,201.1z"/>
			</g>
			<g>
				<path class="st11" d="M115.4,173c0,0,0.1,0.2,0.2,0.4c0.2,0.3,0.4,0.7,0.8,1.2c0.4,0.5,0.8,1.1,1.4,1.7c0.6,0.6,1.5,1.2,2.6,1.6
					c1.1,0.3,2.4,0.4,3.6-0.3c1.2-0.7,1.8-2.1,2.9-2.9c0.5-0.4,1.2-0.5,1.8-0.2c0.6,0.3,1.1,0.9,1.4,1.5c0.3,0.7,0.5,1.4,0.6,2.2
					c0,0.8,0,1.6,0,2.5c0,0.8,0.1,1.7,0.5,2.5c0.3,0.8,1,1.5,1.7,1.9c1.6,0.7,3.3,0.3,4.6-0.3c1.4-0.6,2.4-1.5,3.4-2.3
					c1-0.7,2-1.4,3-1.7c1-0.3,2-0.2,2.7,0.1c0.8,0.3,1.3,0.8,1.7,1.3c0.7,1,0.3,1.8,0.4,1.7c0,0,0.1-0.2,0.1-0.5
					c0-0.3,0-0.8-0.3-1.4c-0.3-0.6-0.9-1.1-1.7-1.5c-0.8-0.4-1.9-0.6-3-0.2c-1.1,0.3-2.2,0.9-3.2,1.7c-1.1,0.7-2.1,1.6-3.4,2.2
					c-1.2,0.5-2.8,0.9-4.1,0.2c-0.6-0.3-1.2-0.9-1.4-1.6c-0.3-0.7-0.4-1.5-0.4-2.3c0-0.8,0-1.6,0-2.5c-0.1-0.9-0.3-1.7-0.6-2.4
					c-0.4-0.7-0.9-1.4-1.7-1.8c-0.8-0.4-1.7-0.2-2.4,0.3c-1.3,0.9-1.8,2.3-2.8,2.9c-1,0.6-2.2,0.6-3.2,0.3c-1-0.3-1.8-0.8-2.4-1.4
					c-0.6-0.6-1.1-1.1-1.5-1.6C115.8,173.5,115.4,172.9,115.4,173z"/>
			</g>
			<g>
				<g>
					<path class="st11" d="M146,242c0,0,0.1,0.3,0.6,0.7c0.5,0.4,1.5,0.6,2.6,0.4c0.6-0.1,1.2-0.3,1.9-0.6c0.6-0.3,1.3-0.8,1.9-1.3
						c0.7-0.5,1.4-1,2.2-1.3c0.8-0.3,1.8-0.4,2.7-0.1c0.9,0.3,1.7,1.1,2.2,2.1c0.6,0.9,1.1,2,1.6,3.1c0.5,1.1,1,2.3,1.8,3.4
						c0.4,0.5,0.9,1,1.5,1.4c0.3,0.2,0.6,0.3,1,0.4c0.2,0,0.4,0.1,0.5,0.1l0.6,0c0.7,0,1.5-0.3,2.1-0.7c0.6-0.4,1.1-1,1.6-1.5
						c0.9-1.1,1.7-2.4,2.6-3.6c0.9-1.1,2-2.2,3.4-2.6c1.4-0.4,2.9,0.1,4.2,0.9c1.3,0.8,2.3,2,3.1,3.3c0.8,1.3,1.5,2.6,2.2,3.9
						c0.8,1.3,1.6,2.5,2.8,3.5c1.1,1,2.4,1.7,3.9,1.9c1.4,0.2,2.9-0.3,3.9-1.2c1.1-0.8,1.8-1.9,2.5-2.9c1.4-2,2.6-4,4.3-5
						c0.8-0.5,1.8-0.8,2.7-0.8c0.9,0,1.7,0.2,2.5,0.6c1.5,0.7,2.5,1.7,3.1,2.7c0.6,1,0.8,1.9,0.8,2.5c0,0.6,0,0.9,0,0.9
						c0,0,0-0.1,0.1-0.2c0-0.2,0.1-0.4,0.1-0.7c0-0.6-0.1-1.6-0.7-2.6c-0.6-1-1.6-2.2-3.1-2.9c-0.8-0.4-1.6-0.6-2.6-0.6
						c-1,0-2,0.3-2.9,0.8c-1.9,1.1-3.1,3.2-4.5,5.1c-0.7,1-1.5,2-2.5,2.7c-1,0.8-2.3,1.2-3.5,1c-1.3-0.1-2.5-0.8-3.6-1.7
						c-1.1-0.9-1.9-2.1-2.6-3.4c-0.7-1.3-1.4-2.6-2.3-4c-0.8-1.3-1.9-2.6-3.3-3.5c-1.4-0.9-3.1-1.4-4.7-1c-1.6,0.4-2.8,1.7-3.7,2.8
						c-0.9,1.2-1.7,2.5-2.6,3.6c-0.9,1.1-1.9,2-3.2,2.1c-1.3,0.1-2.4-0.6-3.2-1.6c-0.8-1-1.3-2.1-1.8-3.2c-0.5-1.1-1-2.2-1.6-3.2
						c-0.6-1-1.4-1.8-2.5-2.2c-1-0.4-2.1-0.3-3,0.1c-0.9,0.4-1.6,0.9-2.3,1.4c-0.7,0.5-1.3,1-1.9,1.3c-0.6,0.3-1.2,0.5-1.8,0.7
						c-1.1,0.2-2,0-2.5-0.3C146.2,242.2,146.1,241.9,146,242z"/>
				</g>
				<g>
					<path class="st11" d="M148.3,202.1c0,0,0,0.1,0.1,0.2c0.1,0.1,0.2,0.3,0.5,0.4c0.5,0.3,1.4,0.3,2.4-0.2c1-0.5,1.8-1.6,3.1-2.1
						c0.6-0.3,1.5-0.2,2,0.4c0.6,0.5,0.9,1.4,1.1,2.3c0.3,0.9,0.5,1.9,1,2.8c0.3,0.5,0.6,0.9,1,1.3c0.5,0.3,1,0.6,1.6,0.6
						c2.4,0.2,4.6-1.3,6.2-3.2c0.8-0.9,1.6-1.9,2.6-2.6c1-0.7,2.2-1.2,3.5-1.1c2.6,0.1,5,1.8,6.7,3.9c1.7,2.2,2.9,4.8,4.4,7
						c1.4,2.3,3.5,4.2,6,5c1.2,0.4,2.5,0.5,3.7,0.2c1.2-0.3,2.2-1,3-1.8c1.5-1.6,2.6-3.4,4.1-4.4c0.8-0.5,1.6-0.7,2.4-0.6
						c0.8,0.1,1.5,0.4,2.1,0.8c1.2,0.8,1.9,1.9,2.5,2.7c1.1,1.8,1.5,2.9,1.5,2.8c0,0-0.1-0.3-0.3-0.8c-0.2-0.5-0.5-1.3-1.1-2.2
						c-0.5-0.9-1.3-2-2.5-2.9c-0.6-0.4-1.4-0.8-2.3-0.9c-0.9-0.1-1.8,0.1-2.7,0.6c-1.7,1-2.7,2.9-4.2,4.4c-0.7,0.8-1.7,1.4-2.7,1.6
						c-1.1,0.3-2.3,0.1-3.4-0.2c-2.3-0.8-4.2-2.5-5.6-4.8c-1.5-2.2-2.6-4.8-4.4-7c-1.8-2.3-4.3-4-7.2-4.2c-1.4-0.1-2.8,0.5-3.9,1.2
						c-1.1,0.8-1.9,1.8-2.7,2.7c-0.8,0.9-1.6,1.8-2.6,2.3c-1,0.6-2.1,0.9-3.1,0.8c-1-0.1-1.8-0.8-2.3-1.6c-0.5-0.9-0.7-1.8-1-2.7
						c-0.3-0.9-0.6-1.8-1.3-2.4c-0.7-0.6-1.7-0.7-2.4-0.4c-1.4,0.6-2.2,1.8-3.1,2.2c-0.9,0.5-1.7,0.5-2.2,0.3
						C148.5,202.3,148.3,202,148.3,202.1z"/>
				</g>
				<g>
					<path class="st11" d="M147.7,160.7c0,0,0.2-0.2,0.6-0.4c0.4-0.2,1.1-0.4,2-0.1c0.9,0.2,1.9,0.9,2.5,2c0.7,1.1,1,2.6,1.5,4.2
						c0.3,0.8,0.6,1.6,1.1,2.4c0.5,0.8,1.4,1.5,2.4,1.8c1,0.3,2.1,0.2,3.2-0.1c1-0.3,2-0.8,3-1.4c1.9-1.2,3.6-2.8,5.9-3.2
						c1.1-0.2,2.3,0,3.4,0.5c1.1,0.5,2,1.3,2.8,2.3c1.7,1.8,2.9,4.1,4.5,5.9c0.8,0.9,1.7,1.8,2.7,2.4c1,0.6,2.2,1,3.3,1.1
						c2.4,0,4.3-1.2,5.8-2.4c1.5-1.2,2.8-2.5,4.2-3.5c1.3-0.9,2.8-1.5,4.1-1.5c1.3,0,2.4,0.4,3.1,1c0.7,0.5,1.1,1.2,1.2,1.6
						c0.2,0.5,0.2,0.7,0.2,0.7c0,0,0.1-0.3-0.1-0.8c-0.1-0.5-0.5-1.2-1.2-1.8c-0.7-0.6-1.9-1.1-3.2-1.2c-1.4-0.1-2.9,0.5-4.3,1.5
						c-1.4,0.9-2.8,2.2-4.3,3.4c-1.5,1.2-3.4,2.3-5.5,2.3c-2.1-0.1-4.1-1.5-5.6-3.3c-1.5-1.8-2.7-4-4.5-6c-0.9-1-1.9-1.8-3-2.4
						c-1.2-0.6-2.5-0.8-3.7-0.6c-2.5,0.5-4.3,2.2-6.1,3.3c-1.8,1.2-3.9,2-5.7,1.5c-0.9-0.3-1.6-0.8-2.1-1.6
						c-0.5-0.7-0.8-1.5-1.1-2.3c-0.5-1.6-0.9-3.1-1.6-4.2c-0.4-0.6-0.8-1.1-1.3-1.4c-0.5-0.3-1-0.5-1.5-0.7c-0.9-0.2-1.7,0-2.1,0.3
						C147.8,160.4,147.7,160.7,147.7,160.7z"/>
				</g>
				<g>
					<path class="st11" d="M153.9,141.2c0,0,0,0.2,0.1,0.4c0.1,0.3,0.2,0.7,0.4,1.2c0.2,0.5,0.6,1.2,1.3,1.7
						c0.7,0.5,1.9,0.6,2.7-0.2c0.8-0.7,1.2-1.8,1.8-2.8c0.3-0.5,0.7-0.9,1.1-1.3c0.5-0.3,1.1-0.5,1.7-0.5c1.2-0.1,2.6,0.4,3.6,1.3
						c1,0.9,1.8,2.2,2.5,3.5c0.4,0.7,0.7,1.4,1.3,2c0.5,0.6,1.3,1.1,2.2,1c0.8-0.1,1.5-0.6,2-1.2c0.5-0.6,0.8-1.3,1-1.9
						c0.4-1.3,0.7-2.5,1.5-3.2c0.4-0.4,0.9-0.6,1.3-0.7c0.5-0.1,0.9,0.1,1.3,0.4c0.7,0.6,1,1.5,1.2,2.2c0.3,0.8,0.6,1.4,1,1.8
						c0.4,0.4,0.8,0.6,1.1,0.7c0.3,0,0.5,0,0.5,0c0-0.1-0.7,0.1-1.4-0.8c-0.3-0.4-0.7-1-0.9-1.8c-0.3-0.7-0.5-1.7-1.3-2.5
						c-0.4-0.4-1-0.6-1.6-0.5c-0.6,0.1-1.2,0.4-1.6,0.8c-1,0.9-1.3,2.2-1.7,3.4c-0.2,0.6-0.5,1.2-0.9,1.7c-0.4,0.5-1,0.9-1.6,0.9
						c-0.6,0.1-1.2-0.3-1.7-0.8c-0.5-0.5-0.8-1.2-1.2-1.8c-0.7-1.4-1.5-2.7-2.6-3.7c-1.1-1-2.6-1.6-4-1.5c-0.7,0-1.4,0.3-1.9,0.6
						c-0.6,0.4-1,0.9-1.3,1.4c-0.6,1-1,2.1-1.7,2.7c-0.7,0.6-1.6,0.6-2.2,0.2c-0.6-0.4-1-1-1.2-1.5
						C154.1,141.8,153.9,141.2,153.9,141.2z"/>
				</g>
				<g>
					<path class="st11" d="M232,141.3c0,0-0.1,0.2-0.1,0.6c-0.1,0.4-0.1,0.9-0.1,1.7c0,0.7,0,1.6,0.3,2.6c0.3,1,1,2.1,2.3,2.7
						c0.6,0.3,1.4,0.5,2.1,0.3c0.8-0.2,1.4-0.7,1.9-1.3c0.5-0.6,0.8-1.3,1.3-2c0.4-0.7,0.9-1.3,1.7-1.5c1.5-0.5,3.3,0.3,4.1,1.8
						c0.4,0.8,0.7,1.6,0.7,2.6c0.1,0.9,0,1.9,0,2.8c-0.1,1-0.1,2,0.2,3c0.3,1,0.8,1.9,1.7,2.4c0.9,0.6,2,0.6,2.9,0.2
						c0.9-0.3,1.6-0.9,2.3-1.5c1.2-1.3,2-2.7,3-3.7c1-1.1,2.4-1.5,3.6-1.5c1.2,0.1,2.3,0.6,3,1.3c0.7,0.7,1.1,1.5,1.2,2.2
						c0.3,1.4,0,2.2,0.1,2.2c0,0,0.1-0.2,0.2-0.6c0.1-0.4,0.1-1,0-1.7c-0.1-0.7-0.5-1.6-1.2-2.4c-0.7-0.8-1.9-1.4-3.2-1.5
						c-1.3-0.1-2.9,0.4-4,1.5c-1.1,1.1-1.9,2.5-3.1,3.7c-0.6,0.6-1.3,1.1-2.1,1.3c-0.8,0.3-1.7,0.3-2.4-0.2
						c-0.7-0.4-1.2-1.2-1.4-2.1c-0.2-0.9-0.2-1.8-0.2-2.8c0.2-1.9,0.2-4-0.8-5.7c-0.9-1.7-3.1-2.7-4.9-2.1c-0.9,0.3-1.5,1.1-1.9,1.8
						c-0.4,0.7-0.8,1.4-1.2,2c-0.4,0.6-1,1-1.6,1.2c-0.6,0.2-1.3,0-1.8-0.2c-1.1-0.5-1.8-1.5-2.1-2.4c-0.3-0.9-0.4-1.8-0.4-2.5
						C232,142.1,232.1,141.3,232,141.3z"/>
				</g>
			</g>
		</g>
		<g>
			<g>
				<g>
					<g>
						<g>
							<g>
								<path class="st7" d="M167.8,3.3c8.1-1.7,15.8,6,24,5.1c5-0.5,9.1-4.2,13.7-6.3c6.9-3.1,16.2-2.9,22.6,1.1
									c6.4,4,10.4,8,10.7,15.5c6.4-3,15.9,5.6,18.8,13.3s1.3,15.3-1.3,23.1c-4.5,13.4-11.7,25.8-21.1,36.5c-0.8,0.9-2.1,2-3.2,1.3
									c-0.8-0.4-0.9-1.4-1-2.3c-0.6-7.4,1-14.7,2.2-22c1.2-7.3,2.2-14.8,0.5-22c-1.7-7.2-6.6-14-13.7-16c-5.2-1.5-10.9-0.2-15.9,2
									c-5,2.3-9.4,5.5-14.2,8.1c-4.8,2.6-10,4.8-15.5,4.5c-5.4-0.2-11-3.3-12.9-8.4c-1.9-5.1,1.3-11.9,6.7-12.5
									c-4.8-0.9-8.7-5.4-8.8-10.4C159.3,9,163,4.3,167.8,3.3z"/>
							</g>
						</g>
					</g>
					<g>
						<g>
							<g>
								<g>
									<g>
										<g>
											<g>
												<g>
													<g>
														<g>
															<g>
																<g>
																	<g>
																		<g>
																			<g>
																				<g>
																					<g>
																						<path class="st14" d="M181.4,132.6l2.1-15.6c0,0-20.4-5.7-18.1-26.5c1.1-10,5-30.5,8.7-49
																							c4-19.9,22.7-33.4,42.8-30.9l2,0.2c21.4,3.9,30.1,24.2,25.7,45.5l-12.1,83.4c-2,14-15,23.8-29.1,21.9l0,0
																							C189.4,159.6,179.6,146.7,181.4,132.6z"/>
																					</g>
																				</g>
																			</g>
																		</g>
																	</g>
																</g>
															</g>
														</g>
													</g>
												</g>
											</g>
											<g>
												<g>
													<g>
														<g>
															<g>
																<g>
																	<g>
																		<g>
																			<g>
																				<g>
																					<g>
																						<path class="st15" d="M183.5,116.9c0,0,13,2.6,28-4.4c0,0-8.2,14.2-28.7,9.8L183.5,116.9z"/>
																					</g>
																				</g>
																			</g>
																		</g>
																	</g>
																</g>
															</g>
														</g>
													</g>
												</g>
											</g>
										</g>
									</g>
								</g>
								<g>
									<g>
										<g>
											<g>
												<g>
													<g>
														<g>
															<g>
																<g>
																	<g>
																		<g>
																			<g>
																				<g>
																					<g>
																						<g>
																							<g>
																								<g>
																									<path class="st7" d="M180.5,54c-0.3,1.6,0.9,3.2,2.5,3.4c1.6,0.3,3.1-0.8,3.4-2.4c0.3-1.6-0.9-3.2-2.5-3.5
																										C182.3,51.3,180.8,52.4,180.5,54z"/>
																								</g>
																							</g>
																						</g>
																					</g>
																				</g>
																			</g>
																		</g>
																	</g>
																</g>
															</g>
														</g>
														<g>
															<g>
																<g>
																	<g>
																		<g>
																			<g>
																				<g>
																					<g>
																						<g>
																							<g>
																								<g>
																									<g>
																										<path class="st7" d="M177.4,53.5c0.3,0.4,2.8-1,6-0.6c3.2,0.3,5.3,2.3,5.7,1.9c0.2-0.2-0.1-0.9-1-1.8
																											c-0.9-0.9-2.5-1.8-4.5-2c-2-0.2-3.7,0.3-4.8,0.9C177.6,52.6,177.2,53.3,177.4,53.5z"/>
																									</g>
																								</g>
																							</g>
																						</g>
																					</g>
																				</g>
																			</g>
																		</g>
																	</g>
																</g>
															</g>
														</g>
													</g>
													<g>
														<g>
															<g>
																<g>
																	<g>
																		<g>
																			<g>
																				<g>
																					<g>
																						<g>
																							<g>
																								<g>
																									<path class="st7" d="M210.9,56.6c-0.3,1.7,0.8,3.2,2.5,3.5c1.6,0.3,3.1-0.8,3.4-2.5
																										c0.3-1.7-0.8-3.2-2.5-3.5C212.7,53.8,211.1,54.9,210.9,56.6z"/>
																								</g>
																							</g>
																						</g>
																					</g>
																				</g>
																			</g>
																		</g>
																	</g>
																</g>
															</g>
														</g>
														<g>
															<g>
																<g>
																	<g>
																		<g>
																			<g>
																				<g>
																					<g>
																						<g>
																							<g>
																								<g>
																									<g>
																										<path class="st7" d="M208,56c0.3,0.4,2.8-1,6-0.6c3.2,0.3,5.3,2.3,5.7,1.9c0.2-0.2-0.1-0.9-1-1.8
																											c-0.9-0.9-2.5-1.8-4.5-2c-2-0.2-3.7,0.3-4.8,0.9C208.2,55.1,207.8,55.8,208,56z"/>
																									</g>
																								</g>
																							</g>
																						</g>
																					</g>
																				</g>
																			</g>
																		</g>
																	</g>
																</g>
															</g>
														</g>
													</g>
													<g>
														<g>
															<g>
																<g>
																	<g>
																		<g>
																			<g>
																				<g>
																					<g>
																						<g>
																							<g>
																								<g>
																									<path class="st7" d="M194.2,78.7c0-0.2-1.9-0.8-5.1-1.6c-0.8-0.2-1.6-0.4-1.6-1c-0.1-0.6,0.3-1.4,0.8-2.3
																										c1-1.9,2.1-3.8,3.2-5.9c4.4-8.4,7.7-15.4,7.4-15.6c-0.3-0.2-4.2,6.5-8.6,14.9c-1.1,2.1-2.1,4.1-3.1,6
																										c-0.4,0.9-1.1,1.9-0.8,3.1c0.1,0.6,0.7,1.1,1.2,1.4c0.5,0.2,1,0.3,1.4,0.4
																										C192.2,78.7,194.2,78.9,194.2,78.7z"/>
																								</g>
																							</g>
																						</g>
																					</g>
																				</g>
																			</g>
																		</g>
																	</g>
																</g>
															</g>
														</g>
													</g>
													<g>
														<g>
															<g>
																<g>
																	<g>
																		<g>
																			<g>
																				<g>
																					<g>
																						<g>
																							<g>
																								<g>
																									<path class="st7" d="M203.4,82.1c-0.5-0.1-0.9,3.4-4.2,5.5c-3.3,2.1-6.9,1.3-7,1.8c-0.1,0.2,0.7,0.8,2.3,1
																										c1.5,0.2,3.8,0,5.8-1.3c2-1.3,3-3.2,3.3-4.6C203.9,83,203.6,82.1,203.4,82.1z"/>
																								</g>
																							</g>
																						</g>
																					</g>
																				</g>
																			</g>
																		</g>
																	</g>
																</g>
															</g>
														</g>
													</g>
												</g>
											</g>
										</g>
										<g>
											<g>
												<g>
													<g>
														<g>
															<g>
																<g>
																	<g>
																		<g>
																			<g>
																				<g>
																					<path class="st7" d="M209.6,41.4c0.2,0.9,3.4,0.9,7.1,1.8c3.7,0.8,6.6,2.3,7.2,1.6c0.3-0.3-0.2-1.2-1.3-2.2
																						c-1.1-1-2.9-2-5.2-2.5c-2.2-0.5-4.3-0.4-5.7,0C210.3,40.4,209.5,41,209.6,41.4z"/>
																				</g>
																			</g>
																		</g>
																	</g>
																</g>
															</g>
														</g>
													</g>
												</g>
											</g>
										</g>
										<g>
											<g>
												<g>
													<g>
														<g>
															<g>
																<g>
																	<g>
																		<g>
																			<g>
																				<g>
																					<path class="st7" d="M179.7,43c0.5,0.8,2.8,0.3,5.4,0.6c2.7,0.2,4.8,1.1,5.4,0.4c0.3-0.3,0-1.1-0.9-1.9
																						c-0.9-0.8-2.4-1.6-4.2-1.7c-1.8-0.2-3.5,0.3-4.5,0.9C179.9,41.9,179.5,42.6,179.7,43z"/>
																				</g>
																			</g>
																		</g>
																	</g>
																</g>
															</g>
														</g>
													</g>
												</g>
											</g>
										</g>
									</g>
								</g>
							</g>
						</g>
					</g>
					<g>
						<g>
							<g>
								<g>
									<g>
										<g>
											<g>
												<g>
													<g>
														<g>
															<g>
																<g>
																	<path class="st14" d="M241.1,71.4c0.4-0.1,14.8-2.5,12.6,11.6c-2.2,14.1-15.9,9.1-15.9,8.6
																		C237.9,91.3,241.1,71.4,241.1,71.4z"/>
																</g>
															</g>
														</g>
													</g>
												</g>
											</g>
										</g>
									</g>
								</g>
							</g>
						</g>
						<g>
							<g>
								<g>
									<g>
										<g>
											<g>
												<g>
													<g>
														<g>
															<g>
																<g>
																	<g>
																		<path class="st15" d="M243,87c0.1,0,0.2,0.2,0.6,0.5c0.4,0.2,1.1,0.5,1.8,0.3c1.6-0.3,3.2-2.5,3.7-5
																			c0.2-1.3,0.1-2.5-0.2-3.6c-0.3-1.1-0.8-1.9-1.6-2.2c-0.7-0.3-1.3,0.1-1.6,0.5c-0.2,0.4-0.2,0.7-0.3,0.7
																			c0,0-0.3-0.3-0.1-0.8c0.1-0.3,0.3-0.6,0.7-0.8c0.4-0.2,0.9-0.3,1.4-0.2c1.1,0.2,1.9,1.4,2.2,2.6
																			c0.4,1.2,0.5,2.6,0.3,4.1c-0.5,2.8-2.4,5.3-4.5,5.6c-1,0.1-1.8-0.3-2.2-0.7C243,87.4,242.9,87,243,87z"/>
																	</g>
																</g>
															</g>
														</g>
													</g>
												</g>
											</g>
										</g>
									</g>
								</g>
							</g>
						</g>
					</g>
					<g>
						<g>
							<g>
								<g>
									<path class="st7" d="M170.3,36.6c8.8,3.5,19.4,2.5,27.3-2.8c5.6-3.7,10.2-9.4,16.8-10.5c4.4-0.8,9,0.7,12.7,3.3
										c3.6,2.6,6.4,6.3,8.7,10.2c-5.3,10.1-4,22.2-2.6,33.4c0.2,1.2,0.4,2.6,1.3,3.5c1.5,1.5,4.2,0.8,5.8-0.6
										c2.6-2.2,4-5.5,5-8.8c2.3-7.4,3.4-15.3,2.6-23c-0.8-7.7-3.6-15.4-8.5-21.4c-6.2-7.5-15.5-12.1-25.2-13.1
										c-9.7-1-19.6,1.5-28,6.4c-3.9,2.3-7.6,5.1-9.9,9"/>
								</g>
							</g>
						</g>
					</g>
				</g>
				<g>
					<g>
						<g>
							<g>
								<path class="st23" d="M161.3,7.6c0,0-0.1,0.4,0,1.2c0.1,0.8,0.5,2,1.6,3.2c1.1,1.1,2.9,2,5.1,2.4c1.1,0.2,2.3,0.3,3.5,0.2
									c1.3-0.1,2.6-0.4,3.8-1.2c1.2-0.8,2.2-2.2,2.3-3.8c0.1-1.7-1.1-3.2-2.6-4c-0.8-0.4-1.6-0.6-2.5-0.6c-0.9,0-1.8,0.3-2.6,0.8
									c-1.6,1-2.5,2.8-2.7,4.7c-0.2,1.9,0.4,3.9,1.6,5.5c1.2,1.6,2.9,2.8,4.8,3.5c3.8,1.6,8.2,1.3,12.3,0.1
									c4.1-1.2,7.8-3.1,11.2-5.1c3.5-1.9,6.8-3.7,10.2-4.9c3.4-1.2,6.9-1.7,10-1.2c3.2,0.5,6,1.7,8.2,3.2c4.6,3.1,7,7,8.4,9.7
									c0.7,1.4,1.1,2.5,1.4,3.2c0.3,0.8,0.4,1.2,0.5,1.1c0,0,0-0.1-0.1-0.3c-0.1-0.2-0.1-0.5-0.3-0.9c-0.3-0.8-0.7-1.9-1.3-3.3
									c-1.3-2.7-3.7-6.8-8.4-10c-2.3-1.6-5.2-2.9-8.4-3.4c-3.3-0.5-6.9-0.1-10.3,1.2c-3.5,1.2-6.9,3-10.4,4.9
									c-3.5,1.9-7.1,3.8-11.1,5c-4,1.2-8.2,1.4-11.8-0.1c-1.8-0.7-3.4-1.8-4.5-3.3c-1.1-1.5-1.7-3.3-1.5-5c0.2-1.7,1-3.4,2.4-4.3
									c1.3-1,3.1-0.9,4.5-0.2c1.4,0.7,2.4,2,2.3,3.4c0,1.4-0.9,2.6-2,3.4c-1.1,0.8-2.4,1.1-3.6,1.2c-1.2,0.1-2.4,0-3.4-0.1
									c-2.1-0.3-3.9-1.1-5-2.2c-1.1-1.1-1.5-2.2-1.7-3C161.2,8,161.3,7.6,161.3,7.6z"/>
							</g>
						</g>
					</g>
				</g>
				<g>
					<g>
						<g>
							<g>
								<path class="st23" d="M258.6,44.5c0-0.2-1.7,0.6-4.5,0.6c-1.4,0-3-0.3-4.7-1.1c-1.7-0.7-3.4-1.8-5-3.2
									c-3.2-2.8-4.8-6.5-5.3-9.2c-0.5-2.7-0.3-4.5-0.4-4.5c0,0-0.1,0.4-0.2,1.2c-0.1,0.8-0.1,2,0.1,3.4c0.4,2.8,2,6.7,5.3,9.7
									c1.7,1.4,3.4,2.5,5.2,3.3c1.8,0.7,3.5,1,4.9,1c1.4,0,2.6-0.3,3.3-0.6C258.2,44.7,258.6,44.5,258.6,44.5z"/>
							</g>
						</g>
					</g>
				</g>
				<g>
					<g>
						<g>
							<g>
								<path class="st23" d="M256.8,54.7c0-0.1-1.7,0-4.4-0.4c-2.6-0.5-6.3-1.7-9.4-4.4c-3.1-2.7-5-6-5.8-8.6
									c-0.9-2.5-1-4.2-1.1-4.2c0,0-0.1,0.4,0,1.2c0.1,0.8,0.3,1.9,0.7,3.2c0.8,2.6,2.6,6.2,5.9,8.9c3.3,2.8,7,4,9.8,4.3
									c1.4,0.2,2.5,0.2,3.3,0.1C256.4,54.8,256.8,54.7,256.8,54.7z"/>
							</g>
						</g>
					</g>
				</g>
				<g>
					<g>
						<g>
							<g>
								<path class="st15" d="M217.6,71.3c0.2,0.1,0.4-0.1,0.5-0.3c0.1-0.2,0-0.4-0.2-0.5c-0.2-0.1-0.4,0.1-0.5,0.3
									C217.3,71,217.4,71.2,217.6,71.3z"/>
							</g>
						</g>
					</g>
				</g>
				<g>
					<g>
						<g>
							<g>
								<path class="st15" d="M211.7,69.2c0.2,0.1,0.4-0.1,0.5-0.3c0.1-0.2,0-0.5-0.2-0.5c-0.2-0.1-0.4,0.1-0.5,0.3
									C211.4,68.9,211.5,69.1,211.7,69.2z"/>
							</g>
						</g>
					</g>
				</g>
				<g>
					<g>
						<g>
							<g>
								<path class="st15" d="M207.6,68.6c0.2,0,0.4-0.2,0.5-0.5c0.1-0.3,0-0.6-0.2-0.6c-0.2,0-0.4,0.2-0.5,0.5
									C207.3,68.3,207.4,68.5,207.6,68.6z"/>
							</g>
						</g>
					</g>
				</g>
				<g>
					<g>
						<g>
							<g>
								<path class="st15" d="M214.2,74.8c0.2,0,0.4-0.1,0.4-0.2c0-0.1-0.1-0.2-0.3-0.3c-0.2,0-0.4,0.1-0.4,0.2
									C213.8,74.6,214,74.7,214.2,74.8z"/>
							</g>
						</g>
					</g>
				</g>
				<g>
					<g>
						<g>
							<g>
								<path class="st15" d="M208.7,72.8c0.2,0,0.4-0.1,0.4-0.3s-0.1-0.4-0.3-0.5c-0.2,0-0.4,0.1-0.4,0.3
									C208.4,72.6,208.5,72.8,208.7,72.8z"/>
							</g>
						</g>
					</g>
				</g>
				<g>
					<g>
						<g>
							<g>
								<path class="st15" d="M180.1,65.8c0.2,0.1,0.4-0.1,0.5-0.3c0.1-0.2,0-0.4-0.2-0.5c-0.2-0.1-0.4,0.1-0.5,0.3
									C179.8,65.6,179.9,65.8,180.1,65.8z"/>
							</g>
						</g>
					</g>
				</g>
				<g>
					<g>
						<g>
							<g>
								<path class="st15" d="M176,65c0.2,0,0.4-0.1,0.4-0.4c0.1-0.2-0.1-0.5-0.2-0.5c-0.2,0-0.4,0.1-0.4,0.4
									C175.7,64.7,175.8,64.9,176,65z"/>
							</g>
						</g>
					</g>
				</g>
				<g>
					<g>
						<g>
							<g>
								<path class="st15" d="M183.7,66.4c0.2,0.1,0.4,0,0.4-0.2c0.1-0.2-0.1-0.3-0.2-0.4c-0.2-0.1-0.4,0-0.4,0.2
									C183.4,66.1,183.5,66.3,183.7,66.4z"/>
							</g>
						</g>
					</g>
				</g>
				<g>
					<g>
						<g>
							<g>
								<path class="st15" d="M180.2,70.2c0.2,0.1,0.4,0,0.5-0.2c0.1-0.2,0.1-0.4-0.1-0.5c-0.2-0.1-0.4,0-0.5,0.2
									C179.9,69.8,180,70.1,180.2,70.2z"/>
							</g>
						</g>
					</g>
				</g>
				<g>
					<g>
						<g>
							<g>
								<path class="st15" d="M176.7,69c0.2,0,0.3-0.2,0.3-0.3c0-0.2-0.2-0.3-0.4-0.2c-0.2,0-0.3,0.2-0.3,0.3
									C176.3,68.9,176.5,69.1,176.7,69z"/>
							</g>
						</g>
					</g>
				</g>
			</g>
			<g>
				<path class="st7" d="M254.5,78.9c0,0.1,0.8,0.1,1.4-0.9c0.3-0.4,0.5-1.1,0.4-1.8c-0.1-0.7-0.6-1.4-1.3-1.9
					c-0.7-0.5-1.5-0.6-2.2-0.5c-0.7,0.1-1.3,0.4-1.7,0.7c-0.9,0.6-1,1.3-1,1.4c0.1,0.1,0.4-0.5,1.2-1c0.8-0.5,2.2-0.8,3.4,0
					c0.6,0.4,0.9,1,1.1,1.5c0.1,0.6,0,1.1-0.2,1.5C255.1,78.7,254.4,78.8,254.5,78.9z"/>
			</g>
		</g>
		<g>
			<path class="st14" d="M147.2,233.8l-1.1,31c0,0,89.8,17.8,101.3,23.7c11.5,5.9,16.3,6.9,15.6,24l-143.4-0.2
				c0,0-17.7-6.6-17.3-25.9s5.2-65.5,5.2-65.5L147.2,233.8z"/>
			<g>
				<g>
					<g>
						<g>
							<g>
								<path class="st14" d="M248.1,313l-11.9-1.1l-11.4-27.2c1.8-0.3,40.2-6,42.5-5.4l9.2,32.7C276.5,312,248.9,313,248.1,313z"/>
							</g>
						</g>
						<g>
							<g>
								<g>
									<g>
										<g>
											<g>
												<g>
													<path class="st14" d="M274.4,312.5c0,0.1-0.3,0.1-0.6,0.1c-3.2,0.3-17.8-0.5-17.8-0.5c-0.7-1.9,0.6-7.6,2.4-7.9
														c1.8-0.3,17.4,0.7,17.4,0.7s2.5,0.3,3.1,4.4C279.2,312,274.4,312.5,274.4,312.5z"/>
												</g>
											</g>
										</g>
										<g>
											<g>
												<g>
													<path class="st14" d="M279.3,304.2c0,0.1-0.3,0.1-0.6,0.1c-3.2,0.3-17,0.2-17.6-1.5c-0.7-1.9,0.4-6.6,2.2-7
														c1.8-0.3,17.4,0.7,17.4,0.7s2.5,0.3,3.1,4.4C284.1,303.6,279.3,304.2,279.3,304.2z"/>
												</g>
											</g>
										</g>
										<g>
											<g>
												<g>
													<path class="st14" d="M281.8,296.1c0,0.1-0.3,0.1-0.6,0.1c-3.2,0.3-17,0.2-17.6-1.5c-0.7-1.9,0.4-6.6,2.2-7
														c1.8-0.3,17.4,0.7,17.4,0.7s2.5,0.3,3.1,4.4C286.6,295.5,281.8,296.1,281.8,296.1z"/>
												</g>
											</g>
										</g>
										<g>
											<g>
												<g>
													<path class="st14" d="M284.1,288c0,0.1-0.3,0.1-0.6,0.1c-3.2,0.3-17,0.2-17.6-1.5c-0.7-1.9,0.4-6.6,2.2-7
														c1.8-0.3,17.4,0.7,17.4,0.7s2.5,0.3,3.1,4.4C288.9,287.4,284.1,288,284.1,288z"/>
												</g>
											</g>
										</g>
										<g>
											<g>
												<g>
													<g>
														<path class="st15" d="M262.4,304.2c0,0.2,3,0.5,6.7,0.6c3.7,0.1,6.7,0,6.7-0.2c0-0.2-3-0.5-6.7-0.6
															C265.3,303.8,262.3,303.9,262.4,304.2z"/>
													</g>
												</g>
											</g>
										</g>
										<g>
											<g>
												<g>
													<g>
														<path class="st15" d="M262.3,296c0,0.2,4.3,0.6,9.6,0.7c5.3,0.2,9.6,0.1,9.6-0.1c0-0.2-4.3-0.6-9.6-0.7
															C266.6,295.7,262.3,295.8,262.3,296z"/>
													</g>
												</g>
											</g>
										</g>
										<g class="st93">
											<g>
												<g>
													<g>
														<path class="st15" d="M262.9,287.7c0,0.2,4.3,0.6,9.6,0.7c5.3,0.2,9.6,0.1,9.6-0.1c0-0.2-4.3-0.6-9.6-0.7
															C267.3,287.4,263,287.5,262.9,287.7z"/>
													</g>
												</g>
											</g>
										</g>
									</g>
								</g>
								<g>
									<g>
										<path class="st14" d="M240.7,282.6c0,0,26.1-11.6,27.8-9.9c1.6,1.7,4.1,7.1,4.1,7.1L240.7,282.6z"/>
									</g>
								</g>
							</g>
						</g>
					</g>
				</g>
			</g>
			<g>
				<path class="st15" d="M126,291.8c0.1,0,0.6-1.9,1.9-4.8c0.6-1.5,1.5-3.2,2.5-5c1.1-1.8,2.3-3.7,3.8-5.6c1.5-1.9,3.1-3.6,4.6-5.1
					c1.5-1.4,3-2.7,4.2-3.6c2.5-1.9,4.2-2.9,4.2-3c0,0-0.5,0.2-1.2,0.6c-0.8,0.4-1.9,1.1-3.2,2c-1.3,0.9-2.8,2.1-4.4,3.6
					c-1.5,1.5-3.1,3.2-4.7,5.1c-1.5,1.9-2.8,3.9-3.8,5.8c-1,1.9-1.8,3.6-2.4,5.1c-0.6,1.5-1,2.7-1.2,3.6
					C126.1,291.3,126,291.7,126,291.8z"/>
			</g>
		</g>
		<g>
			<g>
				<g>
					<path class="st14" d="M231.1,146l27,76.9l30.4,8.7c0,0-11,46.6-22.3,55c-3.8,2.8-10.1,5.9-16.5,5.5c-12.1-0.8-25.8-9.4-31-21.4
						c-4.6-10.6-16.9-120.5-16.9-120.5L231.1,146z"/>
					<g>
						<g>
							<path class="st14" d="M202.2,153.6l-1.6-18.7l4.3-15l1.7-5.8l-3.3,3.4l-6-6.4c0,0,1.9-11.4,3.6-11.4c1,0,4,1,6.1,1.8
								c1.2,0.5,2.2,0.8,2.2,0.8l5.1,2.6l-5.1-7.8c0,0-5.2,4.4-7.9,0.6c-2-2.9,5.6-9.4,8.4-11.7c0.7-0.5,1.5-0.7,2.3-0.6l3,0.6
								c-0.1-1.7,1.7-3.9,4.3-3.9c3.9-0.1,5.7,3.4,5.7,3.4l3.1,0.6c2.2,0,4.1,1.4,4.9,3.4l6.9,18.7l-8.8,37.9"/>
							<g>
								<path class="st15" d="M231.1,146c0,0,0.1-0.2,0.2-0.7c0.1-0.5,0.3-1.1,0.5-2c0.4-1.8,1-4.3,1.8-7.6
									c1.6-6.6,3.8-16.1,6.5-27.6l0-0.1l0-0.1c-1.4-3.7-2.8-7.6-4.3-11.7c-0.8-2.1-1.5-4.2-2.3-6.3c-0.3-1.1-1-2.2-1.9-3
									c-1-0.8-2.2-1.2-3.4-1.2l0.1,0c-1-0.2-2-0.4-3.1-0.6l0.2,0.2c-0.6-1-1.3-1.8-2.3-2.5c-1-0.6-2.1-1-3.3-1.1
									c-1.2-0.1-2.4,0.3-3.4,1.1c-0.9,0.8-1.7,1.9-1.7,3.2l0.4-0.3c-0.7-0.1-1.5-0.3-2.2-0.5c-0.4-0.1-0.7-0.2-1.2-0.2
									c-0.4,0-0.9,0-1.3,0.2c-0.4,0.1-0.8,0.4-1.1,0.6l-0.9,0.7c-0.6,0.5-1.2,1-1.8,1.5c-1.2,1.1-2.3,2.2-3.4,3.4
									c-1,1.2-2.1,2.5-2.5,4.2c-0.1,0.5-0.1,1,0,1.5c0.2,0.5,0.6,0.9,0.9,1.2c0.7,0.7,1.7,1,2.7,1c2-0.1,3.6-1.1,5-2.2l-0.5-0.1
									c1.7,2.6,3.4,5.2,5.1,7.8l0.4-0.4c-1.7-0.9-3.4-1.7-5.1-2.6l0,0l0,0c-1.7-0.6-3.4-1.3-5.1-1.8c-0.9-0.3-1.7-0.5-2.6-0.7
									c-0.2,0-0.4-0.1-0.8,0c-0.4,0.1-0.5,0.3-0.7,0.5c-0.3,0.4-0.5,0.8-0.6,1.2c-1.2,3.3-1.8,6.6-2.4,9.8l0,0.1l0.1,0.1
									c2.1,2.2,4.1,4.3,6,6.4l0.2,0.2l0.2-0.2c1.1-1.2,2.2-2.3,3.3-3.4l-0.4-0.2c-2.3,8.1-4.3,15.1-6,20.8l0,0l0,0
									c0.5,5.9,1,10.6,1.2,13.8c0.2,1.6,0.3,2.8,0.4,3.7c0,0.4,0.1,0.7,0.1,0.9c0,0.2,0,0.3,0.1,0.3c0,0,0-0.1,0-0.3
									c0-0.2,0-0.5-0.1-0.9c-0.1-0.9-0.1-2.1-0.3-3.7c-0.3-3.2-0.6-7.9-1.1-13.8l0,0.1c1.7-5.8,3.7-12.7,6.1-20.8l0.3-1l-0.7,0.7
									c-1.1,1.1-2.2,2.2-3.3,3.4l0.4,0c-1.9-2.1-3.9-4.2-6-6.4l0.1,0.2c0.6-3.2,1.2-6.5,2.4-9.7c0.2-0.4,0.3-0.8,0.6-1.1
									c0.1-0.2,0.3-0.3,0.3-0.3c0.1,0,0.4,0,0.5,0.1c0.8,0.2,1.7,0.4,2.5,0.7c1.7,0.5,3.4,1.2,5.1,1.8l0,0
									c1.7,0.9,3.4,1.7,5.1,2.6l1,0.5l-0.6-1c-1.7-2.6-3.4-5.1-5.1-7.8l-0.2-0.3l-0.3,0.2c-1.3,1-3,2-4.7,2
									c-0.8,0-1.7-0.2-2.3-0.8c-0.3-0.3-0.6-0.6-0.7-1c-0.1-0.4-0.1-0.8,0-1.2c0.4-1.5,1.4-2.7,2.4-3.9c1-1.2,2.2-2.3,3.3-3.3
									c0.6-0.5,1.2-1,1.8-1.5c0.6-0.5,1.2-1.1,1.8-1.3c0.7-0.3,1.3-0.1,2.1,0c0.7,0.2,1.5,0.3,2.2,0.4l0.4,0.1l0-0.4
									c0-1,0.6-2,1.4-2.7c0.8-0.7,1.9-1,3-0.9c2.2,0,4,1.5,5.1,3.2l0.1,0.1l0.1,0c1.1,0.2,2.2,0.4,3.1,0.6l0,0h0
									c1.1,0,2.2,0.4,3.1,1.1c0.9,0.7,1.4,1.7,1.8,2.7c0.8,2.1,1.6,4.2,2.3,6.3c1.5,4.1,3,8,4.3,11.7l0-0.1
									c-2.6,11.5-4.8,21-6.3,27.7c-0.7,3.3-1.3,5.8-1.7,7.6c-0.2,0.9-0.3,1.5-0.4,2C231.1,145.8,231.1,146,231.1,146z"/>
							</g>
						</g>
						<g>
							<path class="st15" d="M209.5,111.6c0.1-0.1-2.2-1.3-5.3-2.8l-2-0.9l1.6,1.5c0.4,0.4,0.8,0.8,1.1,1.4c0.5,0.9,0.7,1.9,0.6,2.8
								c-0.1,0.9-0.4,1.7-0.7,2.2c-0.7,1.2-1.5,1.6-1.4,1.7c0,0.1,0.9-0.3,1.8-1.5c0.4-0.6,0.8-1.4,0.9-2.4c0.1-1-0.1-2.1-0.6-3.1
								c-0.3-0.6-0.8-1.1-1.2-1.5l-0.3,0.5C207.1,110.8,209.4,111.7,209.5,111.6z"/>
						</g>
						<g>
							<path class="st15" d="M223.8,101.5c0.1,0-0.5-1.1-1.5-2.8c-1-1.7-2.4-4-3.9-6.6c-0.8-1.3-1.5-2.5-2.2-3.6
								c-0.7-1.1-1.6-2-2.5-2.5c-0.9-0.5-1.8-0.6-2.3-0.5c-0.6,0.1-0.8,0.3-0.8,0.3c0,0.1,0.3-0.1,0.8,0c0.5,0,1.3,0.2,2.1,0.7
								c1.7,1,2.8,3.5,4.4,6.1c1.6,2.6,3,4.9,4.1,6.5C223.1,100.5,223.7,101.5,223.8,101.5z"/>
						</g>
						<g>
							<path class="st15" d="M233.1,101.4c0.1,0-0.3-1-0.9-2.5c-0.6-1.5-1.6-3.6-2.7-5.9c-1.1-2.3-2.2-4.3-3.1-5.7
								c-0.8-1.4-1.4-2.3-1.5-2.2c-0.1,0,0.4,1,1.1,2.5c0.9,1.7,1.8,3.6,2.9,5.8c1.1,2.2,2,4.1,2.9,5.8
								C232.6,100.5,233,101.4,233.1,101.4z"/>
						</g>
					</g>
				</g>
				<g>
					<path class="st15" d="M254.8,215.4c0,0,0.1,0.5,0.4,1.4c0.4,1,0.8,2.2,1.4,3.7c1.2,3.1,2.8,7.5,4.5,12.3
						c1.7,4.8,3.2,9.2,4.2,12.4c0.5,1.5,0.9,2.8,1.3,3.8c0.3,0.9,0.5,1.4,0.5,1.4c0,0-0.1-0.5-0.3-1.4c-0.2-0.9-0.6-2.2-1.1-3.8
						c-1-3.2-2.4-7.6-4.1-12.5c-1.7-4.8-3.4-9.1-4.7-12.2c-0.6-1.5-1.2-2.8-1.6-3.6C255.1,215.9,254.9,215.4,254.8,215.4z"/>
				</g>
			</g>
			<g>
				<path class="st15" d="M214.7,250.9c0,0,0,0.1,0,0.4c0,0.3,0.1,0.6,0.1,1c0.1,0.9,0.3,2.3,0.6,4c0.3,1.7,0.6,3.8,1.1,6.3
					c0.5,2.4,1.1,5.2,2.3,8.1c1.1,2.9,2.8,6,5.3,8.7c2.5,2.7,5.6,5.2,9.1,7.3c3.6,2.1,7.6,3.8,11.9,5c2.2,0.6,4.5,1,6.8,1
					c2.3,0,4.7-0.4,7-1.2c4.5-1.6,8.3-4.7,11.1-8.2c2.9-3.5,4.9-7.4,6.4-11.2c1.6-3.8,2.5-7.6,3.6-11.1c1.1-3.5,2.1-6.7,3-9.7
					c1.9-5.9,3.3-10.8,4.2-14.1c0.4-1.7,0.8-3,1-3.9c0.1-0.4,0.2-0.8,0.2-1c0-0.2,0.1-0.3,0.1-0.4c0,0-0.1,0.1-0.1,0.3
					c-0.1,0.3-0.2,0.6-0.3,1c-0.3,0.9-0.6,2.2-1.1,3.9c-1,3.3-2.4,8.1-4.3,14.1c-0.9,3-2,6.2-3.1,9.7c-1.1,3.5-2.1,7.3-3.6,11.1
					c-1.6,3.8-3.6,7.6-6.4,11c-2.8,3.4-6.5,6.4-10.9,8c-2.2,0.8-4.5,1.2-6.8,1.2c-2.3,0-4.5-0.4-6.7-0.9c-4.3-1.2-8.3-2.8-11.8-4.9
					c-3.5-2.1-6.6-4.5-9-7.2c-2.5-2.6-4.1-5.7-5.3-8.5c-1.1-2.9-1.8-5.6-2.3-8c-0.5-2.4-0.9-4.5-1.2-6.2c-0.3-1.7-0.5-3-0.7-3.9
					c-0.1-0.4-0.1-0.8-0.2-1C214.8,251,214.8,250.9,214.7,250.9z"/>
			</g>
		</g>
	</g>
</g>
</svg>
