<svg id="Capa_1" data-name="Capa 1" xmlns="http://www.w3.org/2000/svg" viewBox="0 0 39.65 39.65">
  <defs>
    <style>
      .cls-1 {
        fill: #6db1e4;
      }

      .cls-2 {
        fill: #fff;
      }
    </style>
  </defs>
  <title>Atenea</title>
  <rect class="cls-1" width="39.65" height="39.65" rx="6.04" ry="6.04"/>
  <path class="cls-2" d="M32.74,11.82a11.21,11.21,0,0,1-3.05.84A5.27,5.27,0,0,0,32,9.73,10.5,10.5,0,0,1,28.66,11a5.31,5.31,0,0,0-9,4.83A15,15,0,0,1,8.71,10.3,5.39,5.39,0,0,0,8,13a5.3,5.3,0,0,0,2.35,4.4A5.24,5.24,0,0,1,8,16.72v.06A5.32,5.32,0,0,0,12.19,22a5.63,5.63,0,0,1-1.39.17,4.71,4.71,0,0,1-1-.09,5.33,5.33,0,0,0,4.95,3.69A10.66,10.66,0,0,1,8.18,28a8.93,8.93,0,0,1-1.27-.08A14.88,14.88,0,0,0,15,30.32,15,15,0,0,0,30.11,15.25c0-.23,0-.46,0-.68A10.66,10.66,0,0,0,32.74,11.82Z"/>
</svg>
