<?xml version="1.0" encoding="utf-8"?>
<!-- Generator: Adobe Illustrator 22.0.0, SVG Export Plug-In . SVG Version: 6.00 Build 0)  -->
<svg version="1.1" id="Capa_1" xmlns="http://www.w3.org/2000/svg" xmlns:xlink="http://www.w3.org/1999/xlink" x="0px" y="0px"
	 viewBox="0 0 29.5 29.5" style="enable-background:new 0 0 29.5 29.5;" xml:space="preserve">
<style type="text/css">
	.st0{fill:#F7F7F7;}
	.st1{fill:#FFFFFF;}
	.st2{fill:#6DB1E4;}
	.st3{fill:#013C74;}
	.st4{opacity:0.85;fill:#013C74;}
	.st5{opacity:0.79;fill:#FFFFFF;}
	.st6{fill:#2E2E2E;}
	.st7{fill:#263238;}
	.st8{fill:#A78E80;}
	.st9{fill:#07849B;}
	.st10{fill:#0A0A0A;}
	.st11{fill:#079DC4;}
	.st12{fill:#FFFFFF;stroke:#AFAFAF;stroke-width:1.0617;stroke-miterlimit:10;}
	.st13{fill:#FFFFFF;stroke:#AFAFAF;stroke-miterlimit:10;}
	.st14{fill:#FFBE9D;}
	.st15{fill:#EB996E;}
	.st16{opacity:0.2;}
	.st17{fill:#FBFBFB;}
	.st18{opacity:0.6;}
	.st19{opacity:0.6;fill:#FFFFFF;}
	.st20{fill:#E0E0E0;}
	.st21{fill:#5B5B5B;}
	.st22{fill:#FAFAFA;}
	.st23{fill:#455A64;}
	.st24{fill:none;stroke:#013C74;stroke-width:3;stroke-linecap:round;stroke-linejoin:round;stroke-miterlimit:10;}
	.st25{fill:none;stroke:#FFFFFF;stroke-width:3;stroke-linecap:round;stroke-linejoin:round;stroke-miterlimit:10;}
	.st26{fill:#B9B9B9;}
	.st27{fill:#E9E9E9;}
	.st28{opacity:0.3;fill:#6DB1E4;}
	.st29{fill:#E7AF23;}
	.st30{fill:none;stroke:#E9E9E9;stroke-miterlimit:10;}
	.st31{fill:#CD631B;}
	.st32{fill:#57A41B;}
	.st33{clip-path:url(#SVGID_10_);}
	.st34{fill:#7DE213;}
	.st35{fill:url(#SVGID_13_);}
	.st36{fill:#B2B2B2;}
	.st37{fill:#284266;}
	.st38{fill:#149FBF;}
	.st39{fill:url(#SVGID_14_);}
	.st40{fill:#F2B606;}
	.st41{fill:url(#SVGID_15_);}
	.st42{fill:#088F9E;}
	.st43{fill:url(#SVGID_16_);}
	.st44{fill:#098F9E;}
	.st45{fill:url(#SVGID_17_);}
	.st46{fill:url(#SVGID_18_);}
	.st47{fill:#00CB9A;}
	.st48{fill:url(#SVGID_19_);}
	.st49{fill:#5059AA;}
	.st50{fill:url(#SVGID_20_);}
	.st51{fill:#F19E05;}
	.st52{fill:url(#SVGID_21_);}
	.st53{fill:url(#SVGID_22_);}
	.st54{fill:url(#SVGID_23_);}
	.st55{fill:url(#SVGID_24_);}
	.st56{fill:url(#SVGID_25_);}
	.st57{fill:url(#SVGID_26_);}
	.st58{fill:url(#SVGID_27_);}
	.st59{fill:#0C5356;}
	.st60{fill:url(#SVGID_28_);}
	.st61{fill:url(#SVGID_29_);}
	.st62{fill:url(#SVGID_30_);}
	.st63{fill:url(#SVGID_31_);}
	.st64{fill:url(#SVGID_32_);}
	.st65{fill:url(#SVGID_33_);}
	.st66{fill:url(#SVGID_34_);}
	.st67{fill:url(#SVGID_35_);}
	.st68{fill:url(#SVGID_36_);}
	.st69{fill:url(#SVGID_37_);}
	.st70{fill:url(#SVGID_38_);}
	.st71{fill:url(#SVGID_39_);}
	.st72{fill:url(#SVGID_40_);}
	.st73{fill:url(#SVGID_41_);}
	.st74{fill:url(#SVGID_42_);}
	.st75{fill:url(#SVGID_43_);}
	.st76{fill:url(#SVGID_44_);}
	.st77{fill:url(#SVGID_45_);}
	.st78{fill:url(#SVGID_46_);}
	.st79{fill:url(#SVGID_47_);}
	.st80{fill:url(#SVGID_48_);}
	.st81{fill:url(#SVGID_49_);}
	.st82{fill:url(#SVGID_50_);}
	.st83{fill:url(#SVGID_51_);}
	.st84{fill:url(#SVGID_52_);}
	.st85{fill:url(#SVGID_53_);}
	.st86{fill:url(#SVGID_54_);}
	.st87{fill:url(#SVGID_55_);}
	.st88{fill:url(#SVGID_56_);}
	.st89{fill:url(#SVGID_57_);}
	.st90{fill:url(#SVGID_58_);}
	.st91{fill:#F8F8F8;}
	.st92{opacity:0.3;}
	.st93{opacity:0.78;}
	.st94{fill:#FFFFFF;stroke:#FFFFFF;stroke-width:0.15;stroke-miterlimit:10;}
	.st95{fill:none;stroke:#B9B9B9;stroke-miterlimit:10;}
	.st96{opacity:0.5;}
	.st97{opacity:0.5;fill:none;stroke:#B9B9B9;stroke-miterlimit:10;}
	.st98{fill:none;stroke:#E5E5E5;stroke-miterlimit:10;}
	.st99{fill:#FFFFFF;stroke:#BABABA;stroke-miterlimit:10;}
	.st100{fill:#FFFFFF;stroke:#BABABA;stroke-width:2;stroke-linecap:round;stroke-linejoin:round;stroke-miterlimit:10;}
	.st101{fill:none;stroke:#079DC4;stroke-width:0.8605;stroke-miterlimit:10;}
	.st102{fill:#1A1A1A;}
	.st103{fill:#222222;}
	.st104{fill:#868686;}
	.st105{fill:#94CEED;}
	.st106{fill:#C4E2EB;}
	.st107{fill:#0C0E0F;}
	.st108{fill:#1B1B1B;}
	.st109{fill:#262424;}
</style>
<g>
	<g>
		<g>
			<path class="st1" d="M27,20.1c-0.8,0-1.4-0.6-1.5-1.4c1.9-0.8,3-2.7,2.9-4.7c0-0.1,0-0.3,0-0.3c0-2.5-2-4.4-4.4-4.4h-5.9
				c-0.3,0-0.5,0.2-0.5,0.5c0,1.1,0.4,2.2,1.2,3c-0.1,0.5-0.2,0.9-0.2,1.4c0,2,1.2,3.7,2.9,4.5c0,0.8-0.7,1.4-1.5,1.4
				c-1.4,0-2.5,1.1-2.5,2.5v6.9h1v-6.9c0-0.8,0.6-1.5,1.4-1.5l2.4,0.4l-0.9,5.9c0,0.1,0,0.3,0.1,0.4l1.5,1.5c0.2,0.2,0.5,0.2,0.7,0
				l1.5-1.5c0.1-0.1,0.1-0.2,0.1-0.4l-0.9-5.9l2.4-0.4c0.8,0,1.4,0.7,1.4,1.5v6.9h1v-6.9C29.5,21.2,28.4,20.1,27,20.1z M18.7,10.3
				h5.4c1.7,0,3.1,1.3,3.4,2.9h-5.4C20.4,13.3,19,12,18.7,10.3z M23.6,28.3l-0.9-0.9l0.9-5.7h0.1l0.9,5.7L23.6,28.3z M24,20.6h-0.9
				l-1.3-0.2c0.5-0.4,0.7-1.1,0.7-1.8v-0.2c0-0.2-0.1-0.4-0.3-0.4c-1.6-0.6-2.6-2.1-2.6-3.7c0-0.2,0-0.5,0-0.7
				c0.7,0.4,1.5,0.7,2.4,0.7h5.4c0,1.7-1,3.1-2.6,3.7c-0.2,0-0.3,0.2-0.3,0.4v0.3c0,0.6,0.2,1.3,0.7,1.8L24,20.6z"/>
		</g>
	</g>
	<g>
		<g>
			<rect x="25.6" y="23.6" class="st1" width="1.5" height="1"/>
		</g>
	</g>
	<g>
		<g>
			<path class="st1" d="M29,0H0.5C0.2,0,0,0.2,0,0.5v2c0,0.3,0.2,0.5,0.5,0.5H1v17.7H0.5c-0.3,0-0.5,0.2-0.5,0.5v2
				c0,0.3,0.2,0.5,0.5,0.5h12.8V29c0,0.3,0.2,0.5,0.5,0.5h2c0.3,0,0.5-0.2,0.5-0.5v-5.4h0.5v-1H1v-1h15.7v-1H2V2.9h25.6v6.9h1V2.9
				H29c0.3,0,0.5-0.2,0.5-0.5v-2C29.5,0.2,29.3,0,29,0z M14.2,23.6h1v4.9h-1V23.6z M28.5,2H1V1h27.5V2z"/>
		</g>
	</g>
	<g>
		<g>
			<path class="st1" d="M26,3.9H3.4c-0.3,0-0.5,0.2-0.5,0.5v9.8c0,0.3,0.2,0.5,0.5,0.5h14.2v-1H3.9V11l3.8,1.3c0,0,0.1,0,0.1,0
				c0.1,0,0.2,0,0.3-0.1l2.7-2.7l2.7,1.3c0.1,0.1,0.3,0,0.5,0l5.3-3.9h1.8v-1h-2c-0.1,0-0.2,0-0.3,0.1l-5.2,3.7L11,8.4
				c-0.2-0.1-0.4,0-0.6,0.1l-2.8,2.8L3.9,10V4.9h21.6v3.4h1V4.4C26.5,4.1,26.3,3.9,26,3.9z"/>
		</g>
	</g>
	<g>
		<g>
			<path class="st1" d="M16.6,17.8l-2.5-2.5c-0.2-0.2-0.5-0.2-0.7,0L11,17.8c-0.2,0.2-0.2,0.5,0,0.7c0.1,0.1,0.2,0.1,0.3,0.1h1v1
				c0,0.3,0.2,0.5,0.5,0.5h2c0.3,0,0.5-0.2,0.5-0.5v-1h1c0.3,0,0.5-0.2,0.5-0.5C16.7,18,16.7,17.9,16.6,17.8z"/>
		</g>
	</g>
	<g>
		<g>
			<path class="st1" d="M10.2,16.9c-0.1-0.1-0.2-0.1-0.3-0.1h-1v-1c0-0.3-0.2-0.5-0.5-0.5h-2c-0.3,0-0.5,0.2-0.5,0.5v1h-1
				c-0.3,0-0.5,0.2-0.5,0.5c0,0.1,0,0.2,0.1,0.3L7,20c0.2,0.2,0.5,0.2,0.7,0l2.5-2.5C10.4,17.3,10.4,17,10.2,16.9z"/>
		</g>
	</g>
	<g>
		<g>
			<polygon class="st1" points="24.1,5.9 24.1,5.4 23.1,5.4 23.1,5.9 22.6,5.9 22.6,6.9 23.1,6.9 23.1,7.4 24.1,7.4 24.1,6.9 
				24.6,6.9 24.6,5.9 			"/>
		</g>
	</g>
	<g>
		<g>
			<polygon class="st1" points="11.3,6.4 11.3,5.9 10.3,5.9 10.3,6.4 9.8,6.4 9.8,7.4 10.3,7.4 10.3,7.9 11.3,7.9 11.3,7.4 
				11.8,7.4 11.8,6.4 			"/>
		</g>
	</g>
</g>
</svg>
