<?xml version="1.0" encoding="utf-8"?>
<!-- Generator: Adobe Illustrator 22.0.0, SVG Export Plug-In . SVG Version: 6.00 Build 0)  -->
<svg version="1.1" id="Capa_1" xmlns="http://www.w3.org/2000/svg" xmlns:xlink="http://www.w3.org/1999/xlink" x="0px" y="0px"
	 viewBox="0 0 32.1 20.6" style="enable-background:new 0 0 32.1 20.6;" xml:space="preserve">
<style type="text/css">
	.st0{fill:#F7F7F7;}
	.st1{fill:#FFFFFF;}
	.st2{fill:#6DB1E4;}
	.st3{fill:#013C74;}
	.st4{opacity:0.85;fill:#013C74;}
	.st5{opacity:0.79;fill:#FFFFFF;}
	.st6{fill:#2E2E2E;}
	.st7{fill:#263238;}
	.st8{fill:#A78E80;}
	.st9{fill:#07849B;}
	.st10{fill:#0A0A0A;}
	.st11{fill:#079DC4;}
	.st12{fill:#FFFFFF;stroke:#AFAFAF;stroke-width:1.0617;stroke-miterlimit:10;}
	.st13{fill:#FFFFFF;stroke:#AFAFAF;stroke-miterlimit:10;}
	.st14{fill:#FFBE9D;}
	.st15{fill:#EB996E;}
	.st16{opacity:0.2;}
	.st17{fill:#FBFBFB;}
	.st18{opacity:0.6;}
	.st19{opacity:0.6;fill:#FFFFFF;}
	.st20{fill:#E0E0E0;}
	.st21{fill:#5B5B5B;}
	.st22{fill:#FAFAFA;}
	.st23{fill:#455A64;}
	.st24{fill:none;stroke:#013C74;stroke-width:3;stroke-linecap:round;stroke-linejoin:round;stroke-miterlimit:10;}
	.st25{fill:none;stroke:#FFFFFF;stroke-width:3;stroke-linecap:round;stroke-linejoin:round;stroke-miterlimit:10;}
	.st26{fill:#B9B9B9;}
	.st27{fill:#E9E9E9;}
	.st28{opacity:0.3;fill:#6DB1E4;}
	.st29{fill:#E7AF23;}
	.st30{fill:none;stroke:#E9E9E9;stroke-miterlimit:10;}
	.st31{fill:#CD631B;}
	.st32{fill:#57A41B;}
	.st33{clip-path:url(#SVGID_10_);}
	.st34{fill:#7DE213;}
	.st35{fill:url(#SVGID_13_);}
	.st36{fill:#B2B2B2;}
	.st37{fill:#284266;}
	.st38{fill:#149FBF;}
	.st39{fill:url(#SVGID_14_);}
	.st40{fill:#F2B606;}
	.st41{fill:url(#SVGID_15_);}
	.st42{fill:#088F9E;}
	.st43{fill:url(#SVGID_16_);}
	.st44{fill:#098F9E;}
	.st45{fill:url(#SVGID_17_);}
	.st46{fill:url(#SVGID_18_);}
	.st47{fill:#00CB9A;}
	.st48{fill:url(#SVGID_19_);}
	.st49{fill:#5059AA;}
	.st50{fill:url(#SVGID_20_);}
	.st51{fill:#F19E05;}
	.st52{fill:url(#SVGID_21_);}
	.st53{fill:url(#SVGID_22_);}
	.st54{fill:url(#SVGID_23_);}
	.st55{fill:url(#SVGID_24_);}
	.st56{fill:url(#SVGID_25_);}
	.st57{fill:url(#SVGID_26_);}
	.st58{fill:url(#SVGID_27_);}
	.st59{fill:#0C5356;}
	.st60{fill:url(#SVGID_28_);}
	.st61{fill:url(#SVGID_29_);}
	.st62{fill:url(#SVGID_30_);}
	.st63{fill:url(#SVGID_31_);}
	.st64{fill:url(#SVGID_32_);}
	.st65{fill:url(#SVGID_33_);}
	.st66{fill:url(#SVGID_34_);}
	.st67{fill:url(#SVGID_35_);}
	.st68{fill:url(#SVGID_36_);}
	.st69{fill:url(#SVGID_37_);}
	.st70{fill:url(#SVGID_38_);}
	.st71{fill:url(#SVGID_39_);}
	.st72{fill:url(#SVGID_40_);}
	.st73{fill:url(#SVGID_41_);}
	.st74{fill:url(#SVGID_42_);}
	.st75{fill:url(#SVGID_43_);}
	.st76{fill:url(#SVGID_44_);}
	.st77{fill:url(#SVGID_45_);}
	.st78{fill:url(#SVGID_46_);}
	.st79{fill:url(#SVGID_47_);}
	.st80{fill:url(#SVGID_48_);}
	.st81{fill:url(#SVGID_49_);}
	.st82{fill:url(#SVGID_50_);}
	.st83{fill:url(#SVGID_51_);}
	.st84{fill:url(#SVGID_52_);}
	.st85{fill:url(#SVGID_53_);}
	.st86{fill:url(#SVGID_54_);}
	.st87{fill:url(#SVGID_55_);}
	.st88{fill:url(#SVGID_56_);}
	.st89{fill:url(#SVGID_57_);}
	.st90{fill:url(#SVGID_58_);}
	.st91{fill:#F8F8F8;}
	.st92{opacity:0.3;}
	.st93{opacity:0.78;}
	.st94{fill:#FFFFFF;stroke:#FFFFFF;stroke-width:0.15;stroke-miterlimit:10;}
	.st95{fill:none;stroke:#B9B9B9;stroke-miterlimit:10;}
	.st96{opacity:0.5;}
	.st97{opacity:0.5;fill:none;stroke:#B9B9B9;stroke-miterlimit:10;}
	.st98{fill:none;stroke:#E5E5E5;stroke-miterlimit:10;}
	.st99{fill:#FFFFFF;stroke:#BABABA;stroke-miterlimit:10;}
	.st100{fill:#FFFFFF;stroke:#BABABA;stroke-width:2;stroke-linecap:round;stroke-linejoin:round;stroke-miterlimit:10;}
	.st101{fill:none;stroke:#079DC4;stroke-width:0.8605;stroke-miterlimit:10;}
	.st102{fill:#1A1A1A;}
	.st103{fill:#222222;}
	.st104{fill:#868686;}
	.st105{fill:#94CEED;}
	.st106{fill:#C4E2EB;}
	.st107{fill:#0C0E0F;}
	.st108{fill:#1B1B1B;}
	.st109{fill:#262424;}
</style>
<g>
	<g>
		<path class="st1" d="M32.1,10.2l-3-8.6c-0.1-0.3-0.4-0.5-0.7-0.4l-3.1,0.6l-5.5-1.6C18.9,0,18-0.2,17,0.4L16,1l-1-0.6
			c-1-0.6-1.9-0.4-2.7-0.2L6.9,1.8L4,1.1C3.7,1,3.4,1.2,3.3,1.5L0,10.1c-0.1,0.3,0,0.6,0.3,0.8L3,12.4c-0.2,0.4-0.2,0.9-0.1,1.4
			c0.2,0.6,0.5,1,1,1.3c0.4,0.2,0.8,0.3,1.3,0.3c0,0.7,0.4,1.4,1.1,1.8c0.6,0.4,1.4,0.4,2,0.1c0.2,0.4,0.5,0.8,0.9,1.1
			c0.5,0.3,1.1,0.4,1.7,0.2c0.2,0,0.3-0.1,0.5-0.2c0.2,0.4,0.5,0.7,0.9,1c0.3,0.2,0.7,0.3,1.1,0.3c0.5,0,1-0.2,1.4-0.5l1.9,1.1
			c0.3,0.2,0.7,0.3,1.1,0.3c0.8,0,1.5-0.4,1.9-1.1c0.2-0.3,0.3-0.6,0.3-0.9c0.5,0.2,1,0.2,1.5,0.1c0.6-0.2,1-0.5,1.3-1
			c0.2-0.3,0.3-0.7,0.3-1.1c0.8,0.1,1.7-0.3,2.1-1.1c0.2-0.3,0.3-0.6,0.3-0.9c1,0.3,2.1,0,2.6-1c0.2-0.4,0.3-0.8,0.3-1.3l3.5-1.3
			C32,10.9,32.2,10.6,32.1,10.2L32.1,10.2z M4.6,14.1c-0.2-0.1-0.4-0.3-0.4-0.6c-0.1-0.2,0-0.5,0.1-0.7l0.9-1.5
			c0.1-0.2,0.3-0.4,0.6-0.4c0.2-0.1,0.5,0,0.7,0.1c0.4,0.3,0.6,0.8,0.3,1.3l-0.9,1.5c0,0,0,0,0,0C5.6,14.2,5,14.3,4.6,14.1L4.6,14.1
			z M8.2,15.9c-0.3,0.4-0.8,0.6-1.3,0.3c-0.4-0.3-0.6-0.8-0.3-1.3l0.3-0.6c0,0,0,0,0,0l0.9-1.5c0,0,0,0,0,0l0,0c0,0,0,0,0,0l0.8-1.3
			c0.1-0.2,0.3-0.4,0.6-0.4c0.2-0.1,0.5,0,0.7,0.1c0.2,0.1,0.4,0.3,0.4,0.6c0.1,0.2,0,0.5-0.1,0.7l-0.2,0.4c0,0,0,0,0,0c0,0,0,0,0,0
			l-1.5,2.6l0,0l0,0c0,0,0,0,0,0L8.2,15.9z M11.1,17c-0.1,0.2-0.3,0.4-0.6,0.4c-0.2,0.1-0.5,0-0.7-0.1c-0.4-0.3-0.6-0.8-0.3-1.3l0,0
			c0,0,0,0,0,0c0,0,0,0,0,0l1.5-2.6c0,0,0,0,0,0c0.3-0.4,0.8-0.6,1.3-0.3c0.2,0.1,0.4,0.3,0.4,0.6c0.1,0.2,0,0.5-0.1,0.7l-0.3,0.6
			c0,0,0,0,0,0l-0.9,1.5c0,0,0,0,0,0c0,0,0,0,0,0L11.1,17z M12.8,18.3c-0.2-0.1-0.4-0.3-0.4-0.6c-0.1-0.2,0-0.5,0.1-0.7l0.9-1.5
			c0.3-0.4,0.8-0.6,1.3-0.3c0.4,0.3,0.6,0.8,0.3,1.3L14.1,18C13.8,18.4,13.3,18.6,12.8,18.3z M18.5,18.8c-0.3,0.4-0.8,0.6-1.3,0.3
			l-1.8-1l0.6-1c0.1-0.2,0.2-0.4,0.2-0.6l1.9,1.1c0,0,0,0,0,0s0,0,0,0l0,0C18.6,17.8,18.8,18.4,18.5,18.8L18.5,18.8z M27.8,11.2
			c-0.2-0.2-0.4-0.4-0.6-0.5c-0.2-0.1-1.1-0.6-2.5-1.5c-0.3-0.2-0.7-0.1-0.9,0.2c-0.2,0.3-0.1,0.7,0.2,0.9c1.5,0.9,2.3,1.4,2.6,1.5
			c0.4,0.3,0.6,0.8,0.3,1.3c-0.3,0.4-0.8,0.6-1.3,0.3l-1.3-0.8c0,0,0,0,0,0l0,0l-5-2.9c-0.3-0.2-0.7-0.1-0.9,0.2
			c-0.2,0.3-0.1,0.7,0.2,0.9l5,2.9c0,0,0,0,0,0c0,0,0,0,0,0l0,0c0.4,0.3,0.6,0.8,0.3,1.3c-0.3,0.4-0.8,0.6-1.3,0.3l-0.9-0.5
			c0,0,0,0,0,0l0,0l-4.4-2.5c-0.3-0.2-0.7-0.1-0.9,0.2c-0.2,0.3-0.1,0.7,0.2,0.9l4.4,2.5c0,0,0,0,0,0c0.4,0.3,0.6,0.8,0.3,1.3
			c-0.1,0.2-0.3,0.4-0.6,0.4c-0.2,0.1-0.5,0-0.7-0.1l-1.5-0.9c0,0,0,0,0,0l0,0L16,14.9c-0.2-0.3-0.4-0.6-0.8-0.8
			c-0.4-0.2-0.8-0.3-1.3-0.3c0-0.2,0-0.3-0.1-0.5c-0.2-0.6-0.5-1-1-1.3c-0.4-0.2-0.9-0.3-1.4-0.3c0-0.1,0-0.2-0.1-0.4
			c-0.2-0.6-0.5-1-1-1.3c-0.9-0.5-2.1-0.3-2.7,0.5C7.5,10.3,7.3,10,7,9.9C6.5,9.6,5.9,9.5,5.3,9.7c-0.6,0.2-1,0.5-1.3,1l-0.4,0.7
			L1.4,10l2.9-7.6l2.5,0.7c0.1,0,0.2,0,0.3,0l5.7-1.7c0.7-0.2,1.1-0.2,1.7,0.1l0.4,0.2L12.6,3c-1,0.6-1.4,1.9-0.8,3
			c0.6,1,1.9,1.4,3,0.8c0.6-0.3,1.5-0.7,2.1-0.9c0.5,0.3,1.5,0.9,2.3,1.4C19.4,7.4,19.8,7.3,20,7c0.2-0.3,0.1-0.7-0.2-0.9
			c-0.7-0.4-1.4-0.8-1.8-1.1c-0.2-0.1-0.4-0.2-0.5-0.3c-0.3-0.2-0.3-0.2-0.5-0.2c-0.1,0-0.1,0-0.2,0c-0.7,0.3-1.8,0.7-2.5,1.1
			c-0.5,0.2-1.1,0.1-1.3-0.3c-0.3-0.4-0.1-1,0.3-1.3l4.4-2.6c0.5-0.3,1-0.3,1.7-0.1L25,3.1c0.1,0,0.2,0,0.3,0l2.8-0.6l2.6,7.5
			L27.8,11.2z"/>
		<path class="st1" d="M21.9,7.5L21.9,7.5c-0.3,0-0.6,0.3-0.6,0.6s0.3,0.6,0.6,0.6s0.6-0.3,0.6-0.6S22.2,7.5,21.9,7.5z"/>
	</g>
</g>
</svg>
