<?xml version="1.0" encoding="utf-8"?>
<!-- Generator: Adobe Illustrator 22.0.0, SVG Export Plug-In . SVG Version: 6.00 Build 0)  -->
<svg version="1.1" id="Capa_1" xmlns="http://www.w3.org/2000/svg" xmlns:xlink="http://www.w3.org/1999/xlink" x="0px" y="0px"
	 viewBox="0 0 32.2 31.7" style="enable-background:new 0 0 32.2 31.7;" xml:space="preserve">
<style type="text/css">
	.st0{fill:#F7F7F7;}
	.st1{fill:#FFFFFF;}
	.st2{fill:#6DB1E4;}
	.st3{fill:#013C74;}
	.st4{opacity:0.85;fill:#013C74;}
	.st5{opacity:0.79;fill:#FFFFFF;}
	.st6{fill:#2E2E2E;}
	.st7{fill:#263238;}
	.st8{fill:#A78E80;}
	.st9{fill:#07849B;}
	.st10{fill:#0A0A0A;}
	.st11{fill:#079DC4;}
	.st12{fill:#FFFFFF;stroke:#AFAFAF;stroke-width:1.0617;stroke-miterlimit:10;}
	.st13{fill:#FFFFFF;stroke:#AFAFAF;stroke-miterlimit:10;}
	.st14{fill:#FFBE9D;}
	.st15{fill:#EB996E;}
	.st16{opacity:0.2;}
	.st17{fill:#FBFBFB;}
	.st18{opacity:0.6;}
	.st19{opacity:0.6;fill:#FFFFFF;}
	.st20{fill:#E0E0E0;}
	.st21{fill:#5B5B5B;}
	.st22{fill:#FAFAFA;}
	.st23{fill:#455A64;}
	.st24{fill:none;stroke:#013C74;stroke-width:3;stroke-linecap:round;stroke-linejoin:round;stroke-miterlimit:10;}
	.st25{fill:none;stroke:#FFFFFF;stroke-width:3;stroke-linecap:round;stroke-linejoin:round;stroke-miterlimit:10;}
	.st26{fill:#B9B9B9;}
	.st27{fill:#E9E9E9;}
	.st28{opacity:0.3;fill:#6DB1E4;}
	.st29{fill:#E7AF23;}
	.st30{fill:none;stroke:#E9E9E9;stroke-miterlimit:10;}
	.st31{fill:#CD631B;}
	.st32{fill:#57A41B;}
	.st33{clip-path:url(#SVGID_10_);}
	.st34{fill:#7DE213;}
	.st35{fill:url(#SVGID_13_);}
	.st36{fill:#B2B2B2;}
	.st37{fill:#284266;}
	.st38{fill:#149FBF;}
	.st39{fill:url(#SVGID_14_);}
	.st40{fill:#F2B606;}
	.st41{fill:url(#SVGID_15_);}
	.st42{fill:#088F9E;}
	.st43{fill:url(#SVGID_16_);}
	.st44{fill:#098F9E;}
	.st45{fill:url(#SVGID_17_);}
	.st46{fill:url(#SVGID_18_);}
	.st47{fill:#00CB9A;}
	.st48{fill:url(#SVGID_19_);}
	.st49{fill:#5059AA;}
	.st50{fill:url(#SVGID_20_);}
	.st51{fill:#F19E05;}
	.st52{fill:url(#SVGID_21_);}
	.st53{fill:url(#SVGID_22_);}
	.st54{fill:url(#SVGID_23_);}
	.st55{fill:url(#SVGID_24_);}
	.st56{fill:url(#SVGID_25_);}
	.st57{fill:url(#SVGID_26_);}
	.st58{fill:url(#SVGID_27_);}
	.st59{fill:#0C5356;}
	.st60{fill:url(#SVGID_28_);}
	.st61{fill:url(#SVGID_29_);}
	.st62{fill:url(#SVGID_30_);}
	.st63{fill:url(#SVGID_31_);}
	.st64{fill:url(#SVGID_32_);}
	.st65{fill:url(#SVGID_33_);}
	.st66{fill:url(#SVGID_34_);}
	.st67{fill:url(#SVGID_35_);}
	.st68{fill:url(#SVGID_36_);}
	.st69{fill:url(#SVGID_37_);}
	.st70{fill:url(#SVGID_38_);}
	.st71{fill:url(#SVGID_39_);}
	.st72{fill:url(#SVGID_40_);}
	.st73{fill:url(#SVGID_41_);}
	.st74{fill:url(#SVGID_42_);}
	.st75{fill:url(#SVGID_43_);}
	.st76{fill:url(#SVGID_44_);}
	.st77{fill:url(#SVGID_45_);}
	.st78{fill:url(#SVGID_46_);}
	.st79{fill:url(#SVGID_47_);}
	.st80{fill:url(#SVGID_48_);}
	.st81{fill:url(#SVGID_49_);}
	.st82{fill:url(#SVGID_50_);}
	.st83{fill:url(#SVGID_51_);}
	.st84{fill:url(#SVGID_52_);}
	.st85{fill:url(#SVGID_53_);}
	.st86{fill:url(#SVGID_54_);}
	.st87{fill:url(#SVGID_55_);}
	.st88{fill:url(#SVGID_56_);}
	.st89{fill:url(#SVGID_57_);}
	.st90{fill:url(#SVGID_58_);}
	.st91{fill:#F8F8F8;}
	.st92{opacity:0.3;}
	.st93{opacity:0.78;}
	.st94{fill:#FFFFFF;stroke:#FFFFFF;stroke-width:0.15;stroke-miterlimit:10;}
	.st95{fill:none;stroke:#B9B9B9;stroke-miterlimit:10;}
	.st96{opacity:0.5;}
	.st97{opacity:0.5;fill:none;stroke:#B9B9B9;stroke-miterlimit:10;}
	.st98{fill:none;stroke:#E5E5E5;stroke-miterlimit:10;}
	.st99{fill:#FFFFFF;stroke:#BABABA;stroke-miterlimit:10;}
	.st100{fill:#FFFFFF;stroke:#BABABA;stroke-width:2;stroke-linecap:round;stroke-linejoin:round;stroke-miterlimit:10;}
	.st101{fill:none;stroke:#079DC4;stroke-width:0.8605;stroke-miterlimit:10;}
	.st102{fill:#1A1A1A;}
	.st103{fill:#222222;}
	.st104{fill:#868686;}
	.st105{fill:#94CEED;}
	.st106{fill:#C4E2EB;}
	.st107{fill:#0C0E0F;}
	.st108{fill:#1B1B1B;}
	.st109{fill:#262424;}
</style>
<g>
	<path class="st1" d="M31.7,18h-5.8V5.8c0-0.1-0.1-0.3-0.2-0.4l-5.3-5.3C20.4,0.1,20.2,0,20.1,0H0.5C0.2,0,0,0.2,0,0.5v25.4
		c0,0.3,0.2,0.5,0.5,0.5h19.6v4.8c0,0.3,0.2,0.5,0.5,0.5h11.1c0.3,0,0.5-0.2,0.5-0.5V18.5C32.2,18.2,32,18,31.7,18z M20.1,18.5v6.9
		h-19V1.1h18.8l4.2,4.2h-3.5V2.6h-1.1v3.2c0,0.3,0.2,0.5,0.5,0.5h4.8V18h-4.2C20.3,18,20.1,18.2,20.1,18.5z M31.2,30.7h-10V19h10
		V30.7z"/>
	<path class="st1" d="M22.7,24.3h1.6v1.1h-1.6V24.3z"/>
	<path class="st1" d="M25.4,24.3H27v1.1h-1.6V24.3z"/>
	<path class="st1" d="M28,24.3h1.6v1.1H28V24.3z"/>
	<path class="st1" d="M22.7,26.4h1.6v1.1h-1.6V26.4z"/>
	<path class="st1" d="M25.4,26.4H27v1.1h-1.6V26.4z"/>
	<path class="st1" d="M28,26.4h1.6v1.1H28V26.4z"/>
	<path class="st1" d="M22.7,28.5h1.6v1.1h-1.6V28.5z"/>
	<path class="st1" d="M25.4,28.5H27v1.1h-1.6V28.5z"/>
	<path class="st1" d="M28,28.5h1.6v1.1H28V28.5z"/>
	<path class="st1" d="M22.7,23.3h6.9c0.3,0,0.5-0.2,0.5-0.5v-2.1c0-0.3-0.2-0.5-0.5-0.5h-6.9c-0.3,0-0.5,0.2-0.5,0.5v2.1
		C22.2,23,22.4,23.3,22.7,23.3z M23.3,21.1h5.8v1.1h-5.8V21.1z"/>
	<path class="st1" d="M11.1,10.9l-3-3l3-3c0.2-0.2,0.2-0.5,0-0.7c-1-1-2.3-1.5-3.7-1.5S4.7,3.2,3.7,4.2c-1,1-1.5,2.3-1.5,3.7
		s0.5,2.7,1.5,3.7c1,1,2.3,1.5,3.7,1.5s2.7-0.5,3.7-1.5C11.3,11.5,11.3,11.1,11.1,10.9z M7.4,12.2c-1.1,0-2.2-0.4-3-1.2
		s-1.2-1.9-1.2-3s0.4-2.2,1.2-3s1.9-1.2,3-1.2c1,0,1.9,0.3,2.6,0.9l-3,3C6.8,7.8,6.8,8.1,7,8.3l3,3C9.3,11.8,8.4,12.2,7.4,12.2z"/>
	<path class="st1" d="M10.7,8.3l3.4,3.4c0.1,0.1,0.2,0.2,0.4,0.2s0.3-0.1,0.4-0.2c1-1,1.5-2.3,1.5-3.7s-0.5-2.7-1.5-3.7
		c-0.2-0.2-0.5-0.2-0.7,0l-3.4,3.4C10.5,7.8,10.5,8.1,10.7,8.3L10.7,8.3z M14.4,5.3C15,6.1,15.3,7,15.3,7.9s-0.3,1.9-0.9,2.6
		l-2.6-2.6L14.4,5.3z"/>
	<path class="st1" d="M4.8,17.4h1.1c0.3,0,0.5,0.2,0.5,0.5h1.1c0-0.9-0.7-1.6-1.6-1.6v-1.1H4.8v1.1c-0.9,0-1.6,0.7-1.6,1.6v0.5
		c0,0.9,0.7,1.6,1.6,1.6h1.1c0.3,0,0.5,0.2,0.5,0.5v0.5c0,0.3-0.2,0.5-0.5,0.5H4.8c-0.3,0-0.5-0.2-0.5-0.5H3.2
		c0,0.9,0.7,1.6,1.6,1.6v1.1h1.1v-1.1c0.9,0,1.6-0.7,1.6-1.6v-0.5c0-0.9-0.7-1.6-1.6-1.6H4.8c-0.3,0-0.5-0.2-0.5-0.5V18
		C4.2,17.7,4.5,17.4,4.8,17.4z"/>
	<path class="st1" d="M17.4,18.5c0-0.3-0.2-0.5-0.5-0.5h-1.6v-1.1c0-0.3-0.2-0.5-0.5-0.5h-2.1c-0.3,0-0.5,0.2-0.5,0.5v2.6h-1.6
		c-0.3,0-0.5,0.2-0.5,0.5v2.6H9v1.1h1.6h2.1h2.1h2.1h1.6v-1.1h-1.1V18.5z M11.1,20.6h1.1v2.1h-1.1V20.6z M13.2,20.1v-2.6h1.1v1.1
		v4.2h-1.1V20.1z M15.3,22.7V19h1.1v3.7H15.3z"/>
	<path class="st1" d="M18,8.5h5.3v1.1H18V8.5z"/>
	<path class="st1" d="M18,10.6h5.3v1.1H18V10.6z"/>
	<path class="st1" d="M18,12.7h5.3v1.1H18V12.7z"/>
	<path class="st1" d="M18,14.8H19v1.1H18V14.8z"/>
	<path class="st1" d="M20.1,14.8h1.1v1.1h-1.1V14.8z"/>
	<path class="st1" d="M22.2,14.8h1.1v1.1h-1.1V14.8z"/>
</g>
</svg>
