<svg id="Capa_1" data-name="Capa 1" xmlns="http://www.w3.org/2000/svg" viewBox="0 0 28.19 28.19">
  <defs>
    <style>
      .cls-1 {
        fill: #6db1e4;
      }

      .cls-2 {
        fill: #fff;
      }
    </style>
  </defs>
  <title>Atenea</title>
  <g>
    <circle class="cls-1" cx="14.09" cy="14.09" r="14.09"/>
    <g>
      <polygon class="cls-2" points="15.79 14.15 19.3 16.36 19.3 11.84 15.79 14.15"/>
      <polygon class="cls-2" points="8.89 11.84 8.89 16.36 12.4 14.15 8.89 11.84"/>
      <path class="cls-2" d="M18.65,10.52H9.54a.64.64,0,0,0-.63.55l5.18,3.41,5.19-3.41A.64.64,0,0,0,18.65,10.52Z"/>
      <path class="cls-2" d="M15.19,14.54l-.92.61a.35.35,0,0,1-.18,0,.41.41,0,0,1-.18,0L13,14.54,8.91,17.12a.64.64,0,0,0,.63.55h9.11a.64.64,0,0,0,.63-.55Z"/>
    </g>
  </g>
</svg>
