<?xml version="1.0" encoding="utf-8"?>
<!-- Generator: Adobe Illustrator 22.0.0, SVG Export Plug-In . SVG Version: 6.00 Build 0)  -->
<svg version="1.1" id="Capa_1" xmlns="http://www.w3.org/2000/svg" xmlns:xlink="http://www.w3.org/1999/xlink" x="0px" y="0px"
	 viewBox="0 0 31 31" style="enable-background:new 0 0 31 31;" xml:space="preserve">
<style type="text/css">
	.st0{fill:#F7F7F7;}
	.st1{fill:#FFFFFF;}
	.st2{fill:#6DB1E4;}
	.st3{fill:#013C74;}
	.st4{opacity:0.85;fill:#013C74;}
	.st5{opacity:0.79;fill:#FFFFFF;}
	.st6{fill:#2E2E2E;}
	.st7{fill:#263238;}
	.st8{fill:#A78E80;}
	.st9{fill:#07849B;}
	.st10{fill:#0A0A0A;}
	.st11{fill:#079DC4;}
	.st12{fill:#FFFFFF;stroke:#AFAFAF;stroke-width:1.0617;stroke-miterlimit:10;}
	.st13{fill:#FFFFFF;stroke:#AFAFAF;stroke-miterlimit:10;}
	.st14{fill:#FFBE9D;}
	.st15{fill:#EB996E;}
	.st16{opacity:0.2;}
	.st17{fill:#FBFBFB;}
	.st18{opacity:0.6;}
	.st19{opacity:0.6;fill:#FFFFFF;}
	.st20{fill:#E0E0E0;}
	.st21{fill:#5B5B5B;}
	.st22{fill:#FAFAFA;}
	.st23{fill:#455A64;}
	.st24{fill:none;stroke:#013C74;stroke-width:3;stroke-linecap:round;stroke-linejoin:round;stroke-miterlimit:10;}
	.st25{fill:none;stroke:#FFFFFF;stroke-width:3;stroke-linecap:round;stroke-linejoin:round;stroke-miterlimit:10;}
	.st26{fill:#B9B9B9;}
	.st27{fill:#E9E9E9;}
	.st28{opacity:0.3;fill:#6DB1E4;}
	.st29{fill:#E7AF23;}
	.st30{fill:none;stroke:#E9E9E9;stroke-miterlimit:10;}
	.st31{fill:#CD631B;}
	.st32{fill:#57A41B;}
	.st33{clip-path:url(#SVGID_10_);}
	.st34{fill:#7DE213;}
	.st35{fill:url(#SVGID_13_);}
	.st36{fill:#B2B2B2;}
	.st37{fill:#284266;}
	.st38{fill:#149FBF;}
	.st39{fill:url(#SVGID_14_);}
	.st40{fill:#F2B606;}
	.st41{fill:url(#SVGID_15_);}
	.st42{fill:#088F9E;}
	.st43{fill:url(#SVGID_16_);}
	.st44{fill:#098F9E;}
	.st45{fill:url(#SVGID_17_);}
	.st46{fill:url(#SVGID_18_);}
	.st47{fill:#00CB9A;}
	.st48{fill:url(#SVGID_19_);}
	.st49{fill:#5059AA;}
	.st50{fill:url(#SVGID_20_);}
	.st51{fill:#F19E05;}
	.st52{fill:url(#SVGID_21_);}
	.st53{fill:url(#SVGID_22_);}
	.st54{fill:url(#SVGID_23_);}
	.st55{fill:url(#SVGID_24_);}
	.st56{fill:url(#SVGID_25_);}
	.st57{fill:url(#SVGID_26_);}
	.st58{fill:url(#SVGID_27_);}
	.st59{fill:#0C5356;}
	.st60{fill:url(#SVGID_28_);}
	.st61{fill:url(#SVGID_29_);}
	.st62{fill:url(#SVGID_30_);}
	.st63{fill:url(#SVGID_31_);}
	.st64{fill:url(#SVGID_32_);}
	.st65{fill:url(#SVGID_33_);}
	.st66{fill:url(#SVGID_34_);}
	.st67{fill:url(#SVGID_35_);}
	.st68{fill:url(#SVGID_36_);}
	.st69{fill:url(#SVGID_37_);}
	.st70{fill:url(#SVGID_38_);}
	.st71{fill:url(#SVGID_39_);}
	.st72{fill:url(#SVGID_40_);}
	.st73{fill:url(#SVGID_41_);}
	.st74{fill:url(#SVGID_42_);}
	.st75{fill:url(#SVGID_43_);}
	.st76{fill:url(#SVGID_44_);}
	.st77{fill:url(#SVGID_45_);}
	.st78{fill:url(#SVGID_46_);}
	.st79{fill:url(#SVGID_47_);}
	.st80{fill:url(#SVGID_48_);}
	.st81{fill:url(#SVGID_49_);}
	.st82{fill:url(#SVGID_50_);}
	.st83{fill:url(#SVGID_51_);}
	.st84{fill:url(#SVGID_52_);}
	.st85{fill:url(#SVGID_53_);}
	.st86{fill:url(#SVGID_54_);}
	.st87{fill:url(#SVGID_55_);}
	.st88{fill:url(#SVGID_56_);}
	.st89{fill:url(#SVGID_57_);}
	.st90{fill:url(#SVGID_58_);}
	.st91{fill:#F8F8F8;}
	.st92{opacity:0.3;}
	.st93{opacity:0.78;}
	.st94{fill:#FFFFFF;stroke:#FFFFFF;stroke-width:0.15;stroke-miterlimit:10;}
	.st95{fill:none;stroke:#B9B9B9;stroke-miterlimit:10;}
	.st96{opacity:0.5;}
	.st97{opacity:0.5;fill:none;stroke:#B9B9B9;stroke-miterlimit:10;}
	.st98{fill:none;stroke:#E5E5E5;stroke-miterlimit:10;}
	.st99{fill:#FFFFFF;stroke:#BABABA;stroke-miterlimit:10;}
	.st100{fill:#FFFFFF;stroke:#BABABA;stroke-width:2;stroke-linecap:round;stroke-linejoin:round;stroke-miterlimit:10;}
	.st101{fill:none;stroke:#079DC4;stroke-width:0.8605;stroke-miterlimit:10;}
	.st102{fill:#1A1A1A;}
	.st103{fill:#222222;}
	.st104{fill:#868686;}
	.st105{fill:#94CEED;}
	.st106{fill:#C4E2EB;}
	.st107{fill:#0C0E0F;}
	.st108{fill:#1B1B1B;}
	.st109{fill:#262424;}
</style>
<g>
	<g>
		<g>
			<path class="st1" d="M7.1,10.6c-0.2-0.2-0.6-0.2-0.9,0c-0.2,0.2-0.2,0.6,0,0.9c0.2,0.2,0.6,0.2,0.9,0C7.4,11.2,7.4,10.8,7.1,10.6
				z"/>
		</g>
	</g>
	<g>
		<g>
			<path class="st1" d="M15.3,27.1c0.3-0.4,0.4-0.8,0.4-1.3c0-1.2-1-2.1-2.1-2.1H3.3c-0.6,0-1.1,0.2-1.5,0.6
				c-0.4,0.4-0.6,0.9-0.6,1.5c0,0.5,0.2,0.9,0.4,1.3c-1,0.5-1.6,1.5-1.6,2.7v0.6C0,30.7,0.3,31,0.6,31h15.7c0.3,0,0.6-0.3,0.6-0.6
				v-0.6C17,28.6,16.3,27.6,15.3,27.1z M2.7,25.2C2.9,25.1,3.1,25,3.3,25h10.3c0.5,0,0.9,0.4,0.9,0.9c0,0.2-0.1,0.5-0.3,0.6
				c-0.2,0.2-0.4,0.3-0.6,0.3H3.3c-0.5,0-0.9-0.4-0.9-0.9C2.4,25.6,2.5,25.4,2.7,25.2z M1.2,29.8C1.2,28.8,2,28,3,28h0.3h10.3h0.3
				c1,0,1.8,0.8,1.8,1.8H1.2z"/>
		</g>
	</g>
	<g>
		<g>
			<path class="st1" d="M30.5,25.4c-0.2-0.3-0.5-0.6-0.7-0.8l-2.8-2.5c0,0,0-0.1-0.1-0.1c0,0-0.1-0.1-0.2-0.1l-1.7-1.5L17,13.5
				c0.3-0.3,0.5-0.8,0.5-1.3c0-0.5-0.2-0.9-0.5-1.3c-0.1-0.1-0.3-0.3-0.5-0.4l0.7-0.7c0.2,0.1,0.4,0.1,0.6,0.1
				c0.6,0,1.2-0.2,1.7-0.7c0.5-0.5,0.7-1.1,0.7-1.7c0-0.6-0.3-1.3-0.7-1.7l-5.1-5.1C14,0.3,13.3,0,12.7,0c-0.6,0-1.3,0.3-1.7,0.7
				c-0.6,0.6-0.8,1.5-0.6,2.3l-7.3,7.3c-0.2-0.1-0.4-0.1-0.6-0.1c-0.6,0-1.3,0.3-1.7,0.7c-0.9,0.9-0.9,2.5,0,3.4l5.1,5.1
				c0.5,0.5,1.1,0.7,1.7,0.7c0.6,0,1.2-0.2,1.7-0.7c0.6-0.6,0.8-1.5,0.6-2.3l0.7-0.7c0.1,0.2,0.2,0.4,0.4,0.5
				c0.3,0.3,0.8,0.5,1.3,0.5c0.5,0,0.9-0.2,1.3-0.5l8.4,9.7c0,0,0.1,0.1,0.1,0.1c0,0,0,0,0,0l2.5,2.9c0.1,0.1,0.1,0.1,0.2,0.2
				c0.7,0.7,1.6,1.1,2.6,1.1c0.2,0,0.3,0,0.5,0c1.1-0.2,2.1-0.8,2.7-1.9C31.2,28,31.2,26.5,30.5,25.4z M11.8,1.6
				c0.2-0.2,0.5-0.4,0.9-0.4c0.3,0,0.6,0.1,0.9,0.4l5.1,5.1c0.2,0.2,0.4,0.5,0.4,0.9c0,0.3-0.1,0.6-0.4,0.9c-0.5,0.5-1.2,0.5-1.7,0
				l-5.1-5.1c0,0,0,0,0,0C11.4,2.8,11.4,2,11.8,1.6z M8.4,18.7c-0.5,0.5-1.2,0.5-1.7,0l-5.1-5.1c-0.5-0.5-0.5-1.2,0-1.7
				c0.2-0.2,0.5-0.4,0.9-0.4c0.3,0,0.6,0.1,0.9,0.4L8.4,17C8.9,17.5,8.9,18.2,8.4,18.7z M11,14.4l-1.7,1.7L4.1,11L11,4.1l5.1,5.1
				L14.4,11c0,0,0,0,0,0L11,14.4C11,14.4,11,14.4,11,14.4z M13.1,15.7C13.1,15.7,13.1,15.7,13.1,15.7l-0.4,0.4
				c-0.1,0.1-0.3,0.2-0.4,0.2c-0.2,0-0.3-0.1-0.4-0.2c-0.1-0.1-0.2-0.3-0.2-0.4c0-0.2,0.1-0.3,0.2-0.4l3.4-3.4
				c0.2-0.2,0.6-0.2,0.9,0c0.1,0.1,0.2,0.3,0.2,0.4c0,0.2-0.1,0.3-0.2,0.4l-0.4,0.4c0,0,0,0,0,0L13.1,15.7z M14.4,16.2l1.8-1.8
				l7.5,6.5l-2.7,2.7L14.4,16.2z M21.7,24.6l2.9-2.9l0.9,0.8l-3,3L21.7,24.6z M29.5,28.5c-0.4,0.7-1.1,1.2-1.8,1.3
				c-0.8,0.1-1.5-0.1-2-0.7c0,0-0.1-0.1-0.1-0.1c0,0,0,0,0,0l-2.2-2.5l3.1-3.1l2.5,2.2c0,0,0,0,0,0c0.2,0.2,0.4,0.4,0.5,0.6
				C29.9,26.8,29.9,27.8,29.5,28.5z"/>
		</g>
	</g>
	<g>
		<g>
			<path class="st1" d="M11.4,6.3c-0.2-0.2-0.6-0.2-0.9,0L8,8.8C7.8,9.1,7.8,9.5,8,9.7c0.1,0.1,0.3,0.2,0.4,0.2s0.3-0.1,0.4-0.2
				l2.6-2.6C11.7,6.9,11.7,6.5,11.4,6.3z"/>
		</g>
	</g>
</g>
</svg>
