<?xml version="1.0" encoding="utf-8"?>
<!-- Generator: Adobe Illustrator 22.0.0, SVG Export Plug-In . SVG Version: 6.00 Build 0)  -->
<svg version="1.1" id="Capa_1" xmlns="http://www.w3.org/2000/svg" xmlns:xlink="http://www.w3.org/1999/xlink" x="0px" y="0px"
	 viewBox="0 0 26.9 33.7" style="enable-background:new 0 0 26.9 33.7;" xml:space="preserve">
<style type="text/css">
	.st0{fill:#F7F7F7;}
	.st1{fill:#FFFFFF;}
	.st2{fill:#6DB1E4;}
	.st3{fill:#013C74;}
	.st4{opacity:0.85;fill:#013C74;}
	.st5{opacity:0.79;fill:#FFFFFF;}
	.st6{fill:#2E2E2E;}
	.st7{fill:#263238;}
	.st8{fill:#A78E80;}
	.st9{fill:#07849B;}
	.st10{fill:#0A0A0A;}
	.st11{fill:#079DC4;}
	.st12{fill:#FFFFFF;stroke:#AFAFAF;stroke-width:1.0617;stroke-miterlimit:10;}
	.st13{fill:#FFFFFF;stroke:#AFAFAF;stroke-miterlimit:10;}
	.st14{fill:#FFBE9D;}
	.st15{fill:#EB996E;}
	.st16{opacity:0.2;}
	.st17{fill:#FBFBFB;}
	.st18{opacity:0.6;}
	.st19{opacity:0.6;fill:#FFFFFF;}
	.st20{fill:#E0E0E0;}
	.st21{fill:#5B5B5B;}
	.st22{fill:#FAFAFA;}
	.st23{fill:#455A64;}
	.st24{fill:none;stroke:#013C74;stroke-width:3;stroke-linecap:round;stroke-linejoin:round;stroke-miterlimit:10;}
	.st25{fill:none;stroke:#FFFFFF;stroke-width:3;stroke-linecap:round;stroke-linejoin:round;stroke-miterlimit:10;}
	.st26{fill:#B9B9B9;}
	.st27{fill:#E9E9E9;}
	.st28{opacity:0.3;fill:#6DB1E4;}
	.st29{fill:#E7AF23;}
	.st30{fill:none;stroke:#E9E9E9;stroke-miterlimit:10;}
	.st31{fill:#CD631B;}
	.st32{fill:#57A41B;}
	.st33{clip-path:url(#SVGID_10_);}
	.st34{fill:#7DE213;}
	.st35{fill:url(#SVGID_13_);}
	.st36{fill:#B2B2B2;}
	.st37{fill:#284266;}
	.st38{fill:#149FBF;}
	.st39{fill:url(#SVGID_14_);}
	.st40{fill:#F2B606;}
	.st41{fill:url(#SVGID_15_);}
	.st42{fill:#088F9E;}
	.st43{fill:url(#SVGID_16_);}
	.st44{fill:#098F9E;}
	.st45{fill:url(#SVGID_17_);}
	.st46{fill:url(#SVGID_18_);}
	.st47{fill:#00CB9A;}
	.st48{fill:url(#SVGID_19_);}
	.st49{fill:#5059AA;}
	.st50{fill:url(#SVGID_20_);}
	.st51{fill:#F19E05;}
	.st52{fill:url(#SVGID_21_);}
	.st53{fill:url(#SVGID_22_);}
	.st54{fill:url(#SVGID_23_);}
	.st55{fill:url(#SVGID_24_);}
	.st56{fill:url(#SVGID_25_);}
	.st57{fill:url(#SVGID_26_);}
	.st58{fill:url(#SVGID_27_);}
	.st59{fill:#0C5356;}
	.st60{fill:url(#SVGID_28_);}
	.st61{fill:url(#SVGID_29_);}
	.st62{fill:url(#SVGID_30_);}
	.st63{fill:url(#SVGID_31_);}
	.st64{fill:url(#SVGID_32_);}
	.st65{fill:url(#SVGID_33_);}
	.st66{fill:url(#SVGID_34_);}
	.st67{fill:url(#SVGID_35_);}
	.st68{fill:url(#SVGID_36_);}
	.st69{fill:url(#SVGID_37_);}
	.st70{fill:url(#SVGID_38_);}
	.st71{fill:url(#SVGID_39_);}
	.st72{fill:url(#SVGID_40_);}
	.st73{fill:url(#SVGID_41_);}
	.st74{fill:url(#SVGID_42_);}
	.st75{fill:url(#SVGID_43_);}
	.st76{fill:url(#SVGID_44_);}
	.st77{fill:url(#SVGID_45_);}
	.st78{fill:url(#SVGID_46_);}
	.st79{fill:url(#SVGID_47_);}
	.st80{fill:url(#SVGID_48_);}
	.st81{fill:url(#SVGID_49_);}
	.st82{fill:url(#SVGID_50_);}
	.st83{fill:url(#SVGID_51_);}
	.st84{fill:url(#SVGID_52_);}
	.st85{fill:url(#SVGID_53_);}
	.st86{fill:url(#SVGID_54_);}
	.st87{fill:url(#SVGID_55_);}
	.st88{fill:url(#SVGID_56_);}
	.st89{fill:url(#SVGID_57_);}
	.st90{fill:url(#SVGID_58_);}
	.st91{fill:#F8F8F8;}
	.st92{opacity:0.3;}
	.st93{opacity:0.78;}
	.st94{fill:#FFFFFF;stroke:#FFFFFF;stroke-width:0.15;stroke-miterlimit:10;}
	.st95{fill:none;stroke:#B9B9B9;stroke-miterlimit:10;}
	.st96{opacity:0.5;}
	.st97{opacity:0.5;fill:none;stroke:#B9B9B9;stroke-miterlimit:10;}
	.st98{fill:none;stroke:#E5E5E5;stroke-miterlimit:10;}
	.st99{fill:#FFFFFF;stroke:#BABABA;stroke-miterlimit:10;}
	.st100{fill:#FFFFFF;stroke:#BABABA;stroke-width:2;stroke-linecap:round;stroke-linejoin:round;stroke-miterlimit:10;}
	.st101{fill:none;stroke:#079DC4;stroke-width:0.8605;stroke-miterlimit:10;}
	.st102{fill:#1A1A1A;}
	.st103{fill:#222222;}
	.st104{fill:#868686;}
	.st105{fill:#94CEED;}
	.st106{fill:#C4E2EB;}
	.st107{fill:#0C0E0F;}
	.st108{fill:#1B1B1B;}
	.st109{fill:#262424;}
</style>
<g>
	<path class="st1" d="M11.3,1.2l-0.9,1.6H1.7C0.8,2.8,0,3.6,0,4.5V32c0,0.9,0.8,1.7,1.7,1.7h23.6c0.9,0,1.7-0.8,1.7-1.7V4.5
		c0-0.9-0.8-1.7-1.7-1.7h-8.7l-0.9-1.6c-0.7-1.2-2.3-1.6-3.5-0.9C11.8,0.6,11.5,0.9,11.3,1.2z M25.2,3.9c0.3,0,0.6,0.3,0.6,0.6V32
		c0,0.3-0.3,0.6-0.6,0.6H1.7c-0.3,0-0.6-0.3-0.6-0.6V4.5c0-0.3,0.3-0.6,0.6-0.6h8L9,5H2.8C2.5,5,2.2,5.3,2.2,5.6v25.2
		c0,0.3,0.3,0.6,0.6,0.6h21.3c0.3,0,0.6-0.3,0.6-0.6V5.6c0-0.3-0.3-0.6-0.6-0.6h-6.2l-0.7-1.1H25.2z M10.3,8.4h6.3
		c1,0,1.9-0.8,1.9-1.9c0-0.1,0-0.2,0-0.4h5.1v24.1H3.4V6.2h5.1c-0.2,1,0.5,2,1.5,2.2C10,8.4,10.2,8.4,10.3,8.4z M13.5,1.1
		c0.5,0,1,0.3,1.2,0.7l2.6,4.3c0.2,0.4,0.1,0.8-0.3,1c-0.1,0.1-0.3,0.1-0.4,0.1h-6.3C9.9,7.3,9.5,7,9.5,6.5c0-0.1,0-0.3,0.1-0.4
		l2.6-4.3C12.5,1.4,13,1.1,13.5,1.1z"/>
	<path class="st1" d="M10.8,14.5l-3.9,3.9l0.8,0.8l1.8-1.8v2.6H6.2v-3.4h1.7v-1.1H5.6C5.3,15.4,5,15.7,5,16v4.5
		C5,20.8,5.3,21,5.6,21h4.5c0.3,0,0.6-0.3,0.6-0.6v-4.3l1-1L10.8,14.5z"/>
	<path class="st1" d="M12.3,16.5H14v1.1h-1.7V16.5z"/>
	<path class="st1" d="M15.1,16.5h6.2v1.1h-6.2V16.5z"/>
	<path class="st1" d="M17.4,18.8h1.7v1.1h-1.7V18.8z"/>
	<path class="st1" d="M12.3,18.8h3.9v1.1h-3.9V18.8z"/>
	<path class="st1" d="M6.9,11.7l0.8,0.8l1.8-1.8v2.6H6.2V9.8h1.7V8.7H5.6C5.3,8.7,5,8.9,5,9.3v4.5c0,0.3,0.3,0.6,0.6,0.6h4.5
		c0.3,0,0.6-0.3,0.6-0.6V9.5l1-1l-0.8-0.8L6.9,11.7z"/>
	<path class="st1" d="M12.3,9.8H14v1.1h-1.7V9.8z"/>
	<path class="st1" d="M15.1,9.8h6.2v1.1h-6.2V9.8z"/>
	<path class="st1" d="M17.4,12.1h1.7v1.1h-1.7V12.1z"/>
	<path class="st1" d="M12.3,12.1h3.9v1.1h-3.9V12.1z"/>
	<path class="st1" d="M7.7,5.7l1.8-1.8v2.6H6.2V3.1h1.7V2H5.6C5.3,2,5,2.2,5,2.5V7c0,0.3,0.3,0.6,0.6,0.6h4.5c0.3,0,0.6-0.3,0.6-0.6
		V2.8l1-1L10.8,1L6.9,4.9L7.7,5.7z"/>
	<path class="st1" d="M12.3,3.1H14v1.1h-1.7V3.1z"/>
	<path class="st1" d="M15.1,3.1h6.2v1.1h-6.2V3.1z"/>
	<path class="st1" d="M17.4,5.3h1.7v1.1h-1.7V5.3z"/>
	<path class="st1" d="M12.3,5.3h3.9v1.1h-3.9V5.3z"/>
</g>
</svg>
