<?xml version="1.0" encoding="utf-8"?>
<!-- Generator: Adobe Illustrator 22.0.0, SVG Export Plug-In . SVG Version: 6.00 Build 0)  -->
<svg version="1.1" id="Capa_1" xmlns="http://www.w3.org/2000/svg" xmlns:xlink="http://www.w3.org/1999/xlink" x="0px" y="0px"
	 viewBox="0 0 149.9 212.2" style="enable-background:new 0 0 149.9 212.2;" xml:space="preserve">
<style type="text/css">
	.st0{fill:#F7F7F7;}
	.st1{fill:#FFFFFF;}
	.st2{fill:#6DB1E4;}
	.st3{fill:#013C74;}
	.st4{opacity:0.85;fill:#013C74;}
	.st5{opacity:0.79;fill:#FFFFFF;}
	.st6{fill:#2E2E2E;}
	.st7{fill:#263238;}
	.st8{fill:#A78E80;}
	.st9{fill:#07849B;}
	.st10{fill:#0A0A0A;}
	.st11{fill:#079DC4;}
	.st12{fill:#FFFFFF;stroke:#AFAFAF;stroke-width:1.0617;stroke-miterlimit:10;}
	.st13{fill:#FFFFFF;stroke:#AFAFAF;stroke-miterlimit:10;}
	.st14{fill:#FFBE9D;}
	.st15{fill:#EB996E;}
	.st16{opacity:0.2;}
	.st17{fill:#FBFBFB;}
	.st18{opacity:0.6;}
	.st19{opacity:0.6;fill:#FFFFFF;}
	.st20{fill:#E0E0E0;}
	.st21{fill:#5B5B5B;}
	.st22{fill:#FAFAFA;}
	.st23{fill:#455A64;}
	.st24{fill:none;stroke:#013C74;stroke-width:3;stroke-linecap:round;stroke-linejoin:round;stroke-miterlimit:10;}
	.st25{fill:none;stroke:#FFFFFF;stroke-width:3;stroke-linecap:round;stroke-linejoin:round;stroke-miterlimit:10;}
	.st26{fill:#B9B9B9;}
	.st27{fill:#E9E9E9;}
	.st28{opacity:0.3;fill:#6DB1E4;}
	.st29{fill:#E7AF23;}
	.st30{fill:none;stroke:#E9E9E9;stroke-miterlimit:10;}
	.st31{fill:#CD631B;}
	.st32{fill:#57A41B;}
	.st33{clip-path:url(#SVGID_10_);}
	.st34{fill:#7DE213;}
	.st35{fill:url(#SVGID_13_);}
	.st36{fill:#B2B2B2;}
	.st37{fill:#284266;}
	.st38{fill:#149FBF;}
	.st39{fill:url(#SVGID_14_);}
	.st40{fill:#F2B606;}
	.st41{fill:url(#SVGID_15_);}
	.st42{fill:#088F9E;}
	.st43{fill:url(#SVGID_16_);}
	.st44{fill:#098F9E;}
	.st45{fill:url(#SVGID_17_);}
	.st46{fill:url(#SVGID_18_);}
	.st47{fill:#00CB9A;}
	.st48{fill:url(#SVGID_19_);}
	.st49{fill:#5059AA;}
	.st50{fill:url(#SVGID_20_);}
	.st51{fill:#F19E05;}
	.st52{fill:url(#SVGID_21_);}
	.st53{fill:url(#SVGID_22_);}
	.st54{fill:url(#SVGID_23_);}
	.st55{fill:url(#SVGID_24_);}
	.st56{fill:url(#SVGID_25_);}
	.st57{fill:url(#SVGID_26_);}
	.st58{fill:url(#SVGID_27_);}
	.st59{fill:#0C5356;}
	.st60{fill:url(#SVGID_28_);}
	.st61{fill:url(#SVGID_29_);}
	.st62{fill:url(#SVGID_30_);}
	.st63{fill:url(#SVGID_31_);}
	.st64{fill:url(#SVGID_32_);}
	.st65{fill:url(#SVGID_33_);}
	.st66{fill:url(#SVGID_34_);}
	.st67{fill:url(#SVGID_35_);}
	.st68{fill:url(#SVGID_36_);}
	.st69{fill:url(#SVGID_37_);}
	.st70{fill:url(#SVGID_38_);}
	.st71{fill:url(#SVGID_39_);}
	.st72{fill:url(#SVGID_40_);}
	.st73{fill:url(#SVGID_41_);}
	.st74{fill:url(#SVGID_42_);}
	.st75{fill:url(#SVGID_43_);}
	.st76{fill:url(#SVGID_44_);}
	.st77{fill:url(#SVGID_45_);}
	.st78{fill:url(#SVGID_46_);}
	.st79{fill:url(#SVGID_47_);}
	.st80{fill:url(#SVGID_48_);}
	.st81{fill:url(#SVGID_49_);}
	.st82{fill:url(#SVGID_50_);}
	.st83{fill:url(#SVGID_51_);}
	.st84{fill:url(#SVGID_52_);}
	.st85{fill:url(#SVGID_53_);}
	.st86{fill:url(#SVGID_54_);}
	.st87{fill:url(#SVGID_55_);}
	.st88{fill:url(#SVGID_56_);}
	.st89{fill:url(#SVGID_57_);}
	.st90{fill:url(#SVGID_58_);}
	.st91{fill:#F8F8F8;}
	.st92{opacity:0.3;}
	.st93{opacity:0.78;}
	.st94{fill:#FFFFFF;stroke:#FFFFFF;stroke-width:0.15;stroke-miterlimit:10;}
	.st95{fill:none;stroke:#B9B9B9;stroke-miterlimit:10;}
	.st96{opacity:0.5;}
	.st97{opacity:0.5;fill:none;stroke:#B9B9B9;stroke-miterlimit:10;}
	.st98{fill:none;stroke:#E5E5E5;stroke-miterlimit:10;}
	.st99{fill:#FFFFFF;stroke:#BABABA;stroke-miterlimit:10;}
	.st100{fill:#FFFFFF;stroke:#BABABA;stroke-width:2;stroke-linecap:round;stroke-linejoin:round;stroke-miterlimit:10;}
	.st101{fill:none;stroke:#079DC4;stroke-width:0.8605;stroke-miterlimit:10;}
	.st102{fill:#1A1A1A;}
	.st103{fill:#222222;}
	.st104{fill:#868686;}
	.st105{fill:#94CEED;}
	.st106{fill:#C4E2EB;}
	.st107{fill:#0C0E0F;}
	.st108{fill:#1B1B1B;}
	.st109{fill:#262424;}
</style>
<g>
	<g>
		<g>
			<g>
				<g>
					<rect x="33.7" y="146.5" class="st6" width="78.2" height="10.7"/>
				</g>
			</g>
		</g>
		<g>
			<g>
				<g>
					<path class="st7" d="M33.6,146.3h78.5v11H33.6V146.3z M111.8,146.6h-78v10.5h78V146.6z"/>
				</g>
			</g>
		</g>
	</g>
	<g>
		<g>
			<g>
				<g>
					<polygon class="st6" points="104.7,153.6 93.5,209.2 51.8,209.2 40.9,157.2 					"/>
				</g>
			</g>
		</g>
	</g>
	<g>
		<g>
			<g>
				<g>
					<polygon class="st6" points="104.7,203.9 98.7,212.2 48.1,212.2 40.9,203.9 					"/>
				</g>
			</g>
		</g>
	</g>
	<g>
		<g>
			<g>
				<g>
					<g>
						<path class="st7" d="M75.8,155.2c0.2,0,0.4-25.7,0.4-57.5c0.1-31.8,0-57.5-0.1-57.5c-0.2,0-0.4,25.7-0.4,57.5
							C75.6,129.5,75.6,155.2,75.8,155.2z"/>
					</g>
				</g>
			</g>
		</g>
	</g>
	<g>
		<g>
			<g>
				<g>
					<g>
						<path class="st7" d="M58.4,90.8c0,0,0.1,0.2,0.2,0.6c0.2,0.4,0.4,1,0.7,1.7c0.2,0.4,0.3,0.8,0.5,1.2c0.2,0.5,0.3,0.9,0.5,1.5
							c0.2,0.5,0.4,1.1,0.6,1.7c0.2,0.6,0.4,1.2,0.6,1.9c0.9,2.7,1.5,5.9,2.2,9.6c0.6,3.7,1,7.7,1.2,12c0.4,8.5-0.1,16.3-0.6,21.9
							c-0.3,2.8-0.5,5.1-0.7,6.6c-0.1,0.7-0.1,1.3-0.2,1.8c0,0.4-0.1,0.6,0,0.6c0,0,0.1-0.2,0.1-0.6c0.1-0.5,0.2-1.1,0.3-1.8
							c0.3-1.6,0.6-3.8,0.9-6.6c0.6-5.6,1.2-13.4,0.8-21.9c-0.2-4.3-0.7-8.4-1.3-12c-0.7-3.7-1.4-6.9-2.3-9.6
							c-0.2-0.7-0.4-1.3-0.6-1.9c-0.2-0.6-0.4-1.1-0.6-1.7c-0.2-0.5-0.4-1-0.6-1.5c-0.2-0.4-0.4-0.8-0.6-1.2
							c-0.3-0.7-0.6-1.2-0.8-1.6C58.5,91,58.4,90.8,58.4,90.8z"/>
					</g>
				</g>
			</g>
		</g>
	</g>
	<g>
		<g>
			<g>
				<g>
					<g>
						<path class="st7" d="M60.4,70c0,0,0.1,0.3,0.2,0.8c0.2,0.6,0.5,1.4,0.8,2.4c0.2,0.5,0.4,1.1,0.6,1.7c0.2,0.6,0.4,1.3,0.6,2.1
							c0.5,1.5,1,3.2,1.5,5.1c0.3,0.9,0.5,1.9,0.8,3c0.2,1,0.5,2.1,0.7,3.3c0.5,2.2,0.9,4.7,1.4,7.2c0.9,5.1,1.6,10.8,2.1,16.7
							c0.5,6,0.7,11.7,0.8,16.9c0,5.2-0.1,9.9-0.3,13.8c-0.1,2-0.2,3.7-0.3,5.3c-0.1,1.6-0.2,2.9-0.3,4c-0.1,1.1-0.1,1.9-0.2,2.5
							c0,0.6,0,0.9,0,0.9c0,0,0.1-0.3,0.1-0.9c0.1-0.6,0.2-1.5,0.3-2.5c0.1-1.1,0.3-2.4,0.4-4c0.1-1.6,0.3-3.3,0.4-5.3
							c0.3-3.9,0.4-8.6,0.4-13.8c0-5.2-0.2-10.9-0.7-16.9c-0.5-6-1.3-11.6-2.2-16.8c-0.5-2.5-0.9-5-1.5-7.2
							c-0.3-1.1-0.5-2.2-0.8-3.3c-0.3-1-0.6-2-0.8-3C64,80.2,63.4,78.5,63,77c-0.2-0.7-0.5-1.4-0.7-2.1c-0.2-0.6-0.4-1.2-0.6-1.7
							c-0.4-1-0.7-1.8-0.9-2.4C60.5,70.3,60.4,70,60.4,70z"/>
					</g>
				</g>
			</g>
		</g>
	</g>
	<g>
		<g>
			<g>
				<g>
					<g>
						<path class="st7" d="M80.7,159.8c0,0,0-0.1,0-0.3c0-0.2,0-0.5,0.1-0.9c0.1-0.8,0.1-2,0.2-3.4c0.2-3,0.5-7.3,0.8-12.5
							c0.7-10.6,1.7-25.2,3.4-41.3c0.9-8,2-15.7,3.1-22.6c0.6-3.5,1.1-6.7,1.7-9.8c0.6-3.1,1.1-5.9,1.7-8.5c0.5-2.6,1.1-4.9,1.5-7
							c0.5-2.1,0.9-3.8,1.3-5.3c0.3-1.4,0.6-2.5,0.8-3.3c0.1-0.4,0.1-0.6,0.2-0.9c0-0.2,0.1-0.3,0-0.3c0,0,0,0.1-0.1,0.3
							c-0.1,0.2-0.1,0.5-0.3,0.9c-0.2,0.8-0.5,1.9-0.9,3.3c-0.4,1.4-0.9,3.2-1.4,5.2c-0.5,2-1.1,4.4-1.6,7c-0.6,2.6-1.2,5.4-1.8,8.5
							c-0.6,3.1-1.2,6.3-1.8,9.8c-1.1,6.9-2.2,14.6-3.1,22.6c-1.8,16.1-2.7,30.7-3.3,41.3c-0.3,5.3-0.5,9.6-0.6,12.5
							c-0.1,1.5-0.1,2.6-0.1,3.4c0,0.4,0,0.7,0,0.9C80.7,159.7,80.7,159.8,80.7,159.8z"/>
					</g>
				</g>
			</g>
		</g>
	</g>
	<g>
		<g>
			<g>
				<g>
					<path class="st2" d="M76.4,52.7c0.3-3.6,4-6.4,7.7-6.4c3.7,0,7.1,2.2,9.3,5.1c2.2,2.9,3.5,6.4,4.5,10
						c2.5,8.6,3.8,17.6,2.8,26.5c-1.1,8.9-4.7,17.6-11,23.9c-1,1-2.4,2-3.8,1.7c-0.8-0.2-1.4-0.7-2-1.2
						C71.3,100.8,64.1,83.9,64.6,67c0.1-3.4,0.5-6.9,2.4-9.7C68.9,54.5,73.3,51.5,76.4,52.7"/>
				</g>
			</g>
		</g>
	</g>
	<g>
		<g>
			<g>
				<g>
					<g>
						<path class="st8" d="M103.8,23.5c1.7,3.1,3.4,6.2,5.2,9.3c0.1,0.2,0.3,0.5,0.5,0.5c0.3,0,0.5-0.2,0.6-0.5
							c4.5-7,9.1-14,13.6-20.9l-3.1-1.8L103.8,23.5z"/>
					</g>
				</g>
			</g>
		</g>
		<g>
			<g>
				<g>
					<g>
						<g>
							<path class="st9" d="M103.8,23.5c1.7,3.1,3.4,6.2,5.2,9.3c0.1,0.2,0.3,0.5,0.5,0.5c0.3,0,0.5-0.2,0.6-0.5
								c4.5-7,9.1-14,13.6-20.9l-3.1-1.8L103.8,23.5z"/>
						</g>
					</g>
				</g>
			</g>
		</g>
		<g>
			<g>
				<g>
					<g>
						<path class="st2" d="M76.1,40.3c15.5-9.1,31-18.3,46.5-27.4c0.5-0.3,1-0.6,1.1-1.1c0.2-0.7-0.3-1.4-0.8-1.9
							c-6.4-6.6-15.7-10.4-24.9-9.8c-9.2,0.7-18,6-22.5,14C71.1,22.1,71,32.7,76.1,40.3"/>
					</g>
				</g>
			</g>
		</g>
		<g>
			<g>
				<g>
					<g>
						<g>
							<path class="st7" d="M115.9,4.1c0,0-0.2,0-0.6-0.1c-0.4,0-1-0.1-1.8-0.1c-1.5,0-3.8,0.1-6.5,0.5c-2.7,0.4-5.9,1.3-9.2,2.8
								c-3.3,1.5-6.7,3.6-9.9,6.4c-3.1,2.8-5.6,6-7.4,9.2c-1.8,3.2-3,6.2-3.7,8.9c-0.7,2.6-1,4.8-1.2,6.4c-0.1,0.8-0.1,1.4-0.1,1.8
								c0,0.4,0,0.6,0,0.6c0,0,0.1-0.8,0.3-2.3c0.2-1.5,0.6-3.7,1.3-6.3c1.5-5.2,4.9-12.2,11-17.7c6.2-5.6,13.5-8.3,18.8-9.2
								c2.7-0.5,4.9-0.7,6.4-0.7C115.1,4.1,115.9,4.1,115.9,4.1z"/>
						</g>
					</g>
				</g>
			</g>
		</g>
		<g>
			<g>
				<g>
					<g>
						<g>
							<path class="st7" d="M82.4,21.3c0,0.1,0.9,0.5,2.4,1.1c1.5,0.6,3.6,1.3,5.9,2.1c2.3,0.7,4.4,1.3,6,1.7
								c1.5,0.4,2.5,0.6,2.5,0.5c0-0.1-0.9-0.4-2.4-0.9C95,25.3,93,24.6,90.8,24c-2.2-0.7-4.2-1.4-5.9-1.9
								C83.4,21.6,82.4,21.3,82.4,21.3z"/>
						</g>
					</g>
				</g>
			</g>
		</g>
		<g>
			<g>
				<g>
					<g>
						<g>
							<path class="st7" d="M89.7,1.7c-0.1,0-0.5,2.3-0.6,5.2c-0.1,2.9,0.1,5.2,0.3,5.2c0.2,0,0.2-2.3,0.3-5.2
								C89.8,4,89.9,1.7,89.7,1.7z"/>
						</g>
					</g>
				</g>
			</g>
		</g>
		<g>
			<g>
				<g>
					<g>
						<g>
							<path class="st7" d="M123,12.3c0-0.1-1.3-0.5-3.4-1.2c-2.1-0.7-5.1-1.5-8.3-2.3c-3.3-0.8-6.3-1.4-8.5-1.8
								c-2.2-0.4-3.5-0.6-3.5-0.5c0,0.1,1.3,0.4,3.5,0.9c2.2,0.5,5.1,1.1,8.4,1.9c3.3,0.8,6.2,1.6,8.4,2.1
								C121.7,12.1,123,12.4,123,12.3z"/>
						</g>
					</g>
				</g>
			</g>
		</g>
	</g>
	<g>
		<g>
			<g>
				<g>
					<g>
						<path class="st2" d="M97.6,44c4-3,8.2-3.6,13.2-3.4c5,0.2,9.9,1.7,14.5,3.7c7.8,3.4,15.2,8.5,19.9,15.7
							c4.7,7.2,6.3,16.7,2.8,24.5c-0.3,0.8-0.8,1.6-1.6,1.9c-0.8,0.4-1.8,0.1-2.6-0.2c-8.9-2.9-17.9-5.8-26.1-10.4
							c-8.2-4.6-15.7-10.9-20.1-19.2c-1.1-2-1.9-4.1-2.1-6.4C95.3,48,96,45.6,97.6,44"/>
					</g>
				</g>
			</g>
		</g>
		<g>
			<g>
				<g>
					<g>
						<g>
							<path class="st7" d="M97.5,43.1c0,0,0.2,0.1,0.6,0.3c0.5,0.2,1.1,0.4,1.9,0.6c0.4,0.1,0.9,0.3,1.4,0.5c0.5,0.2,1,0.4,1.6,0.6
								c1.1,0.5,2.4,0.9,3.8,1.6c0.7,0.3,1.4,0.7,2.2,1c0.8,0.4,1.5,0.8,2.3,1.2c1.6,0.8,3.3,1.8,5,2.8c3.4,2.2,7,4.8,10.6,7.8
								c3.5,3.1,6.5,6.4,9.1,9.5c1.2,1.6,2.5,3.1,3.5,4.6c0.5,0.7,1,1.4,1.5,2.1c0.4,0.7,0.9,1.4,1.3,2c0.8,1.3,1.5,2.5,2.1,3.6
								c0.3,0.5,0.6,1,0.8,1.5c0.2,0.5,0.4,0.9,0.6,1.3c0.4,0.7,0.6,1.3,0.9,1.8c0.2,0.4,0.3,0.6,0.3,0.6c0,0-0.1-0.2-0.2-0.6
								c-0.2-0.5-0.5-1.1-0.8-1.8c-0.2-0.4-0.4-0.8-0.6-1.3c-0.2-0.5-0.5-1-0.8-1.5c-0.6-1.1-1.2-2.3-2-3.6
								c-0.4-0.7-0.8-1.4-1.2-2.1c-0.4-0.7-1-1.4-1.5-2.2c-1-1.5-2.2-3-3.4-4.7c-2.6-3.2-5.6-6.4-9.1-9.6c-3.5-3.1-7.2-5.7-10.7-7.9
								c-1.8-1-3.4-2-5.1-2.8c-0.8-0.4-1.6-0.8-2.3-1.2c-0.8-0.3-1.5-0.7-2.2-1c-1.4-0.6-2.7-1.1-3.9-1.5c-0.6-0.2-1.1-0.4-1.6-0.6
								c-0.5-0.1-1-0.3-1.4-0.4c-0.8-0.2-1.4-0.4-1.9-0.5C97.7,43.1,97.5,43.1,97.5,43.1z"/>
						</g>
					</g>
				</g>
			</g>
		</g>
		<g>
			<g>
				<g>
					<g>
						<g>
							<path class="st7" d="M128.7,60c0,0.1,4.3,1.6,9.7,3.1c5.4,1.6,9.8,2.7,9.9,2.6c0-0.1-4.3-1.6-9.7-3.1
								C133.2,61,128.8,59.9,128.7,60z"/>
						</g>
					</g>
				</g>
			</g>
		</g>
		<g>
			<g>
				<g>
					<g>
						<g>
							<path class="st7" d="M129.1,81.5c0.1,0,0.2-1.2,0.2-3c0.1-1.9,0.1-4.5,0-7.3c-0.1-2.9-0.2-5.4-0.4-7.3c-0.2-1.9-0.3-3-0.4-3
								c-0.1,0-0.1,1.2,0,3c0.1,2.1,0.1,4.5,0.2,7.3c0.1,2.8,0.1,5.3,0.2,7.3C129,80.3,129.1,81.5,129.1,81.5z"/>
						</g>
					</g>
				</g>
			</g>
		</g>
		<g>
			<g>
				<g>
					<g>
						<g>
							<path class="st7" d="M110.7,72.1c0.2,0,0.6-5.3,1.1-11.8c0.5-6.5,0.7-11.8,0.5-11.8c-0.2,0-0.6,5.3-1.1,11.8
								C110.8,66.8,110.6,72.1,110.7,72.1z"/>
						</g>
					</g>
				</g>
			</g>
		</g>
		<g>
			<g>
				<g>
					<g>
						<g>
							<path class="st7" d="M133.6,48c0-0.1-1.2-0.1-3.1-0.1c-1.9,0-4.6,0.1-7.5,0.2c-2.9,0.1-5.6,0.2-7.5,0.3
								c-1.9,0.1-3.1,0.2-3.1,0.3c0,0.1,1.2,0.1,3.1,0.1c1.9,0,4.6-0.1,7.5-0.2c2.9-0.1,5.6-0.2,7.5-0.3
								C132.5,48.2,133.6,48.1,133.6,48z"/>
						</g>
					</g>
				</g>
			</g>
		</g>
	</g>
	<g>
		<g>
			<g>
				<g>
					<g>
						<path class="st7" d="M87.7,114.1c0,0,0-0.2,0.1-0.6c0-0.5,0-1.1,0.1-1.8c0.1-1.6,0.1-3.9,0-6.7c-0.1-2.8-0.2-6.2-0.6-10
							c-0.4-3.7-0.9-7.8-1.6-12.1c-0.8-4.3-1.7-8.3-2.6-11.9c-1-3.6-2-6.9-2.9-9.6c-0.9-2.7-1.7-4.8-2.3-6.3
							c-0.3-0.7-0.5-1.2-0.7-1.7c-0.2-0.4-0.3-0.6-0.3-0.6c0,0,0,0.2,0.2,0.6c0.2,0.5,0.4,1,0.6,1.7c0.6,1.5,1.3,3.7,2.2,6.4
							c0.9,2.7,1.8,5.9,2.8,9.6c0.9,3.6,1.8,7.6,2.6,11.9c0.7,4.3,1.3,8.3,1.7,12.1c0.4,3.7,0.6,7.1,0.7,9.9
							c0.1,2.8,0.2,5.1,0.2,6.7c0,0.7,0,1.3,0,1.8C87.6,113.9,87.6,114.1,87.7,114.1z"/>
					</g>
				</g>
			</g>
		</g>
	</g>
	<g>
		<g>
			<g>
				<g>
					<g>
						<path class="st7" d="M85.2,82.4c-0.1,0.1,0.7,0.8,1.9,2c1.2,1.2,2.9,2.8,4.9,4.5c2,1.7,3.8,3.2,5.1,4.2c1.3,1,2.2,1.6,2.3,1.6
							c0-0.1-0.7-0.8-2-1.9c-1.4-1.2-3.1-2.7-5-4.3c-1.9-1.6-3.5-3.1-5-4.4C86.1,83,85.3,82.3,85.2,82.4z"/>
					</g>
				</g>
			</g>
		</g>
	</g>
	<g>
		<g>
			<g>
				<g>
					<g>
						<path class="st7" d="M70.5,94.2c0.1,0,0.8-1,2-2.7c1.3-1.9,2.9-4.2,4.6-6.7c1.8-2.5,3.4-4.8,4.7-6.6c1.2-1.7,1.9-2.8,1.9-2.8
							c-0.1,0-0.9,0.9-2.2,2.6c-1.3,1.6-3,3.9-4.8,6.6c-1.8,2.6-3.4,5-4.5,6.8C71,93.1,70.4,94.2,70.5,94.2z"/>
					</g>
				</g>
			</g>
		</g>
	</g>
	<g>
		<g>
			<g>
				<g>
					<g>
						<path class="st7" d="M78.2,56.9c-0.1,0.1,4.8,3.4,10.9,7.4c6.1,3.9,11.1,7,11.2,6.9c0.1-0.1-4.8-3.4-10.9-7.4
							C83.3,59.9,78.3,56.8,78.2,56.9z"/>
					</g>
				</g>
			</g>
		</g>
	</g>
	<g>
		<g>
			<g>
				<g>
					<g>
						<path class="st7" d="M64.4,71.8c0.1,0.1,3.4-3,7.4-6.8c4-3.9,7.1-7.1,7-7.2c-0.1-0.1-3.4,2.9-7.4,6.8
							C67.4,68.5,64.3,71.7,64.4,71.8z"/>
					</g>
				</g>
			</g>
		</g>
	</g>
	<g>
		<g>
			<g>
				<g>
					<g>
						<path class="st2" d="M60.9,71.5l-4.2-0.3c-3-0.2-5.9-1.1-8.5-2.6c-1.3-0.7-2.6-1.4-4-2c-5.2-2.1-11-1.7-16.6-2
							c-9.1-0.5-18.1-2.8-26.4-6.7c-0.5-0.2-0.9-0.6-1.1-1c-0.9-1.6,0.7-3,2.1-3.8c7.1-4.4,14.3-8.8,22.3-10.9
							c8-2.2,17.1-1.8,24,2.9C56.7,50.5,59.6,61.9,60.9,71.5"/>
					</g>
				</g>
			</g>
		</g>
		<g>
			<g>
				<g>
					<g>
						<g>
							<path class="st7" d="M0.1,56.3c0,0,0.3-0.1,0.7-0.3c0.5-0.3,1.2-0.6,2-1c1.7-0.9,4.2-2.2,7.3-3.8c3.1-1.5,6.9-3.2,11.4-4.4
								c4.4-1.2,9.5-1.9,14.7-1.2c5.2,0.7,10,2.7,13.4,5.8c3.4,3,5.5,6.7,7,9.8c1.5,3.1,2.4,5.8,3,7.7c0.3,0.9,0.6,1.6,0.7,2.1
								c0.2,0.5,0.3,0.7,0.3,0.7c0,0,0-0.3-0.2-0.8c-0.2-0.5-0.4-1.3-0.6-2.2c-0.6-1.9-1.5-4.6-2.9-7.8c-1.4-3.2-3.5-6.9-7-10.1
								c-3.5-3.1-8.4-5.2-13.7-5.9c-5.3-0.7-10.5,0-15,1.3c-4.5,1.3-8.3,3-11.4,4.5c-3.1,1.6-5.6,3-7.3,3.9
								c-0.8,0.5-1.4,0.8-1.9,1.1C0.4,56.1,0.1,56.3,0.1,56.3z"/>
						</g>
					</g>
				</g>
			</g>
		</g>
		<g>
			<g>
				<g>
					<g>
						<g>
							<path class="st7" d="M10.2,61.7c0.1,0.1,5.6-3.4,12.3-7.9c6.7-4.5,12-8.3,12-8.4c-0.1-0.1-5.6,3.4-12.3,7.9
								C15.5,57.8,10.1,61.6,10.2,61.7z"/>
						</g>
					</g>
				</g>
			</g>
		</g>
		<g>
			<g>
				<g>
					<g>
						<g>
							<path class="st7" d="M15.5,44.9c0,0.1,1.9,0.6,4.3,0.9c2.4,0.2,4.4,0.1,4.4-0.1c0-0.2-1.9-0.3-4.3-0.5
								C17.5,45,15.5,44.7,15.5,44.9z"/>
						</g>
					</g>
				</g>
			</g>
		</g>
		<g>
			<g>
				<g>
					<g>
						<g>
							<path class="st7" d="M40.1,40.5c-0.1,0.1,0.7,1.7,1.8,3.6c1.1,1.9,2.1,3.4,2.3,3.3c0.1-0.1-0.7-1.7-1.8-3.6
								C41.3,41.9,40.3,40.4,40.1,40.5z"/>
						</g>
					</g>
				</g>
			</g>
		</g>
		<g>
			<g>
				<g>
					<g>
						<g>
							<path class="st7" d="M35.2,65c0,0.1,1.1-0.5,2.6-1.4c1.6-1,3.7-2.4,6-4c2.3-1.7,4.3-3.2,5.8-4.4c1.4-1.2,2.3-1.9,2.3-2
								c0-0.1-1,0.6-2.5,1.6c-1.6,1.2-3.6,2.6-5.9,4.3c-2.3,1.7-4.4,3.1-5.9,4.2C36.1,64.2,35.2,64.9,35.2,65z"/>
						</g>
					</g>
				</g>
			</g>
		</g>
	</g>
	<g>
		<g>
			<g>
				<g>
					<g>
						<path class="st2" d="M54.8,89.4c4-1.1,8.8,2.8,9.6,6.9c0.8,4.1-0.7,8.2-2.5,11.9c-3.9,8.3-9.4,16-16.6,21.7
							c-7.2,5.7-16.2,9.4-25.3,9.3c1.7-7.9-0.4-16.1,0.5-24.1c0.8-7,4.1-13.6,9.1-18.6c5-4.9,11.7-8.1,18.7-8.9
							C50.8,87.4,53.7,87,54.8,89.4"/>
					</g>
				</g>
			</g>
		</g>
		<g>
			<g>
				<g>
					<g>
						<g>
							<path class="st7" d="M20,139.2c0,0,0.2-0.1,0.6-0.3c0.4-0.2,0.9-0.5,1.5-1c1.3-1,2.7-2.8,4-5.3c0.6-1.2,1.4-2.6,2-4.1
								c0.7-1.5,1.4-3.1,2.2-4.8c0.8-1.7,1.6-3.4,2.6-5.1c1-1.7,2.3-3.3,3.6-5c2.7-3.2,5.7-6,8.2-8.7c2.6-2.7,4.7-5.2,6.3-7.5
								c1.6-2.3,2.5-4.4,3.1-5.9c0.3-0.7,0.4-1.3,0.5-1.7c0.1-0.4,0.1-0.6,0.1-0.6c-0.1,0-0.3,0.8-0.9,2.3c-0.6,1.4-1.6,3.4-3.2,5.7
								c-1.6,2.3-3.7,4.8-6.3,7.4c-2.6,2.6-5.5,5.4-8.3,8.7c-1.4,1.6-2.6,3.3-3.7,5c-1.1,1.7-1.9,3.5-2.6,5.2
								c-0.7,1.7-1.4,3.3-2.1,4.8c-0.7,1.5-1.4,2.8-2,4.1c-1.2,2.5-2.6,4.3-3.7,5.3C20.8,138.8,20,139.1,20,139.2z"/>
						</g>
					</g>
				</g>
			</g>
		</g>
		<g>
			<g>
				<g>
					<g>
						<g>
							<path class="st7" d="M40.7,132.7c0.1,0-0.1-1-0.4-2.7c-0.3-1.6-0.8-3.9-1.5-6.4c-0.7-2.5-1.4-4.7-2-6.2
								c-0.6-1.6-1-2.5-1.1-2.5c-0.1,0,0.2,1,0.7,2.6c0.5,1.6,1.2,3.8,1.9,6.3c0.7,2.5,1.3,4.7,1.7,6.3
								C40.4,131.7,40.6,132.7,40.7,132.7z"/>
						</g>
					</g>
				</g>
			</g>
		</g>
		<g>
			<g>
				<g>
					<g>
						<g>
							<path class="st7" d="M20.8,113.4c0,0.1,1.1-0.2,2.8-0.6c1.7-0.5,4.1-1.1,6.8-1.7c2.7-0.6,5.1-1.1,6.8-1.4
								c1.8-0.3,2.8-0.5,2.8-0.6c0-0.1-1.1,0-2.9,0.2c-1.8,0.2-4.2,0.6-6.9,1.2c-2.7,0.6-5,1.3-6.7,1.8
								C21.8,112.9,20.7,113.3,20.8,113.4z"/>
						</g>
					</g>
				</g>
			</g>
		</g>
		<g>
			<g>
				<g>
					<g>
						<g>
							<path class="st7" d="M55.6,119c0.1,0-0.1-1.2-0.4-3.1c-0.4-1.9-0.9-4.5-1.7-7.4c-0.8-2.9-1.5-5.4-2.2-7.3
								c-0.6-1.8-1.1-3-1.1-2.9c-0.1,0,0.2,1.2,0.8,3c0.5,1.9,1.3,4.4,2,7.3c0.7,2.9,1.4,5.5,1.8,7.4C55.2,117.8,55.5,119,55.6,119z
								"/>
						</g>
					</g>
				</g>
			</g>
		</g>
		<g>
			<g>
				<g>
					<g>
						<g>
							<path class="st7" d="M30,96.5c0,0.2,5-0.3,11.2-0.9c6.2-0.7,11.1-1.3,11.1-1.5c0-0.2-5,0.3-11.2,0.9
								C34.9,95.7,29.9,96.4,30,96.5z"/>
						</g>
					</g>
				</g>
			</g>
		</g>
	</g>
	<g>
		<g>
			<g>
				<g>
					<g>
						<path class="st10" d="M33.6,157.2c0,0.2,17.6,0.3,39.2,0.3c21.7,0,39.2-0.1,39.2-0.3c0-0.2-17.6-0.3-39.2-0.3
							C51.2,156.9,33.6,157,33.6,157.2z"/>
					</g>
				</g>
			</g>
		</g>
	</g>
	<g>
		<g>
			<g>
				<g>
					<g>
						<path class="st11" d="M45.8,179.8c0,0.2,11.8,0.3,26.4,0.3c14.6,0,26.4-0.1,26.4-0.3c0-0.2-11.8-0.3-26.4-0.3
							C57.7,179.5,45.8,179.6,45.8,179.8z"/>
					</g>
				</g>
			</g>
		</g>
	</g>
	<g>
		<g>
			<g>
				<g>
					<g>
						<path class="st10" d="M45.4,183c0,0.2,11.8,0.3,26.4,0.3c14.6,0,26.4-0.1,26.4-0.3c0-0.2-11.8-0.3-26.4-0.3
							C57.2,182.7,45.4,182.8,45.4,183z"/>
					</g>
				</g>
			</g>
		</g>
	</g>
	<g>
		<g>
			<g>
				<g>
					<g>
						<path class="st10" d="M45.4,177.1c0,0.2,12.2,0.3,27.3,0.3c15.1,0,27.4-0.1,27.4-0.3c0-0.2-12.2-0.3-27.4-0.3
							C57.6,176.8,45.4,177,45.4,177.1z"/>
					</g>
				</g>
			</g>
		</g>
	</g>
</g>
</svg>
