<svg id="Capa_1" data-name="Capa 1" xmlns="http://www.w3.org/2000/svg" viewBox="0 0 26.93 27.06">
  <defs>
    <style>
      .cls-1 {
        fill: #fff;
      }
    </style>
  </defs>
  <title>Atenea</title>
  <path class="cls-1" d="M23,3.93A13.41,13.41,0,0,0,1.9,20.11l-1.9,7,7.11-1.87a13.37,13.37,0,0,0,6.41,1.64h0A13.42,13.42,0,0,0,23,3.93ZM13.52,24.56h0A11.22,11.22,0,0,1,7.84,23l-.4-.24-4.22,1.1,1.13-4.11-.27-.42a11.15,11.15,0,1,1,9.44,5.22Zm6.11-8.34c-.33-.17-2-1-2.29-1.09s-.53-.17-.75.16-.86,1.09-1.06,1.32-.39.25-.73.08A9.28,9.28,0,0,1,12.11,15a9.93,9.93,0,0,1-1.86-2.32c-.2-.34,0-.5.14-.69a8.89,8.89,0,0,0,.84-1.14.61.61,0,0,0,0-.59c-.08-.17-.75-1.82-1-2.49s-.55-.56-.75-.57H8.77a1.24,1.24,0,0,0-.89.41,3.77,3.77,0,0,0-1.17,2.8A6.53,6.53,0,0,0,8.08,13.9a14.88,14.88,0,0,0,5.72,5,17.13,17.13,0,0,0,1.91.71,4.6,4.6,0,0,0,2.11.13,3.44,3.44,0,0,0,2.26-1.59,2.84,2.84,0,0,0,.2-1.59C20.19,16.47,20,16.38,19.63,16.22Z"/>
</svg>
