<svg id="Capa_1" data-name="Capa 1" xmlns="http://www.w3.org/2000/svg" viewBox="0 0 59.74 59.74">
  <defs>
    <style>
      .cls-1, .cls-2 {
        fill: #6db1e4;
      }

      .cls-1 {
        opacity: 0.3;
      }
    </style>
  </defs>
  <title>Atenea</title>
  <g>
    <circle class="cls-1" cx="29.87" cy="29.87" r="29.87"/>
    <g>
      <path class="cls-2" d="M41.28,18.64H38.71V16.06a1.48,1.48,0,0,0-1.48-1.47H18.46A1.48,1.48,0,0,0,17,16.06V39.63a1.48,1.48,0,0,0,1.48,1.47H21v2.58a1.48,1.48,0,0,0,1.48,1.47H35a4.28,4.28,0,0,0,2.55-1l4.11-3.87a3.93,3.93,0,0,0,1.08-2.48V20.11A1.48,1.48,0,0,0,41.28,18.64ZM21,20.11V40H18.46a.38.38,0,0,1-.37-.37V16.06a.38.38,0,0,1,.37-.37H37.23a.38.38,0,0,1,.37.37v2.58H22.51A1.48,1.48,0,0,0,21,20.11Zm19.9,19.35-4.12,3.88a2.08,2.08,0,0,1-.31.23V40.18a.91.91,0,0,1,.27-.65.9.9,0,0,1,.65-.27H41.1A1.18,1.18,0,0,1,40.93,39.46Zm.72-1.67a1.63,1.63,0,0,1,0,.36H37.42a2,2,0,0,0-2,2V44a1.72,1.72,0,0,1-.37,0H22.51a.38.38,0,0,1-.37-.37V20.11a.38.38,0,0,1,.37-.37H41.28a.38.38,0,0,1,.37.37Z"/>
      <path class="cls-2" d="M37.23,23.79H26.56a.56.56,0,1,0,0,1.11H37.23a.56.56,0,1,0,0-1.11Z"/>
      <path class="cls-2" d="M37.23,31.16H26.56a.56.56,0,0,0-.56.55.55.55,0,0,0,.56.55H37.23a.55.55,0,0,0,.56-.55A.56.56,0,0,0,37.23,31.16Z"/>
      <path class="cls-2" d="M32.45,34.84H26.56a.56.56,0,1,0,0,1.11h5.89a.56.56,0,0,0,0-1.11Z"/>
      <path class="cls-2" d="M37.23,27.48H26.56A.55.55,0,0,0,26,28a.56.56,0,0,0,.56.55H37.23a.56.56,0,0,0,.56-.55A.55.55,0,0,0,37.23,27.48Z"/>
    </g>
  </g>
</svg>
